SplineFontDB: 3.0
FontName: sqapsMedium
FullName: sqaps Medium
FamilyName: sqaps
Weight: Medium
Copyright: lvgx made it
UComments: "2018: Created with gbdfed+AAoA-2019-5-15: Converted to vector with FontForge (http://fontforge.org)+AAoACgAA-A small square all caps font."
Version: 001.000
ItalicAngle: 0
UnderlinePosition: -100
UnderlineWidth: 100
Ascent: 700
Descent: 100
InvalidEm: 0
LayerCount: 2
Layer: 0 0 "Arri+AOgA-re" 1
Layer: 1 0 "Avant" 0
XUID: [1021 1003 -1213341713 12748128]
FSType: 0
OS2Version: 0
OS2_WeightWidthSlopeOnly: 0
OS2_UseTypoMetrics: 1
CreationTime: 1557937519
ModificationTime: 1557942095
PfmFamily: 17
TTFWeight: 500
TTFWidth: 5
LineGap: 72
VLineGap: 0
OS2TypoAscent: 0
OS2TypoAOffset: 1
OS2TypoDescent: 0
OS2TypoDOffset: 1
OS2TypoLinegap: 72
OS2WinAscent: 0
OS2WinAOffset: 1
OS2WinDescent: 0
OS2WinDOffset: 1
HheadAscent: 0
HheadAOffset: 1
HheadDescent: 0
HheadDOffset: 1
OS2Vendor: 'PfEd'
MarkAttachClasses: 1
DEI: 91125
LangName: 1033
Encoding: ISO-8859-1
UnicodeInterp: none
NameList: AGL For New Fonts
DisplaySize: 6
AntiAlias: 1
FitToEm: 0
WinInfo: 0 25 14
BeginPrivate: 0
EndPrivate
TeXData: 1 0 0 736625 368312 245541 655360 1048576 245541 783286 444596 497025 792723 393216 433062 380633 303038 157286 324010 404750 52429 2506097 1059062 262144
BeginChars: 65536 1090

StartChar: U+0021
Encoding: 33 33 1
Width: 600
VWidth: -81
Flags: HW
LayerCount: 2
Back
Fore
SplineSet
200 50 m 1
 200 100 l 1
 250 100 l 1
 300 100 l 1
 300 50 l 1
 300 0 l 1
 250 0 l 1
 200 0 l 1
 200 50 l 1
200 400 m 1
 200 600 l 1
 250 600 l 1
 300 600 l 1
 300 400 l 1
 300 200 l 1
 250 200 l 1
 200 200 l 1
 200 400 l 1
EndSplineSet
Validated: 513
EndChar

StartChar: U+0022
Encoding: 34 34 2
Width: 600
VWidth: -81
Flags: HW
LayerCount: 2
Back
Fore
SplineSet
300 450 m 1
 300 600 l 1
 350 600 l 1
 400 600 l 1
 400 450 l 1
 400 300 l 1
 350 300 l 1
 300 300 l 1
 300 450 l 1
100 450 m 1
 100 600 l 1
 150 600 l 1
 200 600 l 1
 200 450 l 1
 200 300 l 1
 150 300 l 1
 100 300 l 1
 100 450 l 1
EndSplineSet
Validated: 513
EndChar

StartChar: U+0023
Encoding: 35 35 3
Width: 600
VWidth: -81
Flags: HW
LayerCount: 2
Back
Fore
SplineSet
100 450 m 1
 100 500 l 1
 150 500 l 1
 200 500 l 1
 200 450 l 1
 200 400 l 1
 250 400 l 1
 300 400 l 1
 300 450 l 1
 300 500 l 1
 350 500 l 1
 400 500 l 1
 400 450 l 1
 400 400 l 1
 450 400 l 1
 500 400 l 1
 500 350 l 1
 500 300 l 1
 450 300 l 1
 400 300 l 1
 400 250 l 1
 400 200 l 1
 450 200 l 1
 500 200 l 1
 500 150 l 1
 500 100 l 1
 450 100 l 1
 400 100 l 1
 400 50 l 1
 400 0 l 1
 350 0 l 1
 300 0 l 1
 300 50 l 1
 300 100 l 1
 250 100 l 1
 200 100 l 1
 200 50 l 1
 200 0 l 1
 150 0 l 1
 100 0 l 1
 100 50 l 1
 100 100 l 1
 50 100 l 1
 0 100 l 1
 0 150 l 1
 0 200 l 1
 50 200 l 1
 100 200 l 1
 100 250 l 1
 100 300 l 1
 50 300 l 1
 0 300 l 1
 0 350 l 1
 0 400 l 1
 50 400 l 1
 100 400 l 1
 100 450 l 1
300 250 m 1
 300 300 l 1
 250 300 l 1
 200 300 l 1
 200 250 l 1
 200 200 l 1
 250 200 l 1
 300 200 l 1
 300 250 l 1
EndSplineSet
Validated: 513
EndChar

StartChar: U+0024
Encoding: 36 36 4
Width: 600
VWidth: -81
Flags: HW
LayerCount: 2
Back
Fore
SplineSet
200 550 m 1
 200 600 l 1
 250 600 l 1
 300 600 l 1
 300 550 l 1
 300 500 l 1
 400 500 l 1
 500 500 l 1
 500 450 l 1
 500 400 l 1
 400 400 l 1
 300 400 l 1
 300 350 l 1
 300 300 l 1
 400 300 l 1
 500 300 l 1
 500 150 l 1
 500 0 l 1
 400 0 l 1
 300 0 l 1
 300 -50 l 1
 300 -100 l 1
 250 -100 l 1
 200 -100 l 1
 200 -50 l 1
 200 0 l 1
 100 0 l 1
 0 0 l 1
 0 50 l 1
 0 100 l 1
 100 100 l 1
 200 100 l 1
 200 150 l 1
 200 200 l 1
 100 200 l 1
 0 200 l 1
 0 350 l 1
 0 500 l 1
 100 500 l 1
 200 500 l 1
 200 550 l 1
200 350 m 1
 200 400 l 1
 150 400 l 1
 100 400 l 1
 100 350 l 1
 100 300 l 1
 150 300 l 1
 200 300 l 1
 200 350 l 1
400 150 m 1
 400 200 l 1
 350 200 l 1
 300 200 l 1
 300 150 l 1
 300 100 l 1
 350 100 l 1
 400 100 l 1
 400 150 l 1
EndSplineSet
Validated: 513
EndChar

StartChar: U+0025
Encoding: 37 37 5
Width: 600
VWidth: -81
Flags: HW
LayerCount: 2
Back
Fore
SplineSet
300 50 m 1
 300 100 l 1
 350 100 l 1
 400 100 l 1
 400 50 l 1
 400 0 l 1
 350 0 l 1
 300 0 l 1
 300 50 l 1
400 400 m 1
 400 500 l 1
 450 500 l 1
 500 500 l 1
 500 350 l 1
 500 200 l 1
 300 200 l 1
 100 200 l 1
 100 100 l 1
 100 0 l 1
 50 0 l 1
 0 0 l 1
 0 150 l 1
 0 300 l 1
 200 300 l 1
 400 300 l 1
 400 400 l 1
100 450 m 1
 100 500 l 1
 150 500 l 1
 200 500 l 1
 200 450 l 1
 200 400 l 1
 150 400 l 1
 100 400 l 1
 100 450 l 1
EndSplineSet
Validated: 513
EndChar

StartChar: U+0026
Encoding: 38 38 6
Width: 600
VWidth: -81
Flags: HW
LayerCount: 2
Back
Fore
SplineSet
100 400 m 1
 100 500 l 1
 250 500 l 1
 400 500 l 1
 400 300 l 1
 400 100 l 1
 450 100 l 1
 500 100 l 1
 500 50 l 1
 500 0 l 1
 450 0 l 1
 400 0 l 1
 400 -50 l 1
 400 -100 l 1
 350 -100 l 1
 300 -100 l 1
 300 -50 l 1
 300 0 l 1
 150 0 l 1
 0 0 l 1
 0 150 l 1
 0 300 l 1
 50 300 l 1
 100 300 l 1
 100 400 l 1
300 350 m 1
 300 400 l 1
 250 400 l 1
 200 400 l 1
 200 350 l 1
 200 300 l 1
 250 300 l 1
 300 300 l 1
 300 350 l 1
300 150 m 1
 300 200 l 1
 200 200 l 1
 100 200 l 1
 100 150 l 1
 100 100 l 1
 200 100 l 1
 300 100 l 1
 300 150 l 1
EndSplineSet
Validated: 513
EndChar

StartChar: U+0027
Encoding: 39 39 7
Width: 600
VWidth: -81
Flags: HW
LayerCount: 2
Back
Fore
SplineSet
200 450 m 1
 200 600 l 1
 250 600 l 1
 300 600 l 1
 300 450 l 1
 300 300 l 1
 250 300 l 1
 200 300 l 1
 200 450 l 1
EndSplineSet
Validated: 513
EndChar

StartChar: U+0028
Encoding: 40 40 8
Width: 600
VWidth: -81
Flags: HW
LayerCount: 2
Back
Fore
SplineSet
200 550 m 1
 200 600 l 1
 250 600 l 1
 300 600 l 1
 300 500 l 1
 300 400 l 1
 250 400 l 1
 200 400 l 1
 200 250 l 1
 200 100 l 1
 250 100 l 1
 300 100 l 1
 300 0 l 1
 300 -100 l 1
 250 -100 l 1
 200 -100 l 1
 200 -50 l 1
 200 0 l 1
 150 0 l 1
 100 0 l 1
 100 250 l 1
 100 500 l 1
 150 500 l 1
 200 500 l 1
 200 550 l 1
EndSplineSet
Validated: 513
EndChar

StartChar: U+0029
Encoding: 41 41 9
Width: 600
VWidth: -81
Flags: HW
LayerCount: 2
Back
Fore
SplineSet
200 500 m 1
 200 600 l 1
 250 600 l 1
 300 600 l 1
 300 550 l 1
 300 500 l 1
 350 500 l 1
 400 500 l 1
 400 250 l 1
 400 0 l 1
 350 0 l 1
 300 0 l 1
 300 -50 l 1
 300 -100 l 1
 250 -100 l 1
 200 -100 l 1
 200 0 l 1
 200 100 l 1
 250 100 l 1
 300 100 l 1
 300 250 l 1
 300 400 l 1
 250 400 l 1
 200 400 l 1
 200 500 l 1
EndSplineSet
Validated: 513
EndChar

StartChar: U+002A
Encoding: 42 42 10
Width: 600
VWidth: -81
Flags: HW
LayerCount: 2
Back
Fore
SplineSet
100 450 m 1
 100 500 l 1
 250 500 l 1
 400 500 l 1
 400 450 l 1
 400 400 l 1
 350 400 l 1
 300 400 l 1
 300 350 l 1
 300 300 l 1
 400 300 l 1
 500 300 l 1
 500 250 l 1
 500 200 l 1
 400 200 l 1
 300 200 l 1
 300 150 l 1
 300 100 l 1
 350 100 l 1
 400 100 l 1
 400 50 l 1
 400 0 l 1
 250 0 l 1
 100 0 l 1
 100 50 l 1
 100 100 l 1
 150 100 l 1
 200 100 l 1
 200 150 l 1
 200 200 l 1
 100 200 l 1
 0 200 l 1
 0 250 l 1
 0 300 l 1
 100 300 l 1
 200 300 l 1
 200 350 l 1
 200 400 l 1
 150 400 l 1
 100 400 l 1
 100 450 l 1
EndSplineSet
Validated: 513
EndChar

StartChar: U+002B
Encoding: 43 43 11
Width: 600
VWidth: -81
Flags: HW
LayerCount: 2
Back
Fore
SplineSet
200 400 m 1
 200 500 l 1
 250 500 l 1
 300 500 l 1
 300 400 l 1
 300 300 l 1
 400 300 l 1
 500 300 l 1
 500 250 l 1
 500 200 l 1
 400 200 l 1
 300 200 l 1
 300 100 l 1
 300 0 l 1
 250 0 l 1
 200 0 l 1
 200 100 l 1
 200 200 l 1
 100 200 l 1
 0 200 l 1
 0 250 l 1
 0 300 l 1
 100 300 l 1
 200 300 l 1
 200 400 l 1
EndSplineSet
Validated: 513
EndChar

StartChar: U+002C
Encoding: 44 44 12
Width: 600
VWidth: -81
Flags: HW
LayerCount: 2
Back
Fore
SplineSet
200 50 m 1
 200 100 l 1
 250 100 l 1
 300 100 l 1
 300 0 l 1
 300 -100 l 1
 200 -100 l 1
 100 -100 l 1
 100 -50 l 1
 100 0 l 1
 150 0 l 1
 200 0 l 1
 200 50 l 1
EndSplineSet
Validated: 513
EndChar

StartChar: U+002D
Encoding: 45 45 13
Width: 600
VWidth: -81
Flags: HW
LayerCount: 2
Back
Fore
SplineSet
0 250 m 1
 0 300 l 1
 250 300 l 1
 500 300 l 1
 500 250 l 1
 500 200 l 1
 250 200 l 1
 0 200 l 1
 0 250 l 1
EndSplineSet
Validated: 513
EndChar

StartChar: U+002E
Encoding: 46 46 14
Width: 600
VWidth: -81
Flags: HW
LayerCount: 2
Back
Fore
SplineSet
200 50 m 1
 200 100 l 1
 250 100 l 1
 300 100 l 1
 300 50 l 1
 300 0 l 1
 250 0 l 1
 200 0 l 1
 200 50 l 1
EndSplineSet
Validated: 513
EndChar

StartChar: U+002F
Encoding: 47 47 15
Width: 600
VWidth: -81
Flags: HW
LayerCount: 2
Back
Fore
SplineSet
300 450 m 1
 300 600 l 1
 350 600 l 1
 400 600 l 1
 400 400 l 1
 400 200 l 1
 300 200 l 1
 200 200 l 1
 200 50 l 1
 200 -100 l 1
 150 -100 l 1
 100 -100 l 1
 100 100 l 1
 100 300 l 1
 200 300 l 1
 300 300 l 1
 300 450 l 1
EndSplineSet
Validated: 513
EndChar

StartChar: U+0030
Encoding: 48 48 16
Width: 600
VWidth: -81
Flags: HW
LayerCount: 2
Back
Fore
SplineSet
100 250 m 1
 100 500 l 1
 250 500 l 1
 400 500 l 1
 400 250 l 1
 400 0 l 1
 250 0 l 1
 100 0 l 1
 100 250 l 1
300 250 m 1
 300 400 l 1
 250 400 l 1
 200 400 l 1
 200 250 l 1
 200 100 l 1
 250 100 l 1
 300 100 l 1
 300 250 l 1
EndSplineSet
Validated: 513
EndChar

StartChar: U+0031
Encoding: 49 49 17
Width: 600
VWidth: -81
Flags: HW
LayerCount: 2
Back
Fore
SplineSet
200 450 m 1
 200 500 l 1
 250 500 l 1
 300 500 l 1
 300 250 l 1
 300 0 l 1
 250 0 l 1
 200 0 l 1
 200 150 l 1
 200 300 l 1
 150 300 l 1
 100 300 l 1
 100 350 l 1
 100 400 l 1
 150 400 l 1
 200 400 l 1
 200 450 l 1
EndSplineSet
Validated: 513
EndChar

StartChar: U+0032
Encoding: 50 50 18
Width: 600
VWidth: -81
Flags: HW
LayerCount: 2
Back
Fore
SplineSet
100 450 m 1
 100 500 l 1
 250 500 l 1
 400 500 l 1
 400 350 l 1
 400 200 l 1
 300 200 l 1
 200 200 l 1
 200 150 l 1
 200 100 l 1
 300 100 l 1
 400 100 l 1
 400 50 l 1
 400 0 l 1
 250 0 l 1
 100 0 l 1
 100 150 l 1
 100 300 l 1
 200 300 l 1
 300 300 l 1
 300 350 l 1
 300 400 l 1
 200 400 l 1
 100 400 l 1
 100 450 l 1
EndSplineSet
Validated: 513
EndChar

StartChar: U+0033
Encoding: 51 51 19
Width: 600
VWidth: -81
Flags: HW
LayerCount: 2
Back
Fore
SplineSet
100 450 m 1
 100 500 l 1
 250 500 l 1
 400 500 l 1
 400 250 l 1
 400 0 l 1
 250 0 l 1
 100 0 l 1
 100 50 l 1
 100 100 l 1
 200 100 l 1
 300 100 l 1
 300 150 l 1
 300 200 l 1
 200 200 l 1
 100 200 l 1
 100 250 l 1
 100 300 l 1
 200 300 l 1
 300 300 l 1
 300 350 l 1
 300 400 l 1
 200 400 l 1
 100 400 l 1
 100 450 l 1
EndSplineSet
Validated: 513
EndChar

StartChar: U+0034
Encoding: 52 52 20
Width: 600
VWidth: -81
Flags: HW
LayerCount: 2
Back
Fore
SplineSet
100 350 m 1
 100 500 l 1
 150 500 l 1
 200 500 l 1
 200 400 l 1
 200 300 l 1
 250 300 l 1
 300 300 l 1
 300 400 l 1
 300 500 l 1
 350 500 l 1
 400 500 l 1
 400 250 l 1
 400 0 l 1
 350 0 l 1
 300 0 l 1
 300 100 l 1
 300 200 l 1
 200 200 l 1
 100 200 l 1
 100 350 l 1
EndSplineSet
Validated: 513
EndChar

StartChar: U+0035
Encoding: 53 53 21
Width: 600
VWidth: -81
Flags: HW
LayerCount: 2
Back
Fore
SplineSet
100 350 m 1
 100 500 l 1
 250 500 l 1
 400 500 l 1
 400 450 l 1
 400 400 l 1
 300 400 l 1
 200 400 l 1
 200 350 l 1
 200 300 l 1
 300 300 l 1
 400 300 l 1
 400 150 l 1
 400 0 l 1
 250 0 l 1
 100 0 l 1
 100 50 l 1
 100 100 l 1
 200 100 l 1
 300 100 l 1
 300 150 l 1
 300 200 l 1
 200 200 l 1
 100 200 l 1
 100 350 l 1
EndSplineSet
Validated: 513
EndChar

StartChar: U+0036
Encoding: 54 54 22
Width: 600
VWidth: -81
Flags: HW
LayerCount: 2
Back
Fore
SplineSet
100 250 m 1
 100 500 l 1
 250 500 l 1
 400 500 l 1
 400 450 l 1
 400 400 l 1
 300 400 l 1
 200 400 l 1
 200 350 l 1
 200 300 l 1
 300 300 l 1
 400 300 l 1
 400 150 l 1
 400 0 l 1
 250 0 l 1
 100 0 l 1
 100 250 l 1
300 150 m 1
 300 200 l 1
 250 200 l 1
 200 200 l 1
 200 150 l 1
 200 100 l 1
 250 100 l 1
 300 100 l 1
 300 150 l 1
EndSplineSet
Validated: 513
EndChar

StartChar: U+0037
Encoding: 55 55 23
Width: 600
VWidth: -81
Flags: HW
LayerCount: 2
Back
Fore
SplineSet
100 450 m 1
 100 500 l 1
 250 500 l 1
 400 500 l 1
 400 250 l 1
 400 0 l 1
 350 0 l 1
 300 0 l 1
 300 200 l 1
 300 400 l 1
 200 400 l 1
 100 400 l 1
 100 450 l 1
EndSplineSet
Validated: 513
EndChar

StartChar: U+0038
Encoding: 56 56 24
Width: 600
VWidth: -81
Flags: HW
LayerCount: 2
Back
Fore
SplineSet
100 250 m 1
 100 500 l 1
 250 500 l 1
 400 500 l 1
 400 250 l 1
 400 0 l 1
 250 0 l 1
 100 0 l 1
 100 250 l 1
300 350 m 1
 300 400 l 1
 250 400 l 1
 200 400 l 1
 200 350 l 1
 200 300 l 1
 250 300 l 1
 300 300 l 1
 300 350 l 1
300 150 m 1
 300 200 l 1
 250 200 l 1
 200 200 l 1
 200 150 l 1
 200 100 l 1
 250 100 l 1
 300 100 l 1
 300 150 l 1
EndSplineSet
Validated: 513
EndChar

StartChar: U+0039
Encoding: 57 57 25
Width: 600
VWidth: -81
Flags: HW
LayerCount: 2
Back
Fore
SplineSet
100 350 m 1
 100 500 l 1
 250 500 l 1
 400 500 l 1
 400 250 l 1
 400 0 l 1
 250 0 l 1
 100 0 l 1
 100 50 l 1
 100 100 l 1
 200 100 l 1
 300 100 l 1
 300 150 l 1
 300 200 l 1
 200 200 l 1
 100 200 l 1
 100 350 l 1
300 350 m 1
 300 400 l 1
 250 400 l 1
 200 400 l 1
 200 350 l 1
 200 300 l 1
 250 300 l 1
 300 300 l 1
 300 350 l 1
EndSplineSet
Validated: 513
EndChar

StartChar: U+003A
Encoding: 58 58 26
Width: 600
VWidth: -81
Flags: HW
LayerCount: 2
Back
Fore
SplineSet
200 50 m 1
 200 100 l 1
 250 100 l 1
 300 100 l 1
 300 50 l 1
 300 0 l 1
 250 0 l 1
 200 0 l 1
 200 50 l 1
200 450 m 1
 200 500 l 1
 250 500 l 1
 300 500 l 1
 300 450 l 1
 300 400 l 1
 250 400 l 1
 200 400 l 1
 200 450 l 1
EndSplineSet
Validated: 513
EndChar

StartChar: U+003B
Encoding: 59 59 27
Width: 600
VWidth: -81
Flags: HW
LayerCount: 2
Back
Fore
SplineSet
200 50 m 1
 200 100 l 1
 250 100 l 1
 300 100 l 1
 300 0 l 1
 300 -100 l 1
 200 -100 l 1
 100 -100 l 1
 100 -50 l 1
 100 0 l 1
 150 0 l 1
 200 0 l 1
 200 50 l 1
200 450 m 1
 200 500 l 1
 250 500 l 1
 300 500 l 1
 300 450 l 1
 300 400 l 1
 250 400 l 1
 200 400 l 1
 200 450 l 1
EndSplineSet
Validated: 513
EndChar

StartChar: U+003C
Encoding: 60 60 28
Width: 600
VWidth: -81
Flags: HW
LayerCount: 2
Back
Fore
SplineSet
300 450 m 1
 300 500 l 1
 350 500 l 1
 400 500 l 1
 400 400 l 1
 400 300 l 1
 300 300 l 1
 200 300 l 1
 200 250 l 1
 200 200 l 1
 300 200 l 1
 400 200 l 1
 400 100 l 1
 400 0 l 1
 350 0 l 1
 300 0 l 1
 300 50 l 1
 300 100 l 1
 200 100 l 1
 100 100 l 1
 100 250 l 1
 100 400 l 1
 200 400 l 1
 300 400 l 1
 300 450 l 1
EndSplineSet
Validated: 513
EndChar

StartChar: U+003D
Encoding: 61 61 29
Width: 600
VWidth: -81
Flags: HW
LayerCount: 2
Back
Fore
SplineSet
0 150 m 1
 0 200 l 1
 250 200 l 1
 500 200 l 1
 500 150 l 1
 500 100 l 1
 250 100 l 1
 0 100 l 1
 0 150 l 1
0 350 m 1
 0 400 l 1
 250 400 l 1
 500 400 l 1
 500 350 l 1
 500 300 l 1
 250 300 l 1
 0 300 l 1
 0 350 l 1
EndSplineSet
Validated: 513
EndChar

StartChar: U+003E
Encoding: 62 62 30
Width: 600
VWidth: -81
Flags: HW
LayerCount: 2
Back
Fore
SplineSet
100 400 m 1
 100 500 l 1
 150 500 l 1
 200 500 l 1
 200 450 l 1
 200 400 l 1
 300 400 l 1
 400 400 l 1
 400 250 l 1
 400 100 l 1
 300 100 l 1
 200 100 l 1
 200 50 l 1
 200 0 l 1
 150 0 l 1
 100 0 l 1
 100 100 l 1
 100 200 l 1
 200 200 l 1
 300 200 l 1
 300 250 l 1
 300 300 l 1
 200 300 l 1
 100 300 l 1
 100 400 l 1
EndSplineSet
Validated: 513
EndChar

StartChar: U+003F
Encoding: 63 63 31
Width: 600
VWidth: -81
Flags: HW
LayerCount: 2
Back
Fore
SplineSet
200 50 m 1
 200 100 l 1
 250 100 l 1
 300 100 l 1
 300 50 l 1
 300 0 l 1
 250 0 l 1
 200 0 l 1
 200 50 l 1
0 450 m 1
 0 500 l 1
 250 500 l 1
 500 500 l 1
 500 350 l 1
 500 200 l 1
 350 200 l 1
 200 200 l 1
 200 250 l 1
 200 300 l 1
 300 300 l 1
 400 300 l 1
 400 350 l 1
 400 400 l 1
 200 400 l 1
 0 400 l 1
 0 450 l 1
EndSplineSet
Validated: 513
EndChar

StartChar: U+0040
Encoding: 64 64 32
Width: 600
VWidth: -81
Flags: HW
LayerCount: 2
Back
Fore
SplineSet
0 300 m 1
 0 600 l 1
 250 600 l 1
 500 600 l 1
 500 400 l 1
 500 200 l 1
 350 200 l 1
 200 200 l 1
 200 300 l 1
 200 400 l 1
 250 400 l 1
 300 400 l 1
 300 350 l 1
 300 300 l 1
 350 300 l 1
 400 300 l 1
 400 400 l 1
 400 500 l 1
 250 500 l 1
 100 500 l 1
 100 300 l 1
 100 100 l 1
 300 100 l 1
 500 100 l 1
 500 50 l 1
 500 0 l 1
 250 0 l 1
 0 0 l 1
 0 300 l 1
EndSplineSet
Validated: 513
EndChar

StartChar: U+0041
Encoding: 65 65 33
Width: 600
VWidth: -81
Flags: HW
LayerCount: 2
Back
Fore
SplineSet
0 300 m 1
 0 600 l 1
 250 600 l 1
 500 600 l 1
 500 300 l 1
 500 0 l 1
 450 0 l 1
 400 0 l 1
 400 100 l 1
 400 200 l 1
 250 200 l 1
 100 200 l 1
 100 100 l 1
 100 0 l 1
 50 0 l 1
 0 0 l 1
 0 300 l 1
400 400 m 1
 400 500 l 1
 250 500 l 1
 100 500 l 1
 100 400 l 1
 100 300 l 1
 250 300 l 1
 400 300 l 1
 400 400 l 1
EndSplineSet
Validated: 513
EndChar

StartChar: U+0042
Encoding: 66 66 34
Width: 600
VWidth: -81
Flags: HW
LayerCount: 2
Back
Fore
SplineSet
0 300 m 1
 0 600 l 1
 200 600 l 1
 400 600 l 1
 400 450 l 1
 400 300 l 1
 450 300 l 1
 500 300 l 1
 500 150 l 1
 500 0 l 1
 250 0 l 1
 0 0 l 1
 0 300 l 1
300 400 m 1
 300 500 l 1
 200 500 l 1
 100 500 l 1
 100 400 l 1
 100 300 l 1
 200 300 l 1
 300 300 l 1
 300 400 l 1
400 150 m 1
 400 200 l 1
 250 200 l 1
 100 200 l 1
 100 150 l 1
 100 100 l 1
 250 100 l 1
 400 100 l 1
 400 150 l 1
EndSplineSet
Validated: 513
EndChar

StartChar: U+0043
Encoding: 67 67 35
Width: 600
VWidth: -81
Flags: HW
LayerCount: 2
Back
Fore
SplineSet
0 300 m 1
 0 600 l 1
 250 600 l 1
 500 600 l 1
 500 550 l 1
 500 500 l 1
 300 500 l 1
 100 500 l 1
 100 300 l 1
 100 100 l 1
 300 100 l 1
 500 100 l 1
 500 50 l 1
 500 0 l 1
 250 0 l 1
 0 0 l 1
 0 300 l 1
EndSplineSet
Validated: 513
EndChar

StartChar: U+0044
Encoding: 68 68 36
Width: 600
VWidth: -81
Flags: HW
LayerCount: 2
Back
Fore
SplineSet
0 300 m 1
 0 600 l 1
 150 600 l 1
 300 600 l 1
 300 550 l 1
 300 500 l 1
 400 500 l 1
 500 500 l 1
 500 300 l 1
 500 100 l 1
 400 100 l 1
 300 100 l 1
 300 50 l 1
 300 0 l 1
 150 0 l 1
 0 0 l 1
 0 300 l 1
200 450 m 1
 200 500 l 1
 150 500 l 1
 100 500 l 1
 100 300 l 1
 100 100 l 1
 150 100 l 1
 200 100 l 1
 200 150 l 1
 200 200 l 1
 300 200 l 1
 400 200 l 1
 400 300 l 1
 400 400 l 1
 300 400 l 1
 200 400 l 1
 200 450 l 1
EndSplineSet
Validated: 513
EndChar

StartChar: U+0045
Encoding: 69 69 37
Width: 600
VWidth: -81
Flags: HW
LayerCount: 2
Back
Fore
SplineSet
0 300 m 1
 0 600 l 1
 250 600 l 1
 500 600 l 1
 500 550 l 1
 500 500 l 1
 300 500 l 1
 100 500 l 1
 100 400 l 1
 100 300 l 1
 300 300 l 1
 500 300 l 1
 500 250 l 1
 500 200 l 1
 300 200 l 1
 100 200 l 1
 100 150 l 1
 100 100 l 1
 300 100 l 1
 500 100 l 1
 500 50 l 1
 500 0 l 1
 250 0 l 1
 0 0 l 1
 0 300 l 1
EndSplineSet
Validated: 513
EndChar

StartChar: U+0046
Encoding: 70 70 38
Width: 600
VWidth: -81
Flags: HW
LayerCount: 2
Back
Fore
SplineSet
0 300 m 1
 0 600 l 1
 250 600 l 1
 500 600 l 1
 500 550 l 1
 500 500 l 1
 300 500 l 1
 100 500 l 1
 100 400 l 1
 100 300 l 1
 300 300 l 1
 500 300 l 1
 500 250 l 1
 500 200 l 1
 300 200 l 1
 100 200 l 1
 100 100 l 1
 100 0 l 1
 50 0 l 1
 0 0 l 1
 0 300 l 1
EndSplineSet
Validated: 513
EndChar

StartChar: U+0047
Encoding: 71 71 39
Width: 600
VWidth: -81
Flags: HW
LayerCount: 2
Back
Fore
SplineSet
0 300 m 1
 0 600 l 1
 250 600 l 1
 500 600 l 1
 500 550 l 1
 500 500 l 1
 300 500 l 1
 100 500 l 1
 100 300 l 1
 100 100 l 1
 250 100 l 1
 400 100 l 1
 400 150 l 1
 400 200 l 1
 300 200 l 1
 200 200 l 1
 200 250 l 1
 200 300 l 1
 350 300 l 1
 500 300 l 1
 500 150 l 1
 500 0 l 1
 250 0 l 1
 0 0 l 1
 0 300 l 1
EndSplineSet
Validated: 513
EndChar

StartChar: U+0048
Encoding: 72 72 40
Width: 600
VWidth: -81
Flags: HW
LayerCount: 2
Back
Fore
SplineSet
0 300 m 1
 0 600 l 1
 50 600 l 1
 100 600 l 1
 100 450 l 1
 100 300 l 1
 250 300 l 1
 400 300 l 1
 400 450 l 1
 400 600 l 1
 450 600 l 1
 500 600 l 1
 500 300 l 1
 500 0 l 1
 450 0 l 1
 400 0 l 1
 400 100 l 1
 400 200 l 1
 250 200 l 1
 100 200 l 1
 100 100 l 1
 100 0 l 1
 50 0 l 1
 0 0 l 1
 0 300 l 1
EndSplineSet
Validated: 513
EndChar

StartChar: U+0049
Encoding: 73 73 41
Width: 600
VWidth: -81
Flags: HW
LayerCount: 2
Back
Fore
SplineSet
0 550 m 1
 0 600 l 1
 250 600 l 1
 500 600 l 1
 500 550 l 1
 500 500 l 1
 400 500 l 1
 300 500 l 1
 300 300 l 1
 300 100 l 1
 400 100 l 1
 500 100 l 1
 500 50 l 1
 500 0 l 1
 250 0 l 1
 0 0 l 1
 0 50 l 1
 0 100 l 1
 100 100 l 1
 200 100 l 1
 200 300 l 1
 200 500 l 1
 100 500 l 1
 0 500 l 1
 0 550 l 1
EndSplineSet
Validated: 513
EndChar

StartChar: U+004A
Encoding: 74 74 42
Width: 600
VWidth: -81
Flags: HW
LayerCount: 2
Back
Fore
SplineSet
400 350 m 1
 400 600 l 1
 450 600 l 1
 500 600 l 1
 500 300 l 1
 500 0 l 1
 250 0 l 1
 0 0 l 1
 0 150 l 1
 0 300 l 1
 50 300 l 1
 100 300 l 1
 100 200 l 1
 100 100 l 1
 250 100 l 1
 400 100 l 1
 400 350 l 1
EndSplineSet
Validated: 513
EndChar

StartChar: U+004B
Encoding: 75 75 43
Width: 600
VWidth: -81
Flags: HW
LayerCount: 2
Back
Fore
SplineSet
0 300 m 1
 0 600 l 1
 50 600 l 1
 100 600 l 1
 100 450 l 1
 100 300 l 1
 200 300 l 1
 300 300 l 1
 300 450 l 1
 300 600 l 1
 400 600 l 1
 500 600 l 1
 500 550 l 1
 500 500 l 1
 450 500 l 1
 400 500 l 1
 400 300 l 1
 400 100 l 1
 450 100 l 1
 500 100 l 1
 500 50 l 1
 500 0 l 1
 400 0 l 1
 300 0 l 1
 300 100 l 1
 300 200 l 1
 200 200 l 1
 100 200 l 1
 100 100 l 1
 100 0 l 1
 50 0 l 1
 0 0 l 1
 0 300 l 1
EndSplineSet
Validated: 513
EndChar

StartChar: U+004C
Encoding: 76 76 44
Width: 600
VWidth: -81
Flags: HW
LayerCount: 2
Back
Fore
SplineSet
0 300 m 1
 0 600 l 1
 50 600 l 1
 100 600 l 1
 100 350 l 1
 100 100 l 1
 300 100 l 1
 500 100 l 1
 500 50 l 1
 500 0 l 1
 250 0 l 1
 0 0 l 1
 0 300 l 1
EndSplineSet
Validated: 513
EndChar

StartChar: U+004D
Encoding: 77 77 45
Width: 600
VWidth: -81
Flags: HW
LayerCount: 2
Back
Fore
SplineSet
0 300 m 1
 0 600 l 1
 250 600 l 1
 500 600 l 1
 500 300 l 1
 500 0 l 1
 450 0 l 1
 400 0 l 1
 400 250 l 1
 400 500 l 1
 350 500 l 1
 300 500 l 1
 300 250 l 1
 300 0 l 1
 250 0 l 1
 200 0 l 1
 200 250 l 1
 200 500 l 1
 150 500 l 1
 100 500 l 1
 100 250 l 1
 100 0 l 1
 50 0 l 1
 0 0 l 1
 0 300 l 1
EndSplineSet
Validated: 513
EndChar

StartChar: U+004E
Encoding: 78 78 46
Width: 600
VWidth: -81
Flags: HW
LayerCount: 2
Back
Fore
SplineSet
0 300 m 1
 0 600 l 1
 150 600 l 1
 300 600 l 1
 300 350 l 1
 300 100 l 1
 350 100 l 1
 400 100 l 1
 400 350 l 1
 400 600 l 1
 450 600 l 1
 500 600 l 1
 500 300 l 1
 500 0 l 1
 350 0 l 1
 200 0 l 1
 200 250 l 1
 200 500 l 1
 150 500 l 1
 100 500 l 1
 100 250 l 1
 100 0 l 1
 50 0 l 1
 0 0 l 1
 0 300 l 1
EndSplineSet
Validated: 513
EndChar

StartChar: U+004F
Encoding: 79 79 47
Width: 600
VWidth: -81
Flags: HW
LayerCount: 2
Back
Fore
SplineSet
0 300 m 1
 0 600 l 1
 250 600 l 1
 500 600 l 1
 500 300 l 1
 500 0 l 1
 250 0 l 1
 0 0 l 1
 0 300 l 1
400 300 m 1
 400 500 l 1
 250 500 l 1
 100 500 l 1
 100 300 l 1
 100 100 l 1
 250 100 l 1
 400 100 l 1
 400 300 l 1
EndSplineSet
Validated: 513
EndChar

StartChar: U+0050
Encoding: 80 80 48
Width: 600
VWidth: -81
Flags: HW
LayerCount: 2
Back
Fore
SplineSet
0 300 m 1
 0 600 l 1
 250 600 l 1
 500 600 l 1
 500 400 l 1
 500 200 l 1
 300 200 l 1
 100 200 l 1
 100 100 l 1
 100 0 l 1
 50 0 l 1
 0 0 l 1
 0 300 l 1
400 400 m 1
 400 500 l 1
 250 500 l 1
 100 500 l 1
 100 400 l 1
 100 300 l 1
 250 300 l 1
 400 300 l 1
 400 400 l 1
EndSplineSet
Validated: 513
EndChar

StartChar: U+0051
Encoding: 81 81 49
Width: 600
VWidth: -81
Flags: HW
LayerCount: 2
Back
Fore
SplineSet
0 300 m 1
 0 600 l 1
 250 600 l 1
 500 600 l 1
 500 300 l 1
 500 0 l 1
 250 0 l 1
 0 0 l 1
 0 300 l 1
400 300 m 1
 400 500 l 1
 250 500 l 1
 100 500 l 1
 100 300 l 1
 100 100 l 1
 150 100 l 1
 200 100 l 1
 200 200 l 1
 200 300 l 1
 250 300 l 1
 300 300 l 1
 300 200 l 1
 300 100 l 1
 350 100 l 1
 400 100 l 1
 400 300 l 1
EndSplineSet
Validated: 513
EndChar

StartChar: U+0052
Encoding: 82 82 50
Width: 600
VWidth: -81
Flags: HW
LayerCount: 2
Back
Fore
SplineSet
0 300 m 1
 0 600 l 1
 250 600 l 1
 500 600 l 1
 500 400 l 1
 500 200 l 1
 450 200 l 1
 400 200 l 1
 400 150 l 1
 400 100 l 1
 450 100 l 1
 500 100 l 1
 500 50 l 1
 500 0 l 1
 400 0 l 1
 300 0 l 1
 300 100 l 1
 300 200 l 1
 200 200 l 1
 100 200 l 1
 100 100 l 1
 100 0 l 1
 50 0 l 1
 0 0 l 1
 0 300 l 1
400 400 m 1
 400 500 l 1
 250 500 l 1
 100 500 l 1
 100 400 l 1
 100 300 l 1
 250 300 l 1
 400 300 l 1
 400 400 l 1
EndSplineSet
Validated: 513
EndChar

StartChar: U+0053
Encoding: 83 83 51
Width: 600
VWidth: -81
Flags: HW
LayerCount: 2
Back
Fore
SplineSet
0 400 m 1
 0 600 l 1
 250 600 l 1
 500 600 l 1
 500 550 l 1
 500 500 l 1
 300 500 l 1
 100 500 l 1
 100 400 l 1
 100 300 l 1
 300 300 l 1
 500 300 l 1
 500 150 l 1
 500 0 l 1
 250 0 l 1
 0 0 l 1
 0 50 l 1
 0 100 l 1
 200 100 l 1
 400 100 l 1
 400 150 l 1
 400 200 l 1
 200 200 l 1
 0 200 l 1
 0 400 l 1
EndSplineSet
Validated: 513
EndChar

StartChar: U+0054
Encoding: 84 84 52
Width: 600
VWidth: -81
Flags: HW
LayerCount: 2
Back
Fore
SplineSet
0 550 m 1
 0 600 l 1
 250 600 l 1
 500 600 l 1
 500 550 l 1
 500 500 l 1
 400 500 l 1
 300 500 l 1
 300 250 l 1
 300 0 l 1
 250 0 l 1
 200 0 l 1
 200 250 l 1
 200 500 l 1
 100 500 l 1
 0 500 l 1
 0 550 l 1
EndSplineSet
Validated: 513
EndChar

StartChar: U+0055
Encoding: 85 85 53
Width: 600
VWidth: -81
Flags: HW
LayerCount: 2
Back
Fore
SplineSet
0 300 m 1
 0 600 l 1
 50 600 l 1
 100 600 l 1
 100 350 l 1
 100 100 l 1
 250 100 l 1
 400 100 l 1
 400 350 l 1
 400 600 l 1
 450 600 l 1
 500 600 l 1
 500 300 l 1
 500 0 l 1
 250 0 l 1
 0 0 l 1
 0 300 l 1
EndSplineSet
Validated: 513
EndChar

StartChar: U+0056
Encoding: 86 86 54
Width: 600
VWidth: -81
Flags: HW
LayerCount: 2
Back
Fore
SplineSet
0 400 m 1
 0 600 l 1
 50 600 l 1
 100 600 l 1
 100 450 l 1
 100 300 l 1
 150 300 l 1
 200 300 l 1
 200 200 l 1
 200 100 l 1
 250 100 l 1
 300 100 l 1
 300 200 l 1
 300 300 l 1
 350 300 l 1
 400 300 l 1
 400 450 l 1
 400 600 l 1
 450 600 l 1
 500 600 l 1
 500 400 l 1
 500 200 l 1
 450 200 l 1
 400 200 l 1
 400 100 l 1
 400 0 l 1
 250 0 l 1
 100 0 l 1
 100 100 l 1
 100 200 l 1
 50 200 l 1
 0 200 l 1
 0 400 l 1
EndSplineSet
Validated: 513
EndChar

StartChar: U+0057
Encoding: 87 87 55
Width: 600
VWidth: -81
Flags: HW
LayerCount: 2
Back
Fore
SplineSet
0 300 m 1
 0 600 l 1
 50 600 l 1
 100 600 l 1
 100 350 l 1
 100 100 l 1
 150 100 l 1
 200 100 l 1
 200 350 l 1
 200 600 l 1
 250 600 l 1
 300 600 l 1
 300 350 l 1
 300 100 l 1
 350 100 l 1
 400 100 l 1
 400 350 l 1
 400 600 l 1
 450 600 l 1
 500 600 l 1
 500 300 l 1
 500 0 l 1
 250 0 l 1
 0 0 l 1
 0 300 l 1
EndSplineSet
Validated: 513
EndChar

StartChar: U+0058
Encoding: 88 88 56
Width: 600
VWidth: -81
Flags: HW
LayerCount: 2
Back
Fore
SplineSet
0 450 m 1
 0 600 l 1
 50 600 l 1
 100 600 l 1
 100 500 l 1
 100 400 l 1
 250 400 l 1
 400 400 l 1
 400 500 l 1
 400 600 l 1
 450 600 l 1
 500 600 l 1
 500 450 l 1
 500 300 l 1
 400 300 l 1
 300 300 l 1
 300 250 l 1
 300 200 l 1
 400 200 l 1
 500 200 l 1
 500 100 l 1
 500 0 l 1
 450 0 l 1
 400 0 l 1
 400 50 l 1
 400 100 l 1
 250 100 l 1
 100 100 l 1
 100 50 l 1
 100 0 l 1
 50 0 l 1
 0 0 l 1
 0 100 l 1
 0 200 l 1
 100 200 l 1
 200 200 l 1
 200 250 l 1
 200 300 l 1
 100 300 l 1
 0 300 l 1
 0 450 l 1
EndSplineSet
Validated: 513
EndChar

StartChar: U+0059
Encoding: 89 89 57
Width: 600
VWidth: -81
Flags: HW
LayerCount: 2
Back
Fore
SplineSet
0 400 m 1
 0 600 l 1
 50 600 l 1
 100 600 l 1
 100 450 l 1
 100 300 l 1
 250 300 l 1
 400 300 l 1
 400 450 l 1
 400 600 l 1
 450 600 l 1
 500 600 l 1
 500 400 l 1
 500 200 l 1
 400 200 l 1
 300 200 l 1
 300 100 l 1
 300 0 l 1
 250 0 l 1
 200 0 l 1
 200 100 l 1
 200 200 l 1
 100 200 l 1
 0 200 l 1
 0 400 l 1
EndSplineSet
Validated: 513
EndChar

StartChar: U+005A
Encoding: 90 90 58
Width: 600
VWidth: -81
Flags: HW
LayerCount: 2
Back
Fore
SplineSet
0 550 m 1
 0 600 l 1
 250 600 l 1
 500 600 l 1
 500 450 l 1
 500 300 l 1
 400 300 l 1
 300 300 l 1
 300 250 l 1
 300 200 l 1
 250 200 l 1
 200 200 l 1
 200 250 l 1
 200 300 l 1
 150 300 l 1
 100 300 l 1
 100 200 l 1
 100 100 l 1
 300 100 l 1
 500 100 l 1
 500 50 l 1
 500 0 l 1
 250 0 l 1
 0 0 l 1
 0 200 l 1
 0 400 l 1
 200 400 l 1
 400 400 l 1
 400 450 l 1
 400 500 l 1
 200 500 l 1
 0 500 l 1
 0 550 l 1
EndSplineSet
Validated: 513
EndChar

StartChar: U+005B
Encoding: 91 91 59
Width: 600
VWidth: -81
Flags: HW
LayerCount: 2
Back
Fore
SplineSet
100 250 m 1
 100 600 l 1
 250 600 l 1
 400 600 l 1
 400 550 l 1
 400 500 l 1
 300 500 l 1
 200 500 l 1
 200 250 l 1
 200 0 l 1
 300 0 l 1
 400 0 l 1
 400 -50 l 1
 400 -100 l 1
 250 -100 l 1
 100 -100 l 1
 100 250 l 1
EndSplineSet
Validated: 513
EndChar

StartChar: U+005C
Encoding: 92 92 60
Width: 600
VWidth: -81
Flags: HW
LayerCount: 2
Back
Fore
SplineSet
100 400 m 1
 100 600 l 1
 150 600 l 1
 200 600 l 1
 200 450 l 1
 200 300 l 1
 300 300 l 1
 400 300 l 1
 400 100 l 1
 400 -100 l 1
 350 -100 l 1
 300 -100 l 1
 300 50 l 1
 300 200 l 1
 200 200 l 1
 100 200 l 1
 100 400 l 1
EndSplineSet
Validated: 513
EndChar

StartChar: U+005D
Encoding: 93 93 61
Width: 600
VWidth: -81
Flags: HW
LayerCount: 2
Back
Fore
SplineSet
100 550 m 1
 100 600 l 1
 250 600 l 1
 400 600 l 1
 400 250 l 1
 400 -100 l 1
 250 -100 l 1
 100 -100 l 1
 100 -50 l 1
 100 0 l 1
 200 0 l 1
 300 0 l 1
 300 250 l 1
 300 500 l 1
 200 500 l 1
 100 500 l 1
 100 550 l 1
EndSplineSet
Validated: 513
EndChar

StartChar: U+005E
Encoding: 94 94 62
Width: 600
VWidth: -81
Flags: HW
LayerCount: 2
Back
Fore
SplineSet
100 500 m 1
 100 600 l 1
 250 600 l 1
 400 600 l 1
 400 500 l 1
 400 400 l 1
 350 400 l 1
 300 400 l 1
 300 450 l 1
 300 500 l 1
 250 500 l 1
 200 500 l 1
 200 450 l 1
 200 400 l 1
 150 400 l 1
 100 400 l 1
 100 500 l 1
EndSplineSet
Validated: 513
EndChar

StartChar: U+005F
Encoding: 95 95 63
Width: 600
VWidth: -81
Flags: HW
LayerCount: 2
Back
Fore
SplineSet
0 50 m 1
 0 100 l 1
 250 100 l 1
 500 100 l 1
 500 50 l 1
 500 0 l 1
 250 0 l 1
 0 0 l 1
 0 50 l 1
EndSplineSet
Validated: 513
EndChar

StartChar: U+0060
Encoding: 96 96 64
Width: 600
VWidth: -81
Flags: HW
LayerCount: 2
Back
Fore
SplineSet
100 550 m 1
 100 600 l 1
 200 600 l 1
 300 600 l 1
 300 500 l 1
 300 400 l 1
 250 400 l 1
 200 400 l 1
 200 450 l 1
 200 500 l 1
 150 500 l 1
 100 500 l 1
 100 550 l 1
EndSplineSet
Validated: 513
EndChar

StartChar: U+0061
Encoding: 97 97 65
Width: 600
VWidth: -81
Flags: HW
LayerCount: 2
Back
Fore
SplineSet
0 250 m 1
 0 500 l 1
 250 500 l 1
 500 500 l 1
 500 250 l 1
 500 0 l 1
 450 0 l 1
 400 0 l 1
 400 100 l 1
 400 200 l 1
 250 200 l 1
 100 200 l 1
 100 100 l 1
 100 0 l 1
 50 0 l 1
 0 0 l 1
 0 250 l 1
400 350 m 1
 400 400 l 1
 250 400 l 1
 100 400 l 1
 100 350 l 1
 100 300 l 1
 250 300 l 1
 400 300 l 1
 400 350 l 1
EndSplineSet
Validated: 513
EndChar

StartChar: U+0062
Encoding: 98 98 66
Width: 600
VWidth: -81
Flags: HW
LayerCount: 2
Back
Fore
SplineSet
0 250 m 1
 0 500 l 1
 200 500 l 1
 400 500 l 1
 400 400 l 1
 400 300 l 1
 450 300 l 1
 500 300 l 1
 500 150 l 1
 500 0 l 1
 250 0 l 1
 0 0 l 1
 0 250 l 1
300 350 m 1
 300 400 l 1
 200 400 l 1
 100 400 l 1
 100 350 l 1
 100 300 l 1
 200 300 l 1
 300 300 l 1
 300 350 l 1
400 150 m 1
 400 200 l 1
 250 200 l 1
 100 200 l 1
 100 150 l 1
 100 100 l 1
 250 100 l 1
 400 100 l 1
 400 150 l 1
EndSplineSet
Validated: 513
EndChar

StartChar: U+0063
Encoding: 99 99 67
Width: 600
VWidth: -81
Flags: HW
LayerCount: 2
Back
Fore
SplineSet
0 250 m 1
 0 500 l 1
 250 500 l 1
 500 500 l 1
 500 450 l 1
 500 400 l 1
 300 400 l 1
 100 400 l 1
 100 250 l 1
 100 100 l 1
 300 100 l 1
 500 100 l 1
 500 50 l 1
 500 0 l 1
 250 0 l 1
 0 0 l 1
 0 250 l 1
EndSplineSet
Validated: 513
EndChar

StartChar: U+0064
Encoding: 100 100 68
Width: 600
VWidth: -81
Flags: HW
LayerCount: 2
Back
Fore
SplineSet
0 250 m 1
 0 500 l 1
 150 500 l 1
 300 500 l 1
 300 450 l 1
 300 400 l 1
 400 400 l 1
 500 400 l 1
 500 250 l 1
 500 100 l 1
 400 100 l 1
 300 100 l 1
 300 50 l 1
 300 0 l 1
 150 0 l 1
 0 0 l 1
 0 250 l 1
200 350 m 1
 200 400 l 1
 150 400 l 1
 100 400 l 1
 100 250 l 1
 100 100 l 1
 150 100 l 1
 200 100 l 1
 200 150 l 1
 200 200 l 1
 300 200 l 1
 400 200 l 1
 400 250 l 1
 400 300 l 1
 300 300 l 1
 200 300 l 1
 200 350 l 1
EndSplineSet
Validated: 513
EndChar

StartChar: U+0065
Encoding: 101 101 69
Width: 600
VWidth: -81
Flags: HW
LayerCount: 2
Back
Fore
SplineSet
0 250 m 1
 0 500 l 1
 250 500 l 1
 500 500 l 1
 500 450 l 1
 500 400 l 1
 300 400 l 1
 100 400 l 1
 100 350 l 1
 100 300 l 1
 300 300 l 1
 500 300 l 1
 500 250 l 1
 500 200 l 1
 300 200 l 1
 100 200 l 1
 100 150 l 1
 100 100 l 1
 300 100 l 1
 500 100 l 1
 500 50 l 1
 500 0 l 1
 250 0 l 1
 0 0 l 1
 0 250 l 1
EndSplineSet
Validated: 513
EndChar

StartChar: U+0066
Encoding: 102 102 70
Width: 600
VWidth: -81
Flags: HW
LayerCount: 2
Back
Fore
SplineSet
0 250 m 1
 0 500 l 1
 250 500 l 1
 500 500 l 1
 500 450 l 1
 500 400 l 1
 300 400 l 1
 100 400 l 1
 100 350 l 1
 100 300 l 1
 300 300 l 1
 500 300 l 1
 500 250 l 1
 500 200 l 1
 300 200 l 1
 100 200 l 1
 100 100 l 1
 100 0 l 1
 50 0 l 1
 0 0 l 1
 0 250 l 1
EndSplineSet
Validated: 513
EndChar

StartChar: U+0067
Encoding: 103 103 71
Width: 600
VWidth: -81
Flags: HW
LayerCount: 2
Back
Fore
SplineSet
0 250 m 1
 0 500 l 1
 250 500 l 1
 500 500 l 1
 500 450 l 1
 500 400 l 1
 300 400 l 1
 100 400 l 1
 100 250 l 1
 100 100 l 1
 250 100 l 1
 400 100 l 1
 400 150 l 1
 400 200 l 1
 300 200 l 1
 200 200 l 1
 200 250 l 1
 200 300 l 1
 350 300 l 1
 500 300 l 1
 500 150 l 1
 500 0 l 1
 250 0 l 1
 0 0 l 1
 0 250 l 1
EndSplineSet
Validated: 513
EndChar

StartChar: U+0068
Encoding: 104 104 72
Width: 600
VWidth: -81
Flags: HW
LayerCount: 2
Back
Fore
SplineSet
0 250 m 1
 0 500 l 1
 50 500 l 1
 100 500 l 1
 100 400 l 1
 100 300 l 1
 250 300 l 1
 400 300 l 1
 400 400 l 1
 400 500 l 1
 450 500 l 1
 500 500 l 1
 500 250 l 1
 500 0 l 1
 450 0 l 1
 400 0 l 1
 400 100 l 1
 400 200 l 1
 250 200 l 1
 100 200 l 1
 100 100 l 1
 100 0 l 1
 50 0 l 1
 0 0 l 1
 0 250 l 1
EndSplineSet
Validated: 513
EndChar

StartChar: U+0069
Encoding: 105 105 73
Width: 600
VWidth: -81
Flags: HW
LayerCount: 2
Back
Fore
SplineSet
0 450 m 1
 0 500 l 1
 250 500 l 1
 500 500 l 1
 500 450 l 1
 500 400 l 1
 400 400 l 1
 300 400 l 1
 300 250 l 1
 300 100 l 1
 400 100 l 1
 500 100 l 1
 500 50 l 1
 500 0 l 1
 250 0 l 1
 0 0 l 1
 0 50 l 1
 0 100 l 1
 100 100 l 1
 200 100 l 1
 200 250 l 1
 200 400 l 1
 100 400 l 1
 0 400 l 1
 0 450 l 1
EndSplineSet
Validated: 513
EndChar

StartChar: U+006A
Encoding: 106 106 74
Width: 600
VWidth: -81
Flags: HW
LayerCount: 2
Back
Fore
SplineSet
400 300 m 1
 400 500 l 1
 450 500 l 1
 500 500 l 1
 500 250 l 1
 500 0 l 1
 250 0 l 1
 0 0 l 1
 0 150 l 1
 0 300 l 1
 50 300 l 1
 100 300 l 1
 100 200 l 1
 100 100 l 1
 250 100 l 1
 400 100 l 1
 400 300 l 1
EndSplineSet
Validated: 513
EndChar

StartChar: U+006B
Encoding: 107 107 75
Width: 600
VWidth: -81
Flags: HW
LayerCount: 2
Back
Fore
SplineSet
0 250 m 1
 0 500 l 1
 50 500 l 1
 100 500 l 1
 100 400 l 1
 100 300 l 1
 200 300 l 1
 300 300 l 1
 300 400 l 1
 300 500 l 1
 400 500 l 1
 500 500 l 1
 500 450 l 1
 500 400 l 1
 450 400 l 1
 400 400 l 1
 400 250 l 1
 400 100 l 1
 450 100 l 1
 500 100 l 1
 500 50 l 1
 500 0 l 1
 400 0 l 1
 300 0 l 1
 300 100 l 1
 300 200 l 1
 200 200 l 1
 100 200 l 1
 100 100 l 1
 100 0 l 1
 50 0 l 1
 0 0 l 1
 0 250 l 1
EndSplineSet
Validated: 513
EndChar

StartChar: U+006C
Encoding: 108 108 76
Width: 600
VWidth: -81
Flags: HW
LayerCount: 2
Back
Fore
SplineSet
0 250 m 1
 0 500 l 1
 50 500 l 1
 100 500 l 1
 100 300 l 1
 100 100 l 1
 300 100 l 1
 500 100 l 1
 500 50 l 1
 500 0 l 1
 250 0 l 1
 0 0 l 1
 0 250 l 1
EndSplineSet
Validated: 513
EndChar

StartChar: U+006D
Encoding: 109 109 77
Width: 600
VWidth: -81
Flags: HW
LayerCount: 2
Back
Fore
SplineSet
0 250 m 1
 0 500 l 1
 250 500 l 1
 500 500 l 1
 500 250 l 1
 500 0 l 1
 450 0 l 1
 400 0 l 1
 400 200 l 1
 400 400 l 1
 350 400 l 1
 300 400 l 1
 300 200 l 1
 300 0 l 1
 250 0 l 1
 200 0 l 1
 200 200 l 1
 200 400 l 1
 150 400 l 1
 100 400 l 1
 100 200 l 1
 100 0 l 1
 50 0 l 1
 0 0 l 1
 0 250 l 1
EndSplineSet
Validated: 513
EndChar

StartChar: U+006E
Encoding: 110 110 78
Width: 600
VWidth: -81
Flags: HW
LayerCount: 2
Back
Fore
SplineSet
0 250 m 1
 0 500 l 1
 150 500 l 1
 300 500 l 1
 300 300 l 1
 300 100 l 1
 350 100 l 1
 400 100 l 1
 400 300 l 1
 400 500 l 1
 450 500 l 1
 500 500 l 1
 500 250 l 1
 500 0 l 1
 350 0 l 1
 200 0 l 1
 200 200 l 1
 200 400 l 1
 150 400 l 1
 100 400 l 1
 100 200 l 1
 100 0 l 1
 50 0 l 1
 0 0 l 1
 0 250 l 1
EndSplineSet
Validated: 513
EndChar

StartChar: U+006F
Encoding: 111 111 79
Width: 600
VWidth: -81
Flags: HW
LayerCount: 2
Back
Fore
SplineSet
0 250 m 1
 0 500 l 1
 250 500 l 1
 500 500 l 1
 500 250 l 1
 500 0 l 1
 250 0 l 1
 0 0 l 1
 0 250 l 1
400 250 m 1
 400 400 l 1
 250 400 l 1
 100 400 l 1
 100 250 l 1
 100 100 l 1
 250 100 l 1
 400 100 l 1
 400 250 l 1
EndSplineSet
Validated: 513
EndChar

StartChar: U+0070
Encoding: 112 112 80
Width: 600
VWidth: -81
Flags: HW
LayerCount: 2
Back
Fore
SplineSet
0 250 m 1
 0 500 l 1
 250 500 l 1
 500 500 l 1
 500 350 l 1
 500 200 l 1
 300 200 l 1
 100 200 l 1
 100 100 l 1
 100 0 l 1
 50 0 l 1
 0 0 l 1
 0 250 l 1
400 350 m 1
 400 400 l 1
 250 400 l 1
 100 400 l 1
 100 350 l 1
 100 300 l 1
 250 300 l 1
 400 300 l 1
 400 350 l 1
EndSplineSet
Validated: 513
EndChar

StartChar: U+0071
Encoding: 113 113 81
Width: 600
VWidth: -81
Flags: HW
LayerCount: 2
Back
Fore
SplineSet
0 250 m 1
 0 500 l 1
 250 500 l 1
 500 500 l 1
 500 250 l 1
 500 0 l 1
 250 0 l 1
 0 0 l 1
 0 250 l 1
400 250 m 1
 400 400 l 1
 250 400 l 1
 100 400 l 1
 100 250 l 1
 100 100 l 1
 150 100 l 1
 200 100 l 1
 200 200 l 1
 200 300 l 1
 250 300 l 1
 300 300 l 1
 300 200 l 1
 300 100 l 1
 350 100 l 1
 400 100 l 1
 400 250 l 1
EndSplineSet
Validated: 513
EndChar

StartChar: U+0072
Encoding: 114 114 82
Width: 600
VWidth: -81
Flags: HW
LayerCount: 2
Back
Fore
SplineSet
0 250 m 1
 0 500 l 1
 250 500 l 1
 500 500 l 1
 500 350 l 1
 500 200 l 1
 450 200 l 1
 400 200 l 1
 400 150 l 1
 400 100 l 1
 450 100 l 1
 500 100 l 1
 500 50 l 1
 500 0 l 1
 400 0 l 1
 300 0 l 1
 300 100 l 1
 300 200 l 1
 200 200 l 1
 100 200 l 1
 100 100 l 1
 100 0 l 1
 50 0 l 1
 0 0 l 1
 0 250 l 1
400 350 m 1
 400 400 l 1
 250 400 l 1
 100 400 l 1
 100 350 l 1
 100 300 l 1
 250 300 l 1
 400 300 l 1
 400 350 l 1
EndSplineSet
Validated: 513
EndChar

StartChar: U+0073
Encoding: 115 115 83
Width: 600
VWidth: -81
Flags: HW
LayerCount: 2
Back
Fore
SplineSet
0 350 m 1
 0 500 l 1
 250 500 l 1
 500 500 l 1
 500 450 l 1
 500 400 l 1
 300 400 l 1
 100 400 l 1
 100 350 l 1
 100 300 l 1
 300 300 l 1
 500 300 l 1
 500 150 l 1
 500 0 l 1
 250 0 l 1
 0 0 l 1
 0 50 l 1
 0 100 l 1
 200 100 l 1
 400 100 l 1
 400 150 l 1
 400 200 l 1
 200 200 l 1
 0 200 l 1
 0 350 l 1
EndSplineSet
Validated: 513
EndChar

StartChar: U+0074
Encoding: 116 116 84
Width: 600
VWidth: -81
Flags: HW
LayerCount: 2
Back
Fore
SplineSet
0 450 m 1
 0 500 l 1
 250 500 l 1
 500 500 l 1
 500 450 l 1
 500 400 l 1
 400 400 l 1
 300 400 l 1
 300 200 l 1
 300 0 l 1
 250 0 l 1
 200 0 l 1
 200 200 l 1
 200 400 l 1
 100 400 l 1
 0 400 l 1
 0 450 l 1
EndSplineSet
Validated: 513
EndChar

StartChar: U+0075
Encoding: 117 117 85
Width: 600
VWidth: -81
Flags: HW
LayerCount: 2
Back
Fore
SplineSet
0 250 m 1
 0 500 l 1
 50 500 l 1
 100 500 l 1
 100 300 l 1
 100 100 l 1
 250 100 l 1
 400 100 l 1
 400 300 l 1
 400 500 l 1
 450 500 l 1
 500 500 l 1
 500 250 l 1
 500 0 l 1
 250 0 l 1
 0 0 l 1
 0 250 l 1
EndSplineSet
Validated: 513
EndChar

StartChar: U+0076
Encoding: 118 118 86
Width: 600
VWidth: -81
Flags: HW
LayerCount: 2
Back
Fore
SplineSet
0 350 m 1
 0 500 l 1
 50 500 l 1
 100 500 l 1
 100 400 l 1
 100 300 l 1
 150 300 l 1
 200 300 l 1
 200 200 l 1
 200 100 l 1
 250 100 l 1
 300 100 l 1
 300 200 l 1
 300 300 l 1
 350 300 l 1
 400 300 l 1
 400 400 l 1
 400 500 l 1
 450 500 l 1
 500 500 l 1
 500 350 l 1
 500 200 l 1
 450 200 l 1
 400 200 l 1
 400 100 l 1
 400 0 l 1
 250 0 l 1
 100 0 l 1
 100 100 l 1
 100 200 l 1
 50 200 l 1
 0 200 l 1
 0 350 l 1
EndSplineSet
Validated: 513
EndChar

StartChar: U+0077
Encoding: 119 119 87
Width: 600
VWidth: -81
Flags: HW
LayerCount: 2
Back
Fore
SplineSet
0 250 m 1
 0 500 l 1
 50 500 l 1
 100 500 l 1
 100 300 l 1
 100 100 l 1
 150 100 l 1
 200 100 l 1
 200 300 l 1
 200 500 l 1
 250 500 l 1
 300 500 l 1
 300 300 l 1
 300 100 l 1
 350 100 l 1
 400 100 l 1
 400 300 l 1
 400 500 l 1
 450 500 l 1
 500 500 l 1
 500 250 l 1
 500 0 l 1
 250 0 l 1
 0 0 l 1
 0 250 l 1
EndSplineSet
Validated: 513
EndChar

StartChar: U+0078
Encoding: 120 120 88
Width: 600
VWidth: -81
Flags: HW
LayerCount: 2
Back
Fore
SplineSet
0 400 m 1
 0 500 l 1
 50 500 l 1
 100 500 l 1
 100 450 l 1
 100 400 l 1
 250 400 l 1
 400 400 l 1
 400 450 l 1
 400 500 l 1
 450 500 l 1
 500 500 l 1
 500 400 l 1
 500 300 l 1
 400 300 l 1
 300 300 l 1
 300 250 l 1
 300 200 l 1
 400 200 l 1
 500 200 l 1
 500 100 l 1
 500 0 l 1
 450 0 l 1
 400 0 l 1
 400 50 l 1
 400 100 l 1
 250 100 l 1
 100 100 l 1
 100 50 l 1
 100 0 l 1
 50 0 l 1
 0 0 l 1
 0 100 l 1
 0 200 l 1
 100 200 l 1
 200 200 l 1
 200 250 l 1
 200 300 l 1
 100 300 l 1
 0 300 l 1
 0 400 l 1
EndSplineSet
Validated: 513
EndChar

StartChar: U+0079
Encoding: 121 121 89
Width: 600
VWidth: -81
Flags: HW
LayerCount: 2
Back
Fore
SplineSet
0 350 m 1
 0 500 l 1
 50 500 l 1
 100 500 l 1
 100 400 l 1
 100 300 l 1
 250 300 l 1
 400 300 l 1
 400 400 l 1
 400 500 l 1
 450 500 l 1
 500 500 l 1
 500 350 l 1
 500 200 l 1
 400 200 l 1
 300 200 l 1
 300 100 l 1
 300 0 l 1
 250 0 l 1
 200 0 l 1
 200 100 l 1
 200 200 l 1
 100 200 l 1
 0 200 l 1
 0 350 l 1
EndSplineSet
Validated: 513
EndChar

StartChar: U+007A
Encoding: 122 122 90
Width: 600
VWidth: -81
Flags: HW
LayerCount: 2
Back
Fore
SplineSet
0 450 m 1
 0 500 l 1
 250 500 l 1
 500 500 l 1
 500 350 l 1
 500 200 l 1
 300 200 l 1
 100 200 l 1
 100 150 l 1
 100 100 l 1
 300 100 l 1
 500 100 l 1
 500 50 l 1
 500 0 l 1
 250 0 l 1
 0 0 l 1
 0 150 l 1
 0 300 l 1
 200 300 l 1
 400 300 l 1
 400 350 l 1
 400 400 l 1
 200 400 l 1
 0 400 l 1
 0 450 l 1
EndSplineSet
Validated: 513
EndChar

StartChar: U+007B
Encoding: 123 123 91
Width: 600
VWidth: -81
Flags: HW
LayerCount: 2
Back
Fore
SplineSet
200 450 m 1
 200 600 l 1
 300 600 l 1
 400 600 l 1
 400 550 l 1
 400 500 l 1
 350 500 l 1
 300 500 l 1
 300 250 l 1
 300 0 l 1
 350 0 l 1
 400 0 l 1
 400 -50 l 1
 400 -100 l 1
 300 -100 l 1
 200 -100 l 1
 200 50 l 1
 200 200 l 1
 150 200 l 1
 100 200 l 1
 100 250 l 1
 100 300 l 1
 150 300 l 1
 200 300 l 1
 200 450 l 1
EndSplineSet
Validated: 513
EndChar

StartChar: U+007C
Encoding: 124 124 92
Width: 600
VWidth: -81
Flags: HW
LayerCount: 2
Back
Fore
SplineSet
200 250 m 1
 200 600 l 1
 250 600 l 1
 300 600 l 1
 300 250 l 1
 300 -100 l 1
 250 -100 l 1
 200 -100 l 1
 200 250 l 1
EndSplineSet
Validated: 513
EndChar

StartChar: U+007D
Encoding: 125 125 93
Width: 600
VWidth: -81
Flags: HW
LayerCount: 2
Back
Fore
SplineSet
100 550 m 1
 100 600 l 1
 200 600 l 1
 300 600 l 1
 300 450 l 1
 300 300 l 1
 350 300 l 1
 400 300 l 1
 400 250 l 1
 400 200 l 1
 350 200 l 1
 300 200 l 1
 300 50 l 1
 300 -100 l 1
 200 -100 l 1
 100 -100 l 1
 100 -50 l 1
 100 0 l 1
 150 0 l 1
 200 0 l 1
 200 250 l 1
 200 500 l 1
 150 500 l 1
 100 500 l 1
 100 550 l 1
EndSplineSet
Validated: 513
EndChar

StartChar: U+007E
Encoding: 126 126 94
Width: 600
VWidth: -81
Flags: HW
LayerCount: 2
Back
Fore
SplineSet
0 200 m 1
 0 300 l 1
 150 300 l 1
 300 300 l 1
 300 250 l 1
 300 200 l 1
 350 200 l 1
 400 200 l 1
 400 250 l 1
 400 300 l 1
 450 300 l 1
 500 300 l 1
 500 200 l 1
 500 100 l 1
 350 100 l 1
 200 100 l 1
 200 150 l 1
 200 200 l 1
 150 200 l 1
 100 200 l 1
 100 150 l 1
 100 100 l 1
 50 100 l 1
 0 100 l 1
 0 200 l 1
EndSplineSet
Validated: 513
EndChar

StartChar: U+00A1
Encoding: 161 161 95
Width: 600
VWidth: -81
Flags: HW
LayerCount: 2
Back
Fore
SplineSet
200 100 m 1
 200 300 l 1
 250 300 l 1
 300 300 l 1
 300 100 l 1
 300 -100 l 1
 250 -100 l 1
 200 -100 l 1
 200 100 l 1
200 450 m 1
 200 500 l 1
 250 500 l 1
 300 500 l 1
 300 450 l 1
 300 400 l 1
 250 400 l 1
 200 400 l 1
 200 450 l 1
EndSplineSet
Validated: 513
EndChar

StartChar: U+00A2
Encoding: 162 162 96
Width: 600
VWidth: -81
Flags: HW
LayerCount: 2
Back
Fore
SplineSet
200 550 m 1
 200 600 l 1
 250 600 l 1
 300 600 l 1
 300 550 l 1
 300 500 l 1
 400 500 l 1
 500 500 l 1
 500 450 l 1
 500 400 l 1
 400 400 l 1
 300 400 l 1
 300 250 l 1
 300 100 l 1
 400 100 l 1
 500 100 l 1
 500 50 l 1
 500 0 l 1
 400 0 l 1
 300 0 l 1
 300 -50 l 1
 300 -100 l 1
 250 -100 l 1
 200 -100 l 1
 200 -50 l 1
 200 0 l 1
 100 0 l 1
 0 0 l 1
 0 250 l 1
 0 500 l 1
 100 500 l 1
 200 500 l 1
 200 550 l 1
200 250 m 1
 200 400 l 1
 150 400 l 1
 100 400 l 1
 100 250 l 1
 100 100 l 1
 150 100 l 1
 200 100 l 1
 200 250 l 1
EndSplineSet
Validated: 513
EndChar

StartChar: U+00A3
Encoding: 163 163 97
Width: 600
VWidth: -81
Flags: HW
LayerCount: 2
Back
Fore
SplineSet
100 450 m 1
 100 600 l 1
 300 600 l 1
 500 600 l 1
 500 450 l 1
 500 300 l 1
 450 300 l 1
 400 300 l 1
 400 400 l 1
 400 500 l 1
 300 500 l 1
 200 500 l 1
 200 400 l 1
 200 300 l 1
 250 300 l 1
 300 300 l 1
 300 250 l 1
 300 200 l 1
 250 200 l 1
 200 200 l 1
 200 150 l 1
 200 100 l 1
 350 100 l 1
 500 100 l 1
 500 50 l 1
 500 0 l 1
 250 0 l 1
 0 0 l 1
 0 50 l 1
 0 100 l 1
 50 100 l 1
 100 100 l 1
 100 150 l 1
 100 200 l 1
 50 200 l 1
 0 200 l 1
 0 250 l 1
 0 300 l 1
 50 300 l 1
 100 300 l 1
 100 450 l 1
EndSplineSet
Validated: 513
EndChar

StartChar: U+00A4
Encoding: 164 164 98
Width: 600
VWidth: -81
Flags: HW
LayerCount: 2
Back
Fore
SplineSet
0 450 m 1
 0 500 l 1
 50 500 l 1
 100 500 l 1
 100 450 l 1
 100 400 l 1
 250 400 l 1
 400 400 l 1
 400 450 l 1
 400 500 l 1
 450 500 l 1
 500 500 l 1
 500 450 l 1
 500 400 l 1
 450 400 l 1
 400 400 l 1
 400 250 l 1
 400 100 l 1
 450 100 l 1
 500 100 l 1
 500 50 l 1
 500 0 l 1
 450 0 l 1
 400 0 l 1
 400 50 l 1
 400 100 l 1
 250 100 l 1
 100 100 l 1
 100 50 l 1
 100 0 l 1
 50 0 l 1
 0 0 l 1
 0 50 l 1
 0 100 l 1
 50 100 l 1
 100 100 l 1
 100 250 l 1
 100 400 l 1
 50 400 l 1
 0 400 l 1
 0 450 l 1
300 250 m 1
 300 300 l 1
 250 300 l 1
 200 300 l 1
 200 250 l 1
 200 200 l 1
 250 200 l 1
 300 200 l 1
 300 250 l 1
EndSplineSet
Validated: 517
EndChar

StartChar: U+00A5
Encoding: 165 165 99
Width: 600
VWidth: -81
Flags: HW
LayerCount: 2
Back
Fore
SplineSet
100 550 m 1
 100 600 l 1
 150 600 l 1
 200 600 l 1
 200 550 l 1
 200 500 l 1
 250 500 l 1
 300 500 l 1
 300 550 l 1
 300 600 l 1
 350 600 l 1
 400 600 l 1
 400 550 l 1
 400 500 l 1
 450 500 l 1
 500 500 l 1
 500 450 l 1
 500 400 l 1
 450 400 l 1
 400 400 l 1
 400 350 l 1
 400 300 l 1
 450 300 l 1
 500 300 l 1
 500 250 l 1
 500 200 l 1
 400 200 l 1
 300 200 l 1
 300 100 l 1
 300 0 l 1
 250 0 l 1
 200 0 l 1
 200 100 l 1
 200 200 l 1
 100 200 l 1
 0 200 l 1
 0 250 l 1
 0 300 l 1
 50 300 l 1
 100 300 l 1
 100 350 l 1
 100 400 l 1
 50 400 l 1
 0 400 l 1
 0 450 l 1
 0 500 l 1
 50 500 l 1
 100 500 l 1
 100 550 l 1
300 350 m 1
 300 400 l 1
 250 400 l 1
 200 400 l 1
 200 350 l 1
 200 300 l 1
 250 300 l 1
 300 300 l 1
 300 350 l 1
EndSplineSet
Validated: 513
EndChar

StartChar: U+00A6
Encoding: 166 166 100
Width: 600
VWidth: -81
Flags: HW
LayerCount: 2
Back
Fore
SplineSet
200 50 m 1
 200 200 l 1
 250 200 l 1
 300 200 l 1
 300 50 l 1
 300 -100 l 1
 250 -100 l 1
 200 -100 l 1
 200 50 l 1
200 450 m 1
 200 600 l 1
 250 600 l 1
 300 600 l 1
 300 450 l 1
 300 300 l 1
 250 300 l 1
 200 300 l 1
 200 450 l 1
EndSplineSet
Validated: 513
EndChar

StartChar: U+00A7
Encoding: 167 167 101
Width: 600
VWidth: -81
Flags: HW
LayerCount: 2
Back
Fore
SplineSet
0 350 m 1
 0 600 l 1
 250 600 l 1
 500 600 l 1
 500 550 l 1
 500 500 l 1
 300 500 l 1
 100 500 l 1
 100 450 l 1
 100 400 l 1
 300 400 l 1
 500 400 l 1
 500 150 l 1
 500 -100 l 1
 250 -100 l 1
 0 -100 l 1
 0 -50 l 1
 0 0 l 1
 200 0 l 1
 400 0 l 1
 400 50 l 1
 400 100 l 1
 200 100 l 1
 0 100 l 1
 0 350 l 1
400 250 m 1
 400 300 l 1
 250 300 l 1
 100 300 l 1
 100 250 l 1
 100 200 l 1
 250 200 l 1
 400 200 l 1
 400 250 l 1
EndSplineSet
Validated: 513
EndChar

StartChar: U+00A8
Encoding: 168 168 102
Width: 600
VWidth: -81
Flags: HW
LayerCount: 2
Back
Fore
SplineSet
300 550 m 1
 300 600 l 1
 350 600 l 1
 400 600 l 1
 400 550 l 1
 400 500 l 1
 350 500 l 1
 300 500 l 1
 300 550 l 1
100 550 m 1
 100 600 l 1
 150 600 l 1
 200 600 l 1
 200 550 l 1
 200 500 l 1
 150 500 l 1
 100 500 l 1
 100 550 l 1
EndSplineSet
Validated: 513
EndChar

StartChar: U+00A9
Encoding: 169 169 103
Width: 600
VWidth: -81
Flags: HW
LayerCount: 2
Back
Fore
SplineSet
0 250 m 1
 0 500 l 1
 250 500 l 1
 500 500 l 1
 500 250 l 1
 500 0 l 1
 250 0 l 1
 0 0 l 1
 0 250 l 1
400 350 m 1
 400 400 l 1
 250 400 l 1
 100 400 l 1
 100 250 l 1
 100 100 l 1
 250 100 l 1
 400 100 l 1
 400 150 l 1
 400 200 l 1
 300 200 l 1
 200 200 l 1
 200 250 l 1
 200 300 l 1
 300 300 l 1
 400 300 l 1
 400 350 l 1
EndSplineSet
Validated: 513
EndChar

StartChar: U+00AA
Encoding: 170 170 104
Width: 600
VWidth: -81
Flags: HW
LayerCount: 2
Back
Fore
SplineSet
100 400 m 1
 100 600 l 1
 250 600 l 1
 400 600 l 1
 400 400 l 1
 400 200 l 1
 350 200 l 1
 300 200 l 1
 300 250 l 1
 300 300 l 1
 250 300 l 1
 200 300 l 1
 200 250 l 1
 200 200 l 1
 150 200 l 1
 100 200 l 1
 100 400 l 1
300 450 m 1
 300 500 l 1
 250 500 l 1
 200 500 l 1
 200 450 l 1
 200 400 l 1
 250 400 l 1
 300 400 l 1
 300 450 l 1
EndSplineSet
Validated: 513
EndChar

StartChar: U+00AB
Encoding: 171 171 105
Width: 600
VWidth: -81
Flags: HW
LayerCount: 2
Back
Fore
SplineSet
0 250 m 1
 0 400 l 1
 100 400 l 1
 200 400 l 1
 200 350 l 1
 200 300 l 1
 150 300 l 1
 100 300 l 1
 100 250 l 1
 100 200 l 1
 150 200 l 1
 200 200 l 1
 200 150 l 1
 200 100 l 1
 100 100 l 1
 0 100 l 1
 0 250 l 1
300 250 m 1
 300 500 l 1
 400 500 l 1
 500 500 l 1
 500 450 l 1
 500 400 l 1
 450 400 l 1
 400 400 l 1
 400 250 l 1
 400 100 l 1
 450 100 l 1
 500 100 l 1
 500 50 l 1
 500 0 l 1
 400 0 l 1
 300 0 l 1
 300 250 l 1
EndSplineSet
Validated: 513
EndChar

StartChar: U+00AC
Encoding: 172 172 106
Width: 600
VWidth: -81
Flags: HW
LayerCount: 2
Back
Fore
SplineSet
0 350 m 1
 0 400 l 1
 250 400 l 1
 500 400 l 1
 500 250 l 1
 500 100 l 1
 450 100 l 1
 400 100 l 1
 400 200 l 1
 400 300 l 1
 200 300 l 1
 0 300 l 1
 0 350 l 1
EndSplineSet
Validated: 513
EndChar

StartChar: U+00AD
Encoding: 173 173 107
Width: 600
VWidth: -81
Flags: HW
LayerCount: 2
Back
Fore
SplineSet
0 250 m 1
 0 300 l 1
 250 300 l 1
 500 300 l 1
 500 250 l 1
 500 200 l 1
 250 200 l 1
 0 200 l 1
 0 250 l 1
EndSplineSet
Validated: 513
EndChar

StartChar: U+00AE
Encoding: 174 174 108
Width: 600
VWidth: -81
Flags: HW
LayerCount: 2
Back
Fore
SplineSet
0 250 m 1
 0 500 l 1
 250 500 l 1
 500 500 l 1
 500 250 l 1
 500 0 l 1
 250 0 l 1
 0 0 l 1
 0 250 l 1
400 350 m 1
 400 400 l 1
 250 400 l 1
 100 400 l 1
 100 250 l 1
 100 100 l 1
 150 100 l 1
 200 100 l 1
 200 200 l 1
 200 300 l 1
 300 300 l 1
 400 300 l 1
 400 350 l 1
EndSplineSet
Validated: 513
EndChar

StartChar: U+00AF
Encoding: 175 175 109
Width: 600
VWidth: -81
Flags: HW
LayerCount: 2
Back
Fore
SplineSet
100 550 m 1
 100 600 l 1
 250 600 l 1
 400 600 l 1
 400 550 l 1
 400 500 l 1
 250 500 l 1
 100 500 l 1
 100 550 l 1
EndSplineSet
Validated: 513
EndChar

StartChar: U+00B0
Encoding: 176 176 110
Width: 600
VWidth: -81
Flags: HW
LayerCount: 2
Back
Fore
SplineSet
100 350 m 1
 100 500 l 1
 250 500 l 1
 400 500 l 1
 400 350 l 1
 400 200 l 1
 250 200 l 1
 100 200 l 1
 100 350 l 1
300 350 m 1
 300 400 l 1
 250 400 l 1
 200 400 l 1
 200 350 l 1
 200 300 l 1
 250 300 l 1
 300 300 l 1
 300 350 l 1
EndSplineSet
Validated: 513
EndChar

StartChar: U+00B1
Encoding: 177 177 111
Width: 600
VWidth: -81
Flags: HW
LayerCount: 2
Back
Fore
SplineSet
200 400 m 1
 200 500 l 1
 250 500 l 1
 300 500 l 1
 300 400 l 1
 300 300 l 1
 400 300 l 1
 500 300 l 1
 500 250 l 1
 500 200 l 1
 400 200 l 1
 300 200 l 1
 300 150 l 1
 300 100 l 1
 400 100 l 1
 500 100 l 1
 500 50 l 1
 500 0 l 1
 250 0 l 1
 0 0 l 1
 0 50 l 1
 0 100 l 1
 100 100 l 1
 200 100 l 1
 200 150 l 1
 200 200 l 1
 100 200 l 1
 0 200 l 1
 0 250 l 1
 0 300 l 1
 100 300 l 1
 200 300 l 1
 200 400 l 1
EndSplineSet
Validated: 513
EndChar

StartChar: U+00B2
Encoding: 178 178 112
Width: 600
VWidth: -81
Flags: HW
LayerCount: 2
Back
Fore
SplineSet
100 550 m 1
 100 600 l 1
 250 600 l 1
 400 600 l 1
 400 450 l 1
 400 300 l 1
 300 300 l 1
 200 300 l 1
 200 250 l 1
 200 200 l 1
 300 200 l 1
 400 200 l 1
 400 150 l 1
 400 100 l 1
 250 100 l 1
 100 100 l 1
 100 250 l 1
 100 400 l 1
 200 400 l 1
 300 400 l 1
 300 450 l 1
 300 500 l 1
 200 500 l 1
 100 500 l 1
 100 550 l 1
EndSplineSet
Validated: 513
EndChar

StartChar: U+00B3
Encoding: 179 179 113
Width: 600
VWidth: -81
Flags: HW
LayerCount: 2
Back
Fore
SplineSet
100 550 m 1
 100 600 l 1
 250 600 l 1
 400 600 l 1
 400 350 l 1
 400 100 l 1
 250 100 l 1
 100 100 l 1
 100 150 l 1
 100 200 l 1
 200 200 l 1
 300 200 l 1
 300 250 l 1
 300 300 l 1
 200 300 l 1
 100 300 l 1
 100 350 l 1
 100 400 l 1
 200 400 l 1
 300 400 l 1
 300 450 l 1
 300 500 l 1
 200 500 l 1
 100 500 l 1
 100 550 l 1
EndSplineSet
Validated: 513
EndChar

StartChar: U+00B4
Encoding: 180 180 114
Width: 600
VWidth: -81
Flags: HW
LayerCount: 2
Back
Fore
SplineSet
200 500 m 1
 200 600 l 1
 350 600 l 1
 500 600 l 1
 500 550 l 1
 500 500 l 1
 400 500 l 1
 300 500 l 1
 300 450 l 1
 300 400 l 1
 250 400 l 1
 200 400 l 1
 200 500 l 1
EndSplineSet
Validated: 513
EndChar

StartChar: U+00B5
Encoding: 181 181 115
Width: 600
VWidth: -81
Flags: HW
LayerCount: 2
Back
Fore
SplineSet
0 200 m 1
 0 500 l 1
 50 500 l 1
 100 500 l 1
 100 350 l 1
 100 200 l 1
 250 200 l 1
 400 200 l 1
 400 350 l 1
 400 500 l 1
 450 500 l 1
 500 500 l 1
 500 300 l 1
 500 100 l 1
 300 100 l 1
 100 100 l 1
 100 0 l 1
 100 -100 l 1
 50 -100 l 1
 0 -100 l 1
 0 200 l 1
EndSplineSet
Validated: 513
EndChar

StartChar: U+00B6
Encoding: 182 182 116
Width: 600
VWidth: -81
Flags: HW
LayerCount: 2
Back
Fore
SplineSet
0 400 m 1
 0 600 l 1
 250 600 l 1
 500 600 l 1
 500 300 l 1
 500 0 l 1
 350 0 l 1
 200 0 l 1
 200 100 l 1
 200 200 l 1
 100 200 l 1
 0 200 l 1
 0 400 l 1
400 300 m 1
 400 500 l 1
 350 500 l 1
 300 500 l 1
 300 300 l 1
 300 100 l 1
 350 100 l 1
 400 100 l 1
 400 300 l 1
EndSplineSet
Validated: 513
EndChar

StartChar: U+00B7
Encoding: 183 183 117
Width: 600
VWidth: -81
Flags: HW
LayerCount: 2
Back
Fore
SplineSet
200 250 m 1
 200 300 l 1
 250 300 l 1
 300 300 l 1
 300 250 l 1
 300 200 l 1
 250 200 l 1
 200 200 l 1
 200 250 l 1
EndSplineSet
Validated: 513
EndChar

StartChar: U+00B8
Encoding: 184 184 118
Width: 600
VWidth: -81
Flags: HW
LayerCount: 2
Back
Fore
SplineSet
100 150 m 1
 100 200 l 1
 200 200 l 1
 300 200 l 1
 300 50 l 1
 300 -100 l 1
 200 -100 l 1
 100 -100 l 1
 100 -50 l 1
 100 0 l 1
 150 0 l 1
 200 0 l 1
 200 50 l 1
 200 100 l 1
 150 100 l 1
 100 100 l 1
 100 150 l 1
EndSplineSet
Validated: 513
EndChar

StartChar: U+00B9
Encoding: 185 185 119
Width: 600
VWidth: -81
Flags: HW
LayerCount: 2
Back
Fore
SplineSet
100 550 m 1
 100 600 l 1
 200 600 l 1
 300 600 l 1
 300 450 l 1
 300 300 l 1
 250 300 l 1
 200 300 l 1
 200 400 l 1
 200 500 l 1
 150 500 l 1
 100 500 l 1
 100 550 l 1
EndSplineSet
Validated: 513
EndChar

StartChar: U+00BA
Encoding: 186 186 120
Width: 600
VWidth: -81
Flags: HW
LayerCount: 2
Back
Fore
SplineSet
100 150 m 1
 100 200 l 1
 250 200 l 1
 400 200 l 1
 400 150 l 1
 400 100 l 1
 250 100 l 1
 100 100 l 1
 100 150 l 1
100 450 m 1
 100 600 l 1
 250 600 l 1
 400 600 l 1
 400 450 l 1
 400 300 l 1
 250 300 l 1
 100 300 l 1
 100 450 l 1
300 450 m 1
 300 500 l 1
 250 500 l 1
 200 500 l 1
 200 450 l 1
 200 400 l 1
 250 400 l 1
 300 400 l 1
 300 450 l 1
EndSplineSet
Validated: 513
EndChar

StartChar: U+00BB
Encoding: 187 187 121
Width: 600
VWidth: -81
Flags: HW
LayerCount: 2
Back
Fore
SplineSet
300 350 m 1
 300 400 l 1
 400 400 l 1
 500 400 l 1
 500 250 l 1
 500 100 l 1
 400 100 l 1
 300 100 l 1
 300 150 l 1
 300 200 l 1
 350 200 l 1
 400 200 l 1
 400 250 l 1
 400 300 l 1
 350 300 l 1
 300 300 l 1
 300 350 l 1
0 450 m 1
 0 500 l 1
 100 500 l 1
 200 500 l 1
 200 250 l 1
 200 0 l 1
 100 0 l 1
 0 0 l 1
 0 50 l 1
 0 100 l 1
 50 100 l 1
 100 100 l 1
 100 250 l 1
 100 400 l 1
 50 400 l 1
 0 400 l 1
 0 450 l 1
EndSplineSet
Validated: 513
EndChar

StartChar: U+00BC
Encoding: 188 188 122
Width: 600
VWidth: -81
Flags: HW
LayerCount: 2
Back
Fore
SplineSet
100 100 m 1
 100 200 l 1
 150 200 l 1
 200 200 l 1
 200 150 l 1
 200 100 l 1
 250 100 l 1
 300 100 l 1
 300 150 l 1
 300 200 l 1
 350 200 l 1
 400 200 l 1
 400 50 l 1
 400 -100 l 1
 350 -100 l 1
 300 -100 l 1
 300 -50 l 1
 300 0 l 1
 200 0 l 1
 100 0 l 1
 100 100 l 1
0 350 m 1
 0 400 l 1
 250 400 l 1
 500 400 l 1
 500 350 l 1
 500 300 l 1
 250 300 l 1
 0 300 l 1
 0 350 l 1
200 550 m 1
 200 600 l 1
 250 600 l 1
 300 600 l 1
 300 550 l 1
 300 500 l 1
 250 500 l 1
 200 500 l 1
 200 550 l 1
EndSplineSet
Validated: 513
EndChar

StartChar: U+00BD
Encoding: 189 189 123
Width: 600
VWidth: -81
Flags: HW
LayerCount: 2
Back
Fore
SplineSet
300 0 m 1
 300 100 l 1
 350 100 l 1
 400 100 l 1
 400 0 l 1
 400 -100 l 1
 350 -100 l 1
 300 -100 l 1
 300 0 l 1
100 0 m 1
 100 100 l 1
 150 100 l 1
 200 100 l 1
 200 0 l 1
 200 -100 l 1
 150 -100 l 1
 100 -100 l 1
 100 0 l 1
0 250 m 1
 0 300 l 1
 250 300 l 1
 500 300 l 1
 500 250 l 1
 500 200 l 1
 250 200 l 1
 0 200 l 1
 0 250 l 1
200 500 m 1
 200 600 l 1
 250 600 l 1
 300 600 l 1
 300 500 l 1
 300 400 l 1
 250 400 l 1
 200 400 l 1
 200 500 l 1
EndSplineSet
Validated: 513
EndChar

StartChar: U+00BE
Encoding: 190 190 124
Width: 600
VWidth: -81
Flags: HW
LayerCount: 2
Back
Fore
SplineSet
100 100 m 1
 100 200 l 1
 150 200 l 1
 200 200 l 1
 200 150 l 1
 200 100 l 1
 250 100 l 1
 300 100 l 1
 300 150 l 1
 300 200 l 1
 350 200 l 1
 400 200 l 1
 400 50 l 1
 400 -100 l 1
 350 -100 l 1
 300 -100 l 1
 300 -50 l 1
 300 0 l 1
 200 0 l 1
 100 0 l 1
 100 100 l 1
0 350 m 1
 0 400 l 1
 250 400 l 1
 500 400 l 1
 500 350 l 1
 500 300 l 1
 250 300 l 1
 0 300 l 1
 0 350 l 1
400 550 m 1
 400 600 l 1
 450 600 l 1
 500 600 l 1
 500 550 l 1
 500 500 l 1
 450 500 l 1
 400 500 l 1
 400 550 l 1
200 550 m 1
 200 600 l 1
 250 600 l 1
 300 600 l 1
 300 550 l 1
 300 500 l 1
 250 500 l 1
 200 500 l 1
 200 550 l 1
0 550 m 1
 0 600 l 1
 50 600 l 1
 100 600 l 1
 100 550 l 1
 100 500 l 1
 50 500 l 1
 0 500 l 1
 0 550 l 1
EndSplineSet
Validated: 513
EndChar

StartChar: U+00BF
Encoding: 191 191 125
Width: 600
VWidth: -81
Flags: HW
LayerCount: 2
Back
Fore
SplineSet
0 100 m 1
 0 300 l 1
 150 300 l 1
 300 300 l 1
 300 250 l 1
 300 200 l 1
 200 200 l 1
 100 200 l 1
 100 100 l 1
 100 0 l 1
 300 0 l 1
 500 0 l 1
 500 -50 l 1
 500 -100 l 1
 250 -100 l 1
 0 -100 l 1
 0 100 l 1
200 450 m 1
 200 500 l 1
 250 500 l 1
 300 500 l 1
 300 450 l 1
 300 400 l 1
 250 400 l 1
 200 400 l 1
 200 450 l 1
EndSplineSet
Validated: 513
EndChar

StartChar: U+00C0
Encoding: 192 192 126
Width: 600
VWidth: -81
Flags: HW
LayerCount: 2
Back
Fore
SplineSet
0 350 m 1
 0 700 l 1
 100 700 l 1
 200 700 l 1
 200 650 l 1
 200 600 l 1
 350 600 l 1
 500 600 l 1
 500 300 l 1
 500 0 l 1
 450 0 l 1
 400 0 l 1
 400 100 l 1
 400 200 l 1
 250 200 l 1
 100 200 l 1
 100 100 l 1
 100 0 l 1
 50 0 l 1
 0 0 l 1
 0 350 l 1
400 400 m 1
 400 500 l 1
 250 500 l 1
 100 500 l 1
 100 400 l 1
 100 300 l 1
 250 300 l 1
 400 300 l 1
 400 400 l 1
EndSplineSet
Validated: 513
EndChar

StartChar: U+00C1
Encoding: 193 193 127
Width: 600
VWidth: -81
Flags: HW
LayerCount: 2
Back
Fore
SplineSet
300 650 m 1
 300 700 l 1
 400 700 l 1
 500 700 l 1
 500 350 l 1
 500 0 l 1
 450 0 l 1
 400 0 l 1
 400 100 l 1
 400 200 l 1
 250 200 l 1
 100 200 l 1
 100 100 l 1
 100 0 l 1
 50 0 l 1
 0 0 l 1
 0 300 l 1
 0 600 l 1
 150 600 l 1
 300 600 l 1
 300 650 l 1
400 400 m 1
 400 500 l 1
 250 500 l 1
 100 500 l 1
 100 400 l 1
 100 300 l 1
 250 300 l 1
 400 300 l 1
 400 400 l 1
EndSplineSet
Validated: 513
EndChar

StartChar: U+00C2
Encoding: 194 194 128
Width: 600
VWidth: -81
Flags: HW
LayerCount: 2
Back
Fore
SplineSet
100 650 m 1
 100 700 l 1
 250 700 l 1
 400 700 l 1
 400 650 l 1
 400 600 l 1
 450 600 l 1
 500 600 l 1
 500 300 l 1
 500 0 l 1
 450 0 l 1
 400 0 l 1
 400 100 l 1
 400 200 l 1
 250 200 l 1
 100 200 l 1
 100 100 l 1
 100 0 l 1
 50 0 l 1
 0 0 l 1
 0 300 l 1
 0 600 l 1
 50 600 l 1
 100 600 l 1
 100 650 l 1
400 400 m 1
 400 500 l 1
 250 500 l 1
 100 500 l 1
 100 400 l 1
 100 300 l 1
 250 300 l 1
 400 300 l 1
 400 400 l 1
EndSplineSet
Validated: 513
EndChar

StartChar: U+00C3
Encoding: 195 195 129
Width: 600
VWidth: -81
Flags: HW
LayerCount: 2
Back
Fore
SplineSet
0 350 m 1
 0 700 l 1
 100 700 l 1
 200 700 l 1
 200 650 l 1
 200 600 l 1
 250 600 l 1
 300 600 l 1
 300 650 l 1
 300 700 l 1
 400 700 l 1
 500 700 l 1
 500 350 l 1
 500 0 l 1
 450 0 l 1
 400 0 l 1
 400 100 l 1
 400 200 l 1
 250 200 l 1
 100 200 l 1
 100 100 l 1
 100 0 l 1
 50 0 l 1
 0 0 l 1
 0 350 l 1
400 400 m 1
 400 500 l 1
 250 500 l 1
 100 500 l 1
 100 400 l 1
 100 300 l 1
 250 300 l 1
 400 300 l 1
 400 400 l 1
EndSplineSet
Validated: 513
EndChar

StartChar: U+00C4
Encoding: 196 196 130
Width: 600
VWidth: -81
Flags: HW
LayerCount: 2
Back
Fore
SplineSet
100 650 m 1
 100 700 l 1
 150 700 l 1
 200 700 l 1
 200 650 l 1
 200 600 l 1
 250 600 l 1
 300 600 l 1
 300 650 l 1
 300 700 l 1
 350 700 l 1
 400 700 l 1
 400 650 l 1
 400 600 l 1
 450 600 l 1
 500 600 l 1
 500 300 l 1
 500 0 l 1
 450 0 l 1
 400 0 l 1
 400 100 l 1
 400 200 l 1
 250 200 l 1
 100 200 l 1
 100 100 l 1
 100 0 l 1
 50 0 l 1
 0 0 l 1
 0 300 l 1
 0 600 l 1
 50 600 l 1
 100 600 l 1
 100 650 l 1
400 400 m 1
 400 500 l 1
 250 500 l 1
 100 500 l 1
 100 400 l 1
 100 300 l 1
 250 300 l 1
 400 300 l 1
 400 400 l 1
EndSplineSet
Validated: 513
EndChar

StartChar: U+00C5
Encoding: 197 197 131
Width: 600
VWidth: -81
Flags: HW
LayerCount: 2
Back
Fore
SplineSet
100 650 m 1
 100 700 l 1
 250 700 l 1
 400 700 l 1
 400 650 l 1
 400 600 l 1
 450 600 l 1
 500 600 l 1
 500 300 l 1
 500 0 l 1
 450 0 l 1
 400 0 l 1
 400 100 l 1
 400 200 l 1
 250 200 l 1
 100 200 l 1
 100 100 l 1
 100 0 l 1
 50 0 l 1
 0 0 l 1
 0 300 l 1
 0 600 l 1
 50 600 l 1
 100 600 l 1
 100 650 l 1
300 550 m 1
 300 600 l 1
 250 600 l 1
 200 600 l 1
 200 550 l 1
 200 500 l 1
 250 500 l 1
 300 500 l 1
 300 550 l 1
400 350 m 1
 400 400 l 1
 250 400 l 1
 100 400 l 1
 100 350 l 1
 100 300 l 1
 250 300 l 1
 400 300 l 1
 400 350 l 1
EndSplineSet
Validated: 513
EndChar

StartChar: U+00C6
Encoding: 198 198 132
Width: 600
VWidth: -81
Flags: HW
LayerCount: 2
Back
Fore
SplineSet
0 300 m 1
 0 600 l 1
 250 600 l 1
 500 600 l 1
 500 550 l 1
 500 500 l 1
 400 500 l 1
 300 500 l 1
 300 400 l 1
 300 300 l 1
 400 300 l 1
 500 300 l 1
 500 250 l 1
 500 200 l 1
 400 200 l 1
 300 200 l 1
 300 150 l 1
 300 100 l 1
 400 100 l 1
 500 100 l 1
 500 50 l 1
 500 0 l 1
 350 0 l 1
 200 0 l 1
 200 100 l 1
 200 200 l 1
 150 200 l 1
 100 200 l 1
 100 100 l 1
 100 0 l 1
 50 0 l 1
 0 0 l 1
 0 300 l 1
200 400 m 1
 200 500 l 1
 150 500 l 1
 100 500 l 1
 100 400 l 1
 100 300 l 1
 150 300 l 1
 200 300 l 1
 200 400 l 1
EndSplineSet
Validated: 513
EndChar

StartChar: U+00C7
Encoding: 199 199 133
Width: 600
VWidth: -81
Flags: HW
LayerCount: 2
Back
Fore
SplineSet
0 300 m 1
 0 600 l 1
 250 600 l 1
 500 600 l 1
 500 550 l 1
 500 500 l 1
 300 500 l 1
 100 500 l 1
 100 300 l 1
 100 100 l 1
 300 100 l 1
 500 100 l 1
 500 50 l 1
 500 0 l 1
 400 0 l 1
 300 0 l 1
 300 -50 l 1
 300 -100 l 1
 250 -100 l 1
 200 -100 l 1
 200 -50 l 1
 200 0 l 1
 100 0 l 1
 0 0 l 1
 0 300 l 1
EndSplineSet
Validated: 513
EndChar

StartChar: U+00C8
Encoding: 200 200 134
Width: 600
VWidth: -81
Flags: HW
LayerCount: 2
Back
Fore
SplineSet
0 350 m 1
 0 700 l 1
 100 700 l 1
 200 700 l 1
 200 650 l 1
 200 600 l 1
 350 600 l 1
 500 600 l 1
 500 550 l 1
 500 500 l 1
 300 500 l 1
 100 500 l 1
 100 400 l 1
 100 300 l 1
 300 300 l 1
 500 300 l 1
 500 250 l 1
 500 200 l 1
 300 200 l 1
 100 200 l 1
 100 150 l 1
 100 100 l 1
 300 100 l 1
 500 100 l 1
 500 50 l 1
 500 0 l 1
 250 0 l 1
 0 0 l 1
 0 350 l 1
EndSplineSet
Validated: 513
EndChar

StartChar: U+00C9
Encoding: 201 201 135
Width: 600
VWidth: -81
Flags: HW
LayerCount: 2
Back
Fore
SplineSet
300 650 m 1
 300 700 l 1
 400 700 l 1
 500 700 l 1
 500 600 l 1
 500 500 l 1
 300 500 l 1
 100 500 l 1
 100 400 l 1
 100 300 l 1
 300 300 l 1
 500 300 l 1
 500 250 l 1
 500 200 l 1
 300 200 l 1
 100 200 l 1
 100 150 l 1
 100 100 l 1
 300 100 l 1
 500 100 l 1
 500 50 l 1
 500 0 l 1
 250 0 l 1
 0 0 l 1
 0 300 l 1
 0 600 l 1
 150 600 l 1
 300 600 l 1
 300 650 l 1
EndSplineSet
Validated: 513
EndChar

StartChar: U+00CA
Encoding: 202 202 136
Width: 600
VWidth: -81
Flags: HW
LayerCount: 2
Back
Fore
SplineSet
100 650 m 1
 100 700 l 1
 250 700 l 1
 400 700 l 1
 400 650 l 1
 400 600 l 1
 450 600 l 1
 500 600 l 1
 500 550 l 1
 500 500 l 1
 300 500 l 1
 100 500 l 1
 100 400 l 1
 100 300 l 1
 300 300 l 1
 500 300 l 1
 500 250 l 1
 500 200 l 1
 300 200 l 1
 100 200 l 1
 100 150 l 1
 100 100 l 1
 300 100 l 1
 500 100 l 1
 500 50 l 1
 500 0 l 1
 250 0 l 1
 0 0 l 1
 0 300 l 1
 0 600 l 1
 50 600 l 1
 100 600 l 1
 100 650 l 1
EndSplineSet
Validated: 513
EndChar

StartChar: U+00CB
Encoding: 203 203 137
Width: 600
VWidth: -81
Flags: HW
LayerCount: 2
Back
Fore
SplineSet
100 650 m 1
 100 700 l 1
 150 700 l 1
 200 700 l 1
 200 650 l 1
 200 600 l 1
 250 600 l 1
 300 600 l 1
 300 650 l 1
 300 700 l 1
 350 700 l 1
 400 700 l 1
 400 650 l 1
 400 600 l 1
 450 600 l 1
 500 600 l 1
 500 550 l 1
 500 500 l 1
 300 500 l 1
 100 500 l 1
 100 400 l 1
 100 300 l 1
 300 300 l 1
 500 300 l 1
 500 250 l 1
 500 200 l 1
 300 200 l 1
 100 200 l 1
 100 150 l 1
 100 100 l 1
 300 100 l 1
 500 100 l 1
 500 50 l 1
 500 0 l 1
 250 0 l 1
 0 0 l 1
 0 300 l 1
 0 600 l 1
 50 600 l 1
 100 600 l 1
 100 650 l 1
EndSplineSet
Validated: 513
EndChar

StartChar: U+00CC
Encoding: 204 204 138
Width: 600
VWidth: -81
Flags: HW
LayerCount: 2
Back
Fore
SplineSet
0 600 m 1
 0 700 l 1
 100 700 l 1
 200 700 l 1
 200 650 l 1
 200 600 l 1
 350 600 l 1
 500 600 l 1
 500 550 l 1
 500 500 l 1
 400 500 l 1
 300 500 l 1
 300 300 l 1
 300 100 l 1
 400 100 l 1
 500 100 l 1
 500 50 l 1
 500 0 l 1
 250 0 l 1
 0 0 l 1
 0 50 l 1
 0 100 l 1
 100 100 l 1
 200 100 l 1
 200 300 l 1
 200 500 l 1
 100 500 l 1
 0 500 l 1
 0 600 l 1
EndSplineSet
Validated: 513
EndChar

StartChar: U+00CD
Encoding: 205 205 139
Width: 600
VWidth: -81
Flags: HW
LayerCount: 2
Back
Fore
SplineSet
300 650 m 1
 300 700 l 1
 400 700 l 1
 500 700 l 1
 500 600 l 1
 500 500 l 1
 400 500 l 1
 300 500 l 1
 300 300 l 1
 300 100 l 1
 400 100 l 1
 500 100 l 1
 500 50 l 1
 500 0 l 1
 250 0 l 1
 0 0 l 1
 0 50 l 1
 0 100 l 1
 100 100 l 1
 200 100 l 1
 200 300 l 1
 200 500 l 1
 100 500 l 1
 0 500 l 1
 0 550 l 1
 0 600 l 1
 150 600 l 1
 300 600 l 1
 300 650 l 1
EndSplineSet
Validated: 513
EndChar

StartChar: U+00CE
Encoding: 206 206 140
Width: 600
VWidth: -81
Flags: HW
LayerCount: 2
Back
Fore
SplineSet
100 650 m 1
 100 700 l 1
 250 700 l 1
 400 700 l 1
 400 650 l 1
 400 600 l 1
 450 600 l 1
 500 600 l 1
 500 550 l 1
 500 500 l 1
 400 500 l 1
 300 500 l 1
 300 300 l 1
 300 100 l 1
 400 100 l 1
 500 100 l 1
 500 50 l 1
 500 0 l 1
 250 0 l 1
 0 0 l 1
 0 50 l 1
 0 100 l 1
 100 100 l 1
 200 100 l 1
 200 300 l 1
 200 500 l 1
 100 500 l 1
 0 500 l 1
 0 550 l 1
 0 600 l 1
 50 600 l 1
 100 600 l 1
 100 650 l 1
EndSplineSet
Validated: 513
EndChar

StartChar: U+00CF
Encoding: 207 207 141
Width: 600
VWidth: -81
Flags: HW
LayerCount: 2
Back
Fore
SplineSet
100 650 m 1
 100 700 l 1
 150 700 l 1
 200 700 l 1
 200 650 l 1
 200 600 l 1
 250 600 l 1
 300 600 l 1
 300 650 l 1
 300 700 l 1
 350 700 l 1
 400 700 l 1
 400 650 l 1
 400 600 l 1
 450 600 l 1
 500 600 l 1
 500 550 l 1
 500 500 l 1
 400 500 l 1
 300 500 l 1
 300 300 l 1
 300 100 l 1
 400 100 l 1
 500 100 l 1
 500 50 l 1
 500 0 l 1
 250 0 l 1
 0 0 l 1
 0 50 l 1
 0 100 l 1
 100 100 l 1
 200 100 l 1
 200 300 l 1
 200 500 l 1
 100 500 l 1
 0 500 l 1
 0 550 l 1
 0 600 l 1
 50 600 l 1
 100 600 l 1
 100 650 l 1
EndSplineSet
Validated: 513
EndChar

StartChar: U+00D0
Encoding: 208 208 142
Width: 600
VWidth: -81
Flags: HW
LayerCount: 2
Back
Fore
SplineSet
0 300 m 1
 0 600 l 1
 200 600 l 1
 400 600 l 1
 400 550 l 1
 400 500 l 1
 450 500 l 1
 500 500 l 1
 500 300 l 1
 500 100 l 1
 450 100 l 1
 400 100 l 1
 400 50 l 1
 400 0 l 1
 200 0 l 1
 0 0 l 1
 0 300 l 1
300 450 m 1
 300 500 l 1
 200 500 l 1
 100 500 l 1
 100 400 l 1
 100 300 l 1
 150 300 l 1
 200 300 l 1
 200 250 l 1
 200 200 l 1
 150 200 l 1
 100 200 l 1
 100 150 l 1
 100 100 l 1
 200 100 l 1
 300 100 l 1
 300 150 l 1
 300 200 l 1
 350 200 l 1
 400 200 l 1
 400 300 l 1
 400 400 l 1
 350 400 l 1
 300 400 l 1
 300 450 l 1
EndSplineSet
Validated: 513
EndChar

StartChar: U+00D1
Encoding: 209 209 143
Width: 600
VWidth: -81
Flags: HW
LayerCount: 2
Back
Fore
SplineSet
0 350 m 1
 0 700 l 1
 100 700 l 1
 200 700 l 1
 200 650 l 1
 200 600 l 1
 250 600 l 1
 300 600 l 1
 300 650 l 1
 300 700 l 1
 400 700 l 1
 500 700 l 1
 500 350 l 1
 500 0 l 1
 350 0 l 1
 200 0 l 1
 200 250 l 1
 200 500 l 1
 150 500 l 1
 100 500 l 1
 100 250 l 1
 100 0 l 1
 50 0 l 1
 0 0 l 1
 0 350 l 1
400 350 m 1
 400 600 l 1
 350 600 l 1
 300 600 l 1
 300 350 l 1
 300 100 l 1
 350 100 l 1
 400 100 l 1
 400 350 l 1
EndSplineSet
Validated: 517
EndChar

StartChar: U+00D2
Encoding: 210 210 144
Width: 600
VWidth: -81
Flags: HW
LayerCount: 2
Back
Fore
SplineSet
0 350 m 1
 0 700 l 1
 100 700 l 1
 200 700 l 1
 200 650 l 1
 200 600 l 1
 350 600 l 1
 500 600 l 1
 500 300 l 1
 500 0 l 1
 250 0 l 1
 0 0 l 1
 0 350 l 1
400 300 m 1
 400 500 l 1
 250 500 l 1
 100 500 l 1
 100 300 l 1
 100 100 l 1
 250 100 l 1
 400 100 l 1
 400 300 l 1
EndSplineSet
Validated: 513
EndChar

StartChar: U+00D3
Encoding: 211 211 145
Width: 600
VWidth: -81
Flags: HW
LayerCount: 2
Back
Fore
SplineSet
300 650 m 1
 300 700 l 1
 400 700 l 1
 500 700 l 1
 500 350 l 1
 500 0 l 1
 250 0 l 1
 0 0 l 1
 0 300 l 1
 0 600 l 1
 150 600 l 1
 300 600 l 1
 300 650 l 1
400 300 m 1
 400 500 l 1
 250 500 l 1
 100 500 l 1
 100 300 l 1
 100 100 l 1
 250 100 l 1
 400 100 l 1
 400 300 l 1
EndSplineSet
Validated: 513
EndChar

StartChar: U+00D4
Encoding: 212 212 146
Width: 600
VWidth: -81
Flags: HW
LayerCount: 2
Back
Fore
SplineSet
100 650 m 1
 100 700 l 1
 250 700 l 1
 400 700 l 1
 400 650 l 1
 400 600 l 1
 450 600 l 1
 500 600 l 1
 500 300 l 1
 500 0 l 1
 250 0 l 1
 0 0 l 1
 0 300 l 1
 0 600 l 1
 50 600 l 1
 100 600 l 1
 100 650 l 1
400 300 m 1
 400 500 l 1
 250 500 l 1
 100 500 l 1
 100 300 l 1
 100 100 l 1
 250 100 l 1
 400 100 l 1
 400 300 l 1
EndSplineSet
Validated: 513
EndChar

StartChar: U+00D5
Encoding: 213 213 147
Width: 600
VWidth: -81
Flags: HW
LayerCount: 2
Back
Fore
SplineSet
0 350 m 1
 0 700 l 1
 100 700 l 1
 200 700 l 1
 200 650 l 1
 200 600 l 1
 250 600 l 1
 300 600 l 1
 300 650 l 1
 300 700 l 1
 400 700 l 1
 500 700 l 1
 500 350 l 1
 500 0 l 1
 250 0 l 1
 0 0 l 1
 0 350 l 1
400 300 m 1
 400 500 l 1
 250 500 l 1
 100 500 l 1
 100 300 l 1
 100 100 l 1
 250 100 l 1
 400 100 l 1
 400 300 l 1
EndSplineSet
Validated: 513
EndChar

StartChar: U+00D6
Encoding: 214 214 148
Width: 600
VWidth: -81
Flags: HW
LayerCount: 2
Back
Fore
SplineSet
100 650 m 1
 100 700 l 1
 150 700 l 1
 200 700 l 1
 200 650 l 1
 200 600 l 1
 250 600 l 1
 300 600 l 1
 300 650 l 1
 300 700 l 1
 350 700 l 1
 400 700 l 1
 400 650 l 1
 400 600 l 1
 450 600 l 1
 500 600 l 1
 500 300 l 1
 500 0 l 1
 250 0 l 1
 0 0 l 1
 0 300 l 1
 0 600 l 1
 50 600 l 1
 100 600 l 1
 100 650 l 1
400 300 m 1
 400 500 l 1
 250 500 l 1
 100 500 l 1
 100 300 l 1
 100 100 l 1
 250 100 l 1
 400 100 l 1
 400 300 l 1
EndSplineSet
Validated: 513
EndChar

StartChar: U+00D7
Encoding: 215 215 149
Width: 600
VWidth: -81
Flags: HW
LayerCount: 2
Back
Fore
SplineSet
0 450 m 1
 0 500 l 1
 100 500 l 1
 200 500 l 1
 200 450 l 1
 200 400 l 1
 250 400 l 1
 300 400 l 1
 300 450 l 1
 300 500 l 1
 400 500 l 1
 500 500 l 1
 500 450 l 1
 500 400 l 1
 450 400 l 1
 400 400 l 1
 400 350 l 1
 400 300 l 1
 350 300 l 1
 300 300 l 1
 300 250 l 1
 300 200 l 1
 350 200 l 1
 400 200 l 1
 400 150 l 1
 400 100 l 1
 450 100 l 1
 500 100 l 1
 500 50 l 1
 500 0 l 1
 400 0 l 1
 300 0 l 1
 300 50 l 1
 300 100 l 1
 250 100 l 1
 200 100 l 1
 200 50 l 1
 200 0 l 1
 100 0 l 1
 0 0 l 1
 0 50 l 1
 0 100 l 1
 50 100 l 1
 100 100 l 1
 100 150 l 1
 100 200 l 1
 150 200 l 1
 200 200 l 1
 200 250 l 1
 200 300 l 1
 150 300 l 1
 100 300 l 1
 100 350 l 1
 100 400 l 1
 50 400 l 1
 0 400 l 1
 0 450 l 1
EndSplineSet
Validated: 513
EndChar

StartChar: U+00D8
Encoding: 216 216 150
Width: 600
VWidth: -81
Flags: HW
LayerCount: 2
Back
Fore
SplineSet
300 650 m 1
 300 700 l 1
 350 700 l 1
 400 700 l 1
 400 650 l 1
 400 600 l 1
 450 600 l 1
 500 600 l 1
 500 300 l 1
 500 0 l 1
 350 0 l 1
 200 0 l 1
 200 -50 l 1
 200 -100 l 1
 150 -100 l 1
 100 -100 l 1
 100 -50 l 1
 100 0 l 1
 50 0 l 1
 0 0 l 1
 0 300 l 1
 0 600 l 1
 150 600 l 1
 300 600 l 1
 300 650 l 1
200 300 m 1
 200 500 l 1
 150 500 l 1
 100 500 l 1
 100 300 l 1
 100 100 l 1
 150 100 l 1
 200 100 l 1
 200 300 l 1
400 300 m 1
 400 500 l 1
 350 500 l 1
 300 500 l 1
 300 300 l 1
 300 100 l 1
 350 100 l 1
 400 100 l 1
 400 300 l 1
EndSplineSet
Validated: 513
EndChar

StartChar: U+00D9
Encoding: 217 217 151
Width: 600
VWidth: -81
Flags: HW
LayerCount: 2
Back
Fore
SplineSet
0 350 m 1
 0 700 l 1
 100 700 l 1
 200 700 l 1
 200 650 l 1
 200 600 l 1
 150 600 l 1
 100 600 l 1
 100 350 l 1
 100 100 l 1
 250 100 l 1
 400 100 l 1
 400 350 l 1
 400 600 l 1
 450 600 l 1
 500 600 l 1
 500 300 l 1
 500 0 l 1
 250 0 l 1
 0 0 l 1
 0 350 l 1
EndSplineSet
Validated: 513
EndChar

StartChar: U+00DA
Encoding: 218 218 152
Width: 600
VWidth: -81
Flags: HW
LayerCount: 2
Back
Fore
SplineSet
300 650 m 1
 300 700 l 1
 400 700 l 1
 500 700 l 1
 500 350 l 1
 500 0 l 1
 250 0 l 1
 0 0 l 1
 0 300 l 1
 0 600 l 1
 50 600 l 1
 100 600 l 1
 100 350 l 1
 100 100 l 1
 250 100 l 1
 400 100 l 1
 400 350 l 1
 400 600 l 1
 350 600 l 1
 300 600 l 1
 300 650 l 1
EndSplineSet
Validated: 513
EndChar

StartChar: U+00DB
Encoding: 219 219 153
Width: 600
VWidth: -81
Flags: HW
LayerCount: 2
Back
Fore
SplineSet
100 650 m 1
 100 700 l 1
 250 700 l 1
 400 700 l 1
 400 650 l 1
 400 600 l 1
 450 600 l 1
 500 600 l 1
 500 300 l 1
 500 0 l 1
 250 0 l 1
 0 0 l 1
 0 300 l 1
 0 600 l 1
 50 600 l 1
 100 600 l 1
 100 650 l 1
400 350 m 1
 400 600 l 1
 250 600 l 1
 100 600 l 1
 100 350 l 1
 100 100 l 1
 250 100 l 1
 400 100 l 1
 400 350 l 1
EndSplineSet
Validated: 517
EndChar

StartChar: U+00DC
Encoding: 220 220 154
Width: 600
VWidth: -81
Flags: HW
LayerCount: 2
Back
Fore
SplineSet
100 650 m 1
 100 700 l 1
 150 700 l 1
 200 700 l 1
 200 650 l 1
 200 600 l 1
 150 600 l 1
 100 600 l 1
 100 350 l 1
 100 100 l 1
 250 100 l 1
 400 100 l 1
 400 350 l 1
 400 600 l 1
 350 600 l 1
 300 600 l 1
 300 650 l 1
 300 700 l 1
 350 700 l 1
 400 700 l 1
 400 650 l 1
 400 600 l 1
 450 600 l 1
 500 600 l 1
 500 300 l 1
 500 0 l 1
 250 0 l 1
 0 0 l 1
 0 300 l 1
 0 600 l 1
 50 600 l 1
 100 600 l 1
 100 650 l 1
EndSplineSet
Validated: 517
EndChar

StartChar: U+00DD
Encoding: 221 221 155
Width: 600
VWidth: -81
Flags: HW
LayerCount: 2
Back
Fore
SplineSet
0 400 m 1
 0 600 l 1
 50 600 l 1
 100 600 l 1
 100 450 l 1
 100 300 l 1
 250 300 l 1
 400 300 l 1
 400 450 l 1
 400 600 l 1
 450 600 l 1
 500 600 l 1
 500 400 l 1
 500 200 l 1
 400 200 l 1
 300 200 l 1
 300 100 l 1
 300 0 l 1
 250 0 l 1
 200 0 l 1
 200 100 l 1
 200 200 l 1
 100 200 l 1
 0 200 l 1
 0 400 l 1
200 650 m 1
 200 700 l 1
 250 700 l 1
 300 700 l 1
 300 650 l 1
 300 600 l 1
 250 600 l 1
 200 600 l 1
 200 650 l 1
EndSplineSet
Validated: 513
EndChar

StartChar: U+00DE
Encoding: 222 222 156
Width: 600
VWidth: -81
Flags: HW
LayerCount: 2
Back
Fore
SplineSet
0 300 m 1
 0 600 l 1
 50 600 l 1
 100 600 l 1
 100 550 l 1
 100 500 l 1
 300 500 l 1
 500 500 l 1
 500 300 l 1
 500 100 l 1
 300 100 l 1
 100 100 l 1
 100 50 l 1
 100 0 l 1
 50 0 l 1
 0 0 l 1
 0 300 l 1
400 300 m 1
 400 400 l 1
 250 400 l 1
 100 400 l 1
 100 300 l 1
 100 200 l 1
 250 200 l 1
 400 200 l 1
 400 300 l 1
EndSplineSet
Validated: 513
EndChar

StartChar: U+00DF
Encoding: 223 223 157
Width: 600
VWidth: -81
Flags: HW
LayerCount: 2
Back
Fore
SplineSet
0 300 m 1
 0 600 l 1
 150 600 l 1
 300 600 l 1
 300 500 l 1
 300 400 l 1
 400 400 l 1
 500 400 l 1
 500 200 l 1
 500 0 l 1
 350 0 l 1
 200 0 l 1
 200 50 l 1
 200 100 l 1
 300 100 l 1
 400 100 l 1
 400 200 l 1
 400 300 l 1
 300 300 l 1
 200 300 l 1
 200 400 l 1
 200 500 l 1
 150 500 l 1
 100 500 l 1
 100 250 l 1
 100 0 l 1
 50 0 l 1
 0 0 l 1
 0 300 l 1
EndSplineSet
Validated: 513
EndChar

StartChar: U+00E0
Encoding: 224 224 158
Width: 600
VWidth: -81
Flags: HW
LayerCount: 2
Back
Fore
SplineSet
0 250 m 1
 0 500 l 1
 250 500 l 1
 500 500 l 1
 500 250 l 1
 500 0 l 1
 450 0 l 1
 400 0 l 1
 400 100 l 1
 400 200 l 1
 250 200 l 1
 100 200 l 1
 100 100 l 1
 100 0 l 1
 50 0 l 1
 0 0 l 1
 0 250 l 1
400 350 m 1
 400 400 l 1
 250 400 l 1
 100 400 l 1
 100 350 l 1
 100 300 l 1
 250 300 l 1
 400 300 l 1
 400 350 l 1
0 650 m 1
 0 700 l 1
 100 700 l 1
 200 700 l 1
 200 650 l 1
 200 600 l 1
 100 600 l 1
 0 600 l 1
 0 650 l 1
EndSplineSet
Validated: 513
EndChar

StartChar: U+00E1
Encoding: 225 225 159
Width: 600
VWidth: -81
Flags: HW
LayerCount: 2
Back
Fore
SplineSet
0 250 m 1
 0 500 l 1
 250 500 l 1
 500 500 l 1
 500 250 l 1
 500 0 l 1
 450 0 l 1
 400 0 l 1
 400 100 l 1
 400 200 l 1
 250 200 l 1
 100 200 l 1
 100 100 l 1
 100 0 l 1
 50 0 l 1
 0 0 l 1
 0 250 l 1
400 350 m 1
 400 400 l 1
 250 400 l 1
 100 400 l 1
 100 350 l 1
 100 300 l 1
 250 300 l 1
 400 300 l 1
 400 350 l 1
300 650 m 1
 300 700 l 1
 400 700 l 1
 500 700 l 1
 500 650 l 1
 500 600 l 1
 400 600 l 1
 300 600 l 1
 300 650 l 1
EndSplineSet
Validated: 513
EndChar

StartChar: U+00E2
Encoding: 226 226 160
Width: 600
VWidth: -81
Flags: HW
LayerCount: 2
Back
Fore
SplineSet
0 250 m 1
 0 500 l 1
 250 500 l 1
 500 500 l 1
 500 250 l 1
 500 0 l 1
 450 0 l 1
 400 0 l 1
 400 100 l 1
 400 200 l 1
 250 200 l 1
 100 200 l 1
 100 100 l 1
 100 0 l 1
 50 0 l 1
 0 0 l 1
 0 250 l 1
400 350 m 1
 400 400 l 1
 250 400 l 1
 100 400 l 1
 100 350 l 1
 100 300 l 1
 250 300 l 1
 400 300 l 1
 400 350 l 1
100 650 m 1
 100 700 l 1
 250 700 l 1
 400 700 l 1
 400 650 l 1
 400 600 l 1
 250 600 l 1
 100 600 l 1
 100 650 l 1
EndSplineSet
Validated: 513
EndChar

StartChar: U+00E3
Encoding: 227 227 161
Width: 600
VWidth: -81
Flags: HW
LayerCount: 2
Back
Fore
SplineSet
0 250 m 1
 0 500 l 1
 250 500 l 1
 500 500 l 1
 500 250 l 1
 500 0 l 1
 450 0 l 1
 400 0 l 1
 400 100 l 1
 400 200 l 1
 250 200 l 1
 100 200 l 1
 100 100 l 1
 100 0 l 1
 50 0 l 1
 0 0 l 1
 0 250 l 1
400 350 m 1
 400 400 l 1
 250 400 l 1
 100 400 l 1
 100 350 l 1
 100 300 l 1
 250 300 l 1
 400 300 l 1
 400 350 l 1
300 650 m 1
 300 700 l 1
 400 700 l 1
 500 700 l 1
 500 650 l 1
 500 600 l 1
 400 600 l 1
 300 600 l 1
 300 650 l 1
0 650 m 1
 0 700 l 1
 100 700 l 1
 200 700 l 1
 200 650 l 1
 200 600 l 1
 100 600 l 1
 0 600 l 1
 0 650 l 1
EndSplineSet
Validated: 513
EndChar

StartChar: U+00E4
Encoding: 228 228 162
Width: 600
VWidth: -81
Flags: HW
LayerCount: 2
Back
Fore
SplineSet
0 250 m 1
 0 500 l 1
 250 500 l 1
 500 500 l 1
 500 250 l 1
 500 0 l 1
 450 0 l 1
 400 0 l 1
 400 100 l 1
 400 200 l 1
 250 200 l 1
 100 200 l 1
 100 100 l 1
 100 0 l 1
 50 0 l 1
 0 0 l 1
 0 250 l 1
400 350 m 1
 400 400 l 1
 250 400 l 1
 100 400 l 1
 100 350 l 1
 100 300 l 1
 250 300 l 1
 400 300 l 1
 400 350 l 1
300 650 m 1
 300 700 l 1
 350 700 l 1
 400 700 l 1
 400 650 l 1
 400 600 l 1
 350 600 l 1
 300 600 l 1
 300 650 l 1
100 650 m 1
 100 700 l 1
 150 700 l 1
 200 700 l 1
 200 650 l 1
 200 600 l 1
 150 600 l 1
 100 600 l 1
 100 650 l 1
EndSplineSet
Validated: 513
EndChar

StartChar: U+00E5
Encoding: 229 229 163
Width: 600
VWidth: -81
Flags: HW
LayerCount: 2
Back
Fore
SplineSet
100 600 m 1
 100 700 l 1
 250 700 l 1
 400 700 l 1
 400 600 l 1
 400 500 l 1
 450 500 l 1
 500 500 l 1
 500 250 l 1
 500 0 l 1
 450 0 l 1
 400 0 l 1
 400 100 l 1
 400 200 l 1
 250 200 l 1
 100 200 l 1
 100 100 l 1
 100 0 l 1
 50 0 l 1
 0 0 l 1
 0 250 l 1
 0 500 l 1
 50 500 l 1
 100 500 l 1
 100 600 l 1
300 550 m 1
 300 600 l 1
 250 600 l 1
 200 600 l 1
 200 550 l 1
 200 500 l 1
 250 500 l 1
 300 500 l 1
 300 550 l 1
400 350 m 1
 400 400 l 1
 250 400 l 1
 100 400 l 1
 100 350 l 1
 100 300 l 1
 250 300 l 1
 400 300 l 1
 400 350 l 1
EndSplineSet
Validated: 513
EndChar

StartChar: U+00E6
Encoding: 230 230 164
Width: 600
VWidth: -81
Flags: HW
LayerCount: 2
Back
Fore
SplineSet
0 250 m 1
 0 500 l 1
 250 500 l 1
 500 500 l 1
 500 450 l 1
 500 400 l 1
 400 400 l 1
 300 400 l 1
 300 350 l 1
 300 300 l 1
 400 300 l 1
 500 300 l 1
 500 250 l 1
 500 200 l 1
 400 200 l 1
 300 200 l 1
 300 150 l 1
 300 100 l 1
 400 100 l 1
 500 100 l 1
 500 50 l 1
 500 0 l 1
 350 0 l 1
 200 0 l 1
 200 100 l 1
 200 200 l 1
 150 200 l 1
 100 200 l 1
 100 100 l 1
 100 0 l 1
 50 0 l 1
 0 0 l 1
 0 250 l 1
200 350 m 1
 200 400 l 1
 150 400 l 1
 100 400 l 1
 100 350 l 1
 100 300 l 1
 150 300 l 1
 200 300 l 1
 200 350 l 1
EndSplineSet
Validated: 513
EndChar

StartChar: U+00E7
Encoding: 231 231 165
Width: 600
VWidth: -81
Flags: HW
LayerCount: 2
Back
Fore
SplineSet
0 250 m 1
 0 500 l 1
 250 500 l 1
 500 500 l 1
 500 450 l 1
 500 400 l 1
 300 400 l 1
 100 400 l 1
 100 250 l 1
 100 100 l 1
 300 100 l 1
 500 100 l 1
 500 50 l 1
 500 0 l 1
 400 0 l 1
 300 0 l 1
 300 -50 l 1
 300 -100 l 1
 250 -100 l 1
 200 -100 l 1
 200 -50 l 1
 200 0 l 1
 100 0 l 1
 0 0 l 1
 0 250 l 1
EndSplineSet
Validated: 513
EndChar

StartChar: U+00E8
Encoding: 232 232 166
Width: 600
VWidth: -81
Flags: HW
LayerCount: 2
Back
Fore
SplineSet
0 250 m 1
 0 500 l 1
 250 500 l 1
 500 500 l 1
 500 450 l 1
 500 400 l 1
 300 400 l 1
 100 400 l 1
 100 350 l 1
 100 300 l 1
 300 300 l 1
 500 300 l 1
 500 250 l 1
 500 200 l 1
 300 200 l 1
 100 200 l 1
 100 150 l 1
 100 100 l 1
 300 100 l 1
 500 100 l 1
 500 50 l 1
 500 0 l 1
 250 0 l 1
 0 0 l 1
 0 250 l 1
0 650 m 1
 0 700 l 1
 100 700 l 1
 200 700 l 1
 200 650 l 1
 200 600 l 1
 100 600 l 1
 0 600 l 1
 0 650 l 1
EndSplineSet
Validated: 513
EndChar

StartChar: U+00E9
Encoding: 233 233 167
Width: 600
VWidth: -81
Flags: HW
LayerCount: 2
Back
Fore
SplineSet
0 250 m 1
 0 500 l 1
 250 500 l 1
 500 500 l 1
 500 450 l 1
 500 400 l 1
 300 400 l 1
 100 400 l 1
 100 350 l 1
 100 300 l 1
 300 300 l 1
 500 300 l 1
 500 250 l 1
 500 200 l 1
 300 200 l 1
 100 200 l 1
 100 150 l 1
 100 100 l 1
 300 100 l 1
 500 100 l 1
 500 50 l 1
 500 0 l 1
 250 0 l 1
 0 0 l 1
 0 250 l 1
300 650 m 1
 300 700 l 1
 400 700 l 1
 500 700 l 1
 500 650 l 1
 500 600 l 1
 400 600 l 1
 300 600 l 1
 300 650 l 1
EndSplineSet
Validated: 513
EndChar

StartChar: U+00EA
Encoding: 234 234 168
Width: 600
VWidth: -81
Flags: HW
LayerCount: 2
Back
Fore
SplineSet
0 250 m 1
 0 500 l 1
 250 500 l 1
 500 500 l 1
 500 450 l 1
 500 400 l 1
 300 400 l 1
 100 400 l 1
 100 350 l 1
 100 300 l 1
 300 300 l 1
 500 300 l 1
 500 250 l 1
 500 200 l 1
 300 200 l 1
 100 200 l 1
 100 150 l 1
 100 100 l 1
 300 100 l 1
 500 100 l 1
 500 50 l 1
 500 0 l 1
 250 0 l 1
 0 0 l 1
 0 250 l 1
100 650 m 1
 100 700 l 1
 250 700 l 1
 400 700 l 1
 400 650 l 1
 400 600 l 1
 250 600 l 1
 100 600 l 1
 100 650 l 1
EndSplineSet
Validated: 513
EndChar

StartChar: U+00EB
Encoding: 235 235 169
Width: 600
VWidth: -81
Flags: HW
LayerCount: 2
Back
Fore
SplineSet
0 250 m 1
 0 500 l 1
 250 500 l 1
 500 500 l 1
 500 450 l 1
 500 400 l 1
 300 400 l 1
 100 400 l 1
 100 350 l 1
 100 300 l 1
 300 300 l 1
 500 300 l 1
 500 250 l 1
 500 200 l 1
 300 200 l 1
 100 200 l 1
 100 150 l 1
 100 100 l 1
 300 100 l 1
 500 100 l 1
 500 50 l 1
 500 0 l 1
 250 0 l 1
 0 0 l 1
 0 250 l 1
300 650 m 1
 300 700 l 1
 350 700 l 1
 400 700 l 1
 400 650 l 1
 400 600 l 1
 350 600 l 1
 300 600 l 1
 300 650 l 1
100 650 m 1
 100 700 l 1
 150 700 l 1
 200 700 l 1
 200 650 l 1
 200 600 l 1
 150 600 l 1
 100 600 l 1
 100 650 l 1
EndSplineSet
Validated: 513
EndChar

StartChar: U+00EC
Encoding: 236 236 170
Width: 600
VWidth: -81
Flags: HW
LayerCount: 2
Back
Fore
SplineSet
0 450 m 1
 0 500 l 1
 250 500 l 1
 500 500 l 1
 500 450 l 1
 500 400 l 1
 400 400 l 1
 300 400 l 1
 300 250 l 1
 300 100 l 1
 400 100 l 1
 500 100 l 1
 500 50 l 1
 500 0 l 1
 250 0 l 1
 0 0 l 1
 0 50 l 1
 0 100 l 1
 100 100 l 1
 200 100 l 1
 200 250 l 1
 200 400 l 1
 100 400 l 1
 0 400 l 1
 0 450 l 1
0 650 m 1
 0 700 l 1
 100 700 l 1
 200 700 l 1
 200 650 l 1
 200 600 l 1
 100 600 l 1
 0 600 l 1
 0 650 l 1
EndSplineSet
Validated: 513
EndChar

StartChar: U+00ED
Encoding: 237 237 171
Width: 600
VWidth: -81
Flags: HW
LayerCount: 2
Back
Fore
SplineSet
0 450 m 1
 0 500 l 1
 250 500 l 1
 500 500 l 1
 500 450 l 1
 500 400 l 1
 400 400 l 1
 300 400 l 1
 300 250 l 1
 300 100 l 1
 400 100 l 1
 500 100 l 1
 500 50 l 1
 500 0 l 1
 250 0 l 1
 0 0 l 1
 0 50 l 1
 0 100 l 1
 100 100 l 1
 200 100 l 1
 200 250 l 1
 200 400 l 1
 100 400 l 1
 0 400 l 1
 0 450 l 1
300 650 m 1
 300 700 l 1
 400 700 l 1
 500 700 l 1
 500 650 l 1
 500 600 l 1
 400 600 l 1
 300 600 l 1
 300 650 l 1
EndSplineSet
Validated: 513
EndChar

StartChar: U+00EE
Encoding: 238 238 172
Width: 600
VWidth: -81
Flags: HW
LayerCount: 2
Back
Fore
SplineSet
0 450 m 1
 0 500 l 1
 250 500 l 1
 500 500 l 1
 500 450 l 1
 500 400 l 1
 400 400 l 1
 300 400 l 1
 300 250 l 1
 300 100 l 1
 400 100 l 1
 500 100 l 1
 500 50 l 1
 500 0 l 1
 250 0 l 1
 0 0 l 1
 0 50 l 1
 0 100 l 1
 100 100 l 1
 200 100 l 1
 200 250 l 1
 200 400 l 1
 100 400 l 1
 0 400 l 1
 0 450 l 1
100 650 m 1
 100 700 l 1
 250 700 l 1
 400 700 l 1
 400 650 l 1
 400 600 l 1
 250 600 l 1
 100 600 l 1
 100 650 l 1
EndSplineSet
Validated: 513
EndChar

StartChar: U+00EF
Encoding: 239 239 173
Width: 600
VWidth: -81
Flags: HW
LayerCount: 2
Back
Fore
SplineSet
0 450 m 1
 0 500 l 1
 250 500 l 1
 500 500 l 1
 500 450 l 1
 500 400 l 1
 400 400 l 1
 300 400 l 1
 300 250 l 1
 300 100 l 1
 400 100 l 1
 500 100 l 1
 500 50 l 1
 500 0 l 1
 250 0 l 1
 0 0 l 1
 0 50 l 1
 0 100 l 1
 100 100 l 1
 200 100 l 1
 200 250 l 1
 200 400 l 1
 100 400 l 1
 0 400 l 1
 0 450 l 1
300 650 m 1
 300 700 l 1
 350 700 l 1
 400 700 l 1
 400 650 l 1
 400 600 l 1
 350 600 l 1
 300 600 l 1
 300 650 l 1
100 650 m 1
 100 700 l 1
 150 700 l 1
 200 700 l 1
 200 650 l 1
 200 600 l 1
 150 600 l 1
 100 600 l 1
 100 650 l 1
EndSplineSet
Validated: 513
EndChar

StartChar: U+00F0
Encoding: 240 240 174
Width: 600
VWidth: -81
Flags: HW
LayerCount: 2
Back
Fore
SplineSet
0 250 m 1
 0 500 l 1
 200 500 l 1
 400 500 l 1
 400 450 l 1
 400 400 l 1
 450 400 l 1
 500 400 l 1
 500 250 l 1
 500 100 l 1
 450 100 l 1
 400 100 l 1
 400 50 l 1
 400 0 l 1
 200 0 l 1
 0 0 l 1
 0 250 l 1
300 350 m 1
 300 400 l 1
 200 400 l 1
 100 400 l 1
 100 350 l 1
 100 300 l 1
 150 300 l 1
 200 300 l 1
 200 250 l 1
 200 200 l 1
 150 200 l 1
 100 200 l 1
 100 150 l 1
 100 100 l 1
 200 100 l 1
 300 100 l 1
 300 150 l 1
 300 200 l 1
 350 200 l 1
 400 200 l 1
 400 250 l 1
 400 300 l 1
 350 300 l 1
 300 300 l 1
 300 350 l 1
EndSplineSet
Validated: 513
EndChar

StartChar: U+00F1
Encoding: 241 241 175
Width: 600
VWidth: -81
Flags: HW
LayerCount: 2
Back
Fore
SplineSet
0 250 m 1
 0 500 l 1
 150 500 l 1
 300 500 l 1
 300 300 l 1
 300 100 l 1
 350 100 l 1
 400 100 l 1
 400 300 l 1
 400 500 l 1
 450 500 l 1
 500 500 l 1
 500 250 l 1
 500 0 l 1
 350 0 l 1
 200 0 l 1
 200 200 l 1
 200 400 l 1
 150 400 l 1
 100 400 l 1
 100 200 l 1
 100 0 l 1
 50 0 l 1
 0 0 l 1
 0 250 l 1
300 650 m 1
 300 700 l 1
 400 700 l 1
 500 700 l 1
 500 650 l 1
 500 600 l 1
 400 600 l 1
 300 600 l 1
 300 650 l 1
0 650 m 1
 0 700 l 1
 100 700 l 1
 200 700 l 1
 200 650 l 1
 200 600 l 1
 100 600 l 1
 0 600 l 1
 0 650 l 1
EndSplineSet
Validated: 513
EndChar

StartChar: U+00F2
Encoding: 242 242 176
Width: 600
VWidth: -81
Flags: HW
LayerCount: 2
Back
Fore
SplineSet
0 250 m 1
 0 500 l 1
 250 500 l 1
 500 500 l 1
 500 250 l 1
 500 0 l 1
 250 0 l 1
 0 0 l 1
 0 250 l 1
400 250 m 1
 400 400 l 1
 250 400 l 1
 100 400 l 1
 100 250 l 1
 100 100 l 1
 250 100 l 1
 400 100 l 1
 400 250 l 1
0 650 m 1
 0 700 l 1
 100 700 l 1
 200 700 l 1
 200 650 l 1
 200 600 l 1
 100 600 l 1
 0 600 l 1
 0 650 l 1
EndSplineSet
Validated: 513
EndChar

StartChar: U+00F3
Encoding: 243 243 177
Width: 600
VWidth: -81
Flags: HW
LayerCount: 2
Back
Fore
SplineSet
0 250 m 1
 0 500 l 1
 250 500 l 1
 500 500 l 1
 500 250 l 1
 500 0 l 1
 250 0 l 1
 0 0 l 1
 0 250 l 1
400 250 m 1
 400 400 l 1
 250 400 l 1
 100 400 l 1
 100 250 l 1
 100 100 l 1
 250 100 l 1
 400 100 l 1
 400 250 l 1
300 650 m 1
 300 700 l 1
 400 700 l 1
 500 700 l 1
 500 650 l 1
 500 600 l 1
 400 600 l 1
 300 600 l 1
 300 650 l 1
EndSplineSet
Validated: 513
EndChar

StartChar: U+00F4
Encoding: 244 244 178
Width: 600
VWidth: -81
Flags: HW
LayerCount: 2
Back
Fore
SplineSet
0 250 m 1
 0 500 l 1
 250 500 l 1
 500 500 l 1
 500 250 l 1
 500 0 l 1
 250 0 l 1
 0 0 l 1
 0 250 l 1
400 250 m 1
 400 400 l 1
 250 400 l 1
 100 400 l 1
 100 250 l 1
 100 100 l 1
 250 100 l 1
 400 100 l 1
 400 250 l 1
100 650 m 1
 100 700 l 1
 250 700 l 1
 400 700 l 1
 400 650 l 1
 400 600 l 1
 250 600 l 1
 100 600 l 1
 100 650 l 1
EndSplineSet
Validated: 513
EndChar

StartChar: U+00F5
Encoding: 245 245 179
Width: 600
VWidth: -81
Flags: HW
LayerCount: 2
Back
Fore
SplineSet
0 250 m 1
 0 500 l 1
 250 500 l 1
 500 500 l 1
 500 250 l 1
 500 0 l 1
 250 0 l 1
 0 0 l 1
 0 250 l 1
400 250 m 1
 400 400 l 1
 250 400 l 1
 100 400 l 1
 100 250 l 1
 100 100 l 1
 250 100 l 1
 400 100 l 1
 400 250 l 1
300 650 m 1
 300 700 l 1
 400 700 l 1
 500 700 l 1
 500 650 l 1
 500 600 l 1
 400 600 l 1
 300 600 l 1
 300 650 l 1
0 650 m 1
 0 700 l 1
 100 700 l 1
 200 700 l 1
 200 650 l 1
 200 600 l 1
 100 600 l 1
 0 600 l 1
 0 650 l 1
EndSplineSet
Validated: 513
EndChar

StartChar: U+00F6
Encoding: 246 246 180
Width: 600
VWidth: -81
Flags: HW
LayerCount: 2
Back
Fore
SplineSet
0 250 m 1
 0 500 l 1
 250 500 l 1
 500 500 l 1
 500 250 l 1
 500 0 l 1
 250 0 l 1
 0 0 l 1
 0 250 l 1
400 250 m 1
 400 400 l 1
 250 400 l 1
 100 400 l 1
 100 250 l 1
 100 100 l 1
 250 100 l 1
 400 100 l 1
 400 250 l 1
300 650 m 1
 300 700 l 1
 350 700 l 1
 400 700 l 1
 400 650 l 1
 400 600 l 1
 350 600 l 1
 300 600 l 1
 300 650 l 1
100 650 m 1
 100 700 l 1
 150 700 l 1
 200 700 l 1
 200 650 l 1
 200 600 l 1
 150 600 l 1
 100 600 l 1
 100 650 l 1
EndSplineSet
Validated: 513
EndChar

StartChar: U+00F7
Encoding: 247 247 181
Width: 600
VWidth: -81
Flags: HW
LayerCount: 2
Back
Fore
SplineSet
200 50 m 1
 200 100 l 1
 250 100 l 1
 300 100 l 1
 300 50 l 1
 300 0 l 1
 250 0 l 1
 200 0 l 1
 200 50 l 1
0 250 m 1
 0 300 l 1
 250 300 l 1
 500 300 l 1
 500 250 l 1
 500 200 l 1
 250 200 l 1
 0 200 l 1
 0 250 l 1
200 450 m 1
 200 500 l 1
 250 500 l 1
 300 500 l 1
 300 450 l 1
 300 400 l 1
 250 400 l 1
 200 400 l 1
 200 450 l 1
EndSplineSet
Validated: 513
EndChar

StartChar: U+00F8
Encoding: 248 248 182
Width: 600
VWidth: -81
Flags: HW
LayerCount: 2
Back
Fore
SplineSet
300 550 m 1
 300 600 l 1
 350 600 l 1
 400 600 l 1
 400 550 l 1
 400 500 l 1
 450 500 l 1
 500 500 l 1
 500 250 l 1
 500 0 l 1
 350 0 l 1
 200 0 l 1
 200 -50 l 1
 200 -100 l 1
 150 -100 l 1
 100 -100 l 1
 100 -50 l 1
 100 0 l 1
 50 0 l 1
 0 0 l 1
 0 250 l 1
 0 500 l 1
 150 500 l 1
 300 500 l 1
 300 550 l 1
200 250 m 1
 200 400 l 1
 150 400 l 1
 100 400 l 1
 100 250 l 1
 100 100 l 1
 150 100 l 1
 200 100 l 1
 200 250 l 1
400 250 m 1
 400 400 l 1
 350 400 l 1
 300 400 l 1
 300 250 l 1
 300 100 l 1
 350 100 l 1
 400 100 l 1
 400 250 l 1
EndSplineSet
Validated: 513
EndChar

StartChar: U+00F9
Encoding: 249 249 183
Width: 600
VWidth: -81
Flags: HW
LayerCount: 2
Back
Fore
SplineSet
0 250 m 1
 0 500 l 1
 50 500 l 1
 100 500 l 1
 100 300 l 1
 100 100 l 1
 250 100 l 1
 400 100 l 1
 400 300 l 1
 400 500 l 1
 450 500 l 1
 500 500 l 1
 500 250 l 1
 500 0 l 1
 250 0 l 1
 0 0 l 1
 0 250 l 1
0 650 m 1
 0 700 l 1
 100 700 l 1
 200 700 l 1
 200 650 l 1
 200 600 l 1
 100 600 l 1
 0 600 l 1
 0 650 l 1
EndSplineSet
Validated: 513
EndChar

StartChar: U+00FA
Encoding: 250 250 184
Width: 600
VWidth: -81
Flags: HW
LayerCount: 2
Back
Fore
SplineSet
0 250 m 1
 0 500 l 1
 50 500 l 1
 100 500 l 1
 100 300 l 1
 100 100 l 1
 250 100 l 1
 400 100 l 1
 400 300 l 1
 400 500 l 1
 450 500 l 1
 500 500 l 1
 500 250 l 1
 500 0 l 1
 250 0 l 1
 0 0 l 1
 0 250 l 1
300 650 m 1
 300 700 l 1
 400 700 l 1
 500 700 l 1
 500 650 l 1
 500 600 l 1
 400 600 l 1
 300 600 l 1
 300 650 l 1
EndSplineSet
Validated: 513
EndChar

StartChar: U+00FB
Encoding: 251 251 185
Width: 600
VWidth: -81
Flags: HW
LayerCount: 2
Back
Fore
SplineSet
0 250 m 1
 0 500 l 1
 50 500 l 1
 100 500 l 1
 100 300 l 1
 100 100 l 1
 250 100 l 1
 400 100 l 1
 400 300 l 1
 400 500 l 1
 450 500 l 1
 500 500 l 1
 500 250 l 1
 500 0 l 1
 250 0 l 1
 0 0 l 1
 0 250 l 1
100 650 m 1
 100 700 l 1
 250 700 l 1
 400 700 l 1
 400 650 l 1
 400 600 l 1
 250 600 l 1
 100 600 l 1
 100 650 l 1
EndSplineSet
Validated: 513
EndChar

StartChar: U+00FC
Encoding: 252 252 186
Width: 600
VWidth: -81
Flags: HW
LayerCount: 2
Back
Fore
SplineSet
0 250 m 1
 0 500 l 1
 50 500 l 1
 100 500 l 1
 100 300 l 1
 100 100 l 1
 250 100 l 1
 400 100 l 1
 400 300 l 1
 400 500 l 1
 450 500 l 1
 500 500 l 1
 500 250 l 1
 500 0 l 1
 250 0 l 1
 0 0 l 1
 0 250 l 1
300 650 m 1
 300 700 l 1
 350 700 l 1
 400 700 l 1
 400 650 l 1
 400 600 l 1
 350 600 l 1
 300 600 l 1
 300 650 l 1
100 650 m 1
 100 700 l 1
 150 700 l 1
 200 700 l 1
 200 650 l 1
 200 600 l 1
 150 600 l 1
 100 600 l 1
 100 650 l 1
EndSplineSet
Validated: 513
EndChar

StartChar: U+00FD
Encoding: 253 253 187
Width: 600
VWidth: -81
Flags: HW
LayerCount: 2
Back
Fore
SplineSet
0 350 m 1
 0 500 l 1
 50 500 l 1
 100 500 l 1
 100 400 l 1
 100 300 l 1
 250 300 l 1
 400 300 l 1
 400 400 l 1
 400 500 l 1
 450 500 l 1
 500 500 l 1
 500 350 l 1
 500 200 l 1
 400 200 l 1
 300 200 l 1
 300 100 l 1
 300 0 l 1
 250 0 l 1
 200 0 l 1
 200 100 l 1
 200 200 l 1
 100 200 l 1
 0 200 l 1
 0 350 l 1
300 650 m 1
 300 700 l 1
 400 700 l 1
 500 700 l 1
 500 650 l 1
 500 600 l 1
 400 600 l 1
 300 600 l 1
 300 650 l 1
EndSplineSet
Validated: 513
EndChar

StartChar: U+00FE
Encoding: 254 254 188
Width: 600
VWidth: -81
Flags: HW
LayerCount: 2
Back
Fore
SplineSet
0 250 m 1
 0 500 l 1
 50 500 l 1
 100 500 l 1
 100 450 l 1
 100 400 l 1
 300 400 l 1
 500 400 l 1
 500 250 l 1
 500 100 l 1
 300 100 l 1
 100 100 l 1
 100 50 l 1
 100 0 l 1
 50 0 l 1
 0 0 l 1
 0 250 l 1
400 250 m 1
 400 300 l 1
 250 300 l 1
 100 300 l 1
 100 250 l 1
 100 200 l 1
 250 200 l 1
 400 200 l 1
 400 250 l 1
EndSplineSet
Validated: 513
EndChar

StartChar: U+00FF
Encoding: 255 255 189
Width: 600
VWidth: -81
Flags: HW
LayerCount: 2
Back
Fore
SplineSet
0 350 m 1
 0 500 l 1
 50 500 l 1
 100 500 l 1
 100 400 l 1
 100 300 l 1
 250 300 l 1
 400 300 l 1
 400 400 l 1
 400 500 l 1
 450 500 l 1
 500 500 l 1
 500 350 l 1
 500 200 l 1
 400 200 l 1
 300 200 l 1
 300 100 l 1
 300 0 l 1
 250 0 l 1
 200 0 l 1
 200 100 l 1
 200 200 l 1
 100 200 l 1
 0 200 l 1
 0 350 l 1
300 650 m 1
 300 700 l 1
 350 700 l 1
 400 700 l 1
 400 650 l 1
 400 600 l 1
 350 600 l 1
 300 600 l 1
 300 650 l 1
100 650 m 1
 100 700 l 1
 150 700 l 1
 200 700 l 1
 200 650 l 1
 200 600 l 1
 150 600 l 1
 100 600 l 1
 100 650 l 1
EndSplineSet
Validated: 513
EndChar

StartChar: U+0100
Encoding: 256 256 190
Width: 600
VWidth: -81
Flags: HW
LayerCount: 2
Back
Fore
SplineSet
100 650 m 1
 100 700 l 1
 250 700 l 1
 400 700 l 1
 400 650 l 1
 400 600 l 1
 450 600 l 1
 500 600 l 1
 500 300 l 1
 500 0 l 1
 450 0 l 1
 400 0 l 1
 400 100 l 1
 400 200 l 1
 250 200 l 1
 100 200 l 1
 100 100 l 1
 100 0 l 1
 50 0 l 1
 0 0 l 1
 0 300 l 1
 0 600 l 1
 50 600 l 1
 100 600 l 1
 100 650 l 1
400 400 m 1
 400 500 l 1
 250 500 l 1
 100 500 l 1
 100 400 l 1
 100 300 l 1
 250 300 l 1
 400 300 l 1
 400 400 l 1
EndSplineSet
Validated: 513
EndChar

StartChar: U+0101
Encoding: 257 257 191
Width: 600
VWidth: -81
Flags: HW
LayerCount: 2
Back
Fore
SplineSet
0 250 m 1
 0 500 l 1
 250 500 l 1
 500 500 l 1
 500 250 l 1
 500 0 l 1
 450 0 l 1
 400 0 l 1
 400 100 l 1
 400 200 l 1
 250 200 l 1
 100 200 l 1
 100 100 l 1
 100 0 l 1
 50 0 l 1
 0 0 l 1
 0 250 l 1
400 350 m 1
 400 400 l 1
 250 400 l 1
 100 400 l 1
 100 350 l 1
 100 300 l 1
 250 300 l 1
 400 300 l 1
 400 350 l 1
100 650 m 1
 100 700 l 1
 250 700 l 1
 400 700 l 1
 400 650 l 1
 400 600 l 1
 250 600 l 1
 100 600 l 1
 100 650 l 1
EndSplineSet
Validated: 513
EndChar

StartChar: U+0102
Encoding: 258 258 192
Width: 600
VWidth: -81
Flags: HW
LayerCount: 2
Back
Fore
SplineSet
100 650 m 1
 100 700 l 1
 150 700 l 1
 200 700 l 1
 200 650 l 1
 200 600 l 1
 250 600 l 1
 300 600 l 1
 300 650 l 1
 300 700 l 1
 350 700 l 1
 400 700 l 1
 400 650 l 1
 400 600 l 1
 450 600 l 1
 500 600 l 1
 500 300 l 1
 500 0 l 1
 450 0 l 1
 400 0 l 1
 400 100 l 1
 400 200 l 1
 250 200 l 1
 100 200 l 1
 100 100 l 1
 100 0 l 1
 50 0 l 1
 0 0 l 1
 0 300 l 1
 0 600 l 1
 50 600 l 1
 100 600 l 1
 100 650 l 1
400 400 m 1
 400 500 l 1
 250 500 l 1
 100 500 l 1
 100 400 l 1
 100 300 l 1
 250 300 l 1
 400 300 l 1
 400 400 l 1
EndSplineSet
Validated: 513
EndChar

StartChar: U+0103
Encoding: 259 259 193
Width: 600
VWidth: -81
Flags: HW
LayerCount: 2
Back
Fore
SplineSet
100 600 m 1
 100 700 l 1
 150 700 l 1
 200 700 l 1
 200 650 l 1
 200 600 l 1
 250 600 l 1
 300 600 l 1
 300 650 l 1
 300 700 l 1
 350 700 l 1
 400 700 l 1
 400 600 l 1
 400 500 l 1
 450 500 l 1
 500 500 l 1
 500 250 l 1
 500 0 l 1
 450 0 l 1
 400 0 l 1
 400 100 l 1
 400 200 l 1
 250 200 l 1
 100 200 l 1
 100 100 l 1
 100 0 l 1
 50 0 l 1
 0 0 l 1
 0 250 l 1
 0 500 l 1
 50 500 l 1
 100 500 l 1
 100 600 l 1
400 350 m 1
 400 400 l 1
 250 400 l 1
 100 400 l 1
 100 350 l 1
 100 300 l 1
 250 300 l 1
 400 300 l 1
 400 350 l 1
EndSplineSet
Validated: 513
EndChar

StartChar: U+0104
Encoding: 260 260 194
Width: 600
VWidth: -81
Flags: HW
LayerCount: 2
Back
Fore
SplineSet
0 300 m 1
 0 600 l 1
 250 600 l 1
 500 600 l 1
 500 300 l 1
 500 0 l 1
 450 0 l 1
 400 0 l 1
 400 -50 l 1
 400 -100 l 1
 350 -100 l 1
 300 -100 l 1
 300 0 l 1
 300 100 l 1
 350 100 l 1
 400 100 l 1
 400 150 l 1
 400 200 l 1
 250 200 l 1
 100 200 l 1
 100 100 l 1
 100 0 l 1
 50 0 l 1
 0 0 l 1
 0 300 l 1
400 400 m 1
 400 500 l 1
 250 500 l 1
 100 500 l 1
 100 400 l 1
 100 300 l 1
 250 300 l 1
 400 300 l 1
 400 400 l 1
EndSplineSet
Validated: 513
EndChar

StartChar: U+0105
Encoding: 261 261 195
Width: 600
VWidth: -81
Flags: HW
LayerCount: 2
Back
Fore
SplineSet
0 250 m 1
 0 500 l 1
 250 500 l 1
 500 500 l 1
 500 250 l 1
 500 0 l 1
 450 0 l 1
 400 0 l 1
 400 -50 l 1
 400 -100 l 1
 350 -100 l 1
 300 -100 l 1
 300 0 l 1
 300 100 l 1
 350 100 l 1
 400 100 l 1
 400 150 l 1
 400 200 l 1
 250 200 l 1
 100 200 l 1
 100 100 l 1
 100 0 l 1
 50 0 l 1
 0 0 l 1
 0 250 l 1
400 350 m 1
 400 400 l 1
 250 400 l 1
 100 400 l 1
 100 350 l 1
 100 300 l 1
 250 300 l 1
 400 300 l 1
 400 350 l 1
EndSplineSet
Validated: 513
EndChar

StartChar: U+0106
Encoding: 262 262 196
Width: 600
VWidth: -81
Flags: HW
LayerCount: 2
Back
Fore
SplineSet
300 650 m 1
 300 700 l 1
 400 700 l 1
 500 700 l 1
 500 600 l 1
 500 500 l 1
 300 500 l 1
 100 500 l 1
 100 300 l 1
 100 100 l 1
 300 100 l 1
 500 100 l 1
 500 50 l 1
 500 0 l 1
 250 0 l 1
 0 0 l 1
 0 300 l 1
 0 600 l 1
 150 600 l 1
 300 600 l 1
 300 650 l 1
EndSplineSet
Validated: 513
EndChar

StartChar: U+0107
Encoding: 263 263 197
Width: 600
VWidth: -81
Flags: HW
LayerCount: 2
Back
Fore
SplineSet
0 250 m 1
 0 500 l 1
 250 500 l 1
 500 500 l 1
 500 450 l 1
 500 400 l 1
 300 400 l 1
 100 400 l 1
 100 250 l 1
 100 100 l 1
 300 100 l 1
 500 100 l 1
 500 50 l 1
 500 0 l 1
 250 0 l 1
 0 0 l 1
 0 250 l 1
300 650 m 1
 300 700 l 1
 400 700 l 1
 500 700 l 1
 500 650 l 1
 500 600 l 1
 400 600 l 1
 300 600 l 1
 300 650 l 1
EndSplineSet
Validated: 513
EndChar

StartChar: U+0108
Encoding: 264 264 198
Width: 600
VWidth: -81
Flags: HW
LayerCount: 2
Back
Fore
SplineSet
100 650 m 1
 100 700 l 1
 250 700 l 1
 400 700 l 1
 400 650 l 1
 400 600 l 1
 450 600 l 1
 500 600 l 1
 500 550 l 1
 500 500 l 1
 300 500 l 1
 100 500 l 1
 100 300 l 1
 100 100 l 1
 300 100 l 1
 500 100 l 1
 500 50 l 1
 500 0 l 1
 250 0 l 1
 0 0 l 1
 0 300 l 1
 0 600 l 1
 50 600 l 1
 100 600 l 1
 100 650 l 1
EndSplineSet
Validated: 513
EndChar

StartChar: U+0109
Encoding: 265 265 199
Width: 600
VWidth: -81
Flags: HW
LayerCount: 2
Back
Fore
SplineSet
0 250 m 1
 0 500 l 1
 250 500 l 1
 500 500 l 1
 500 450 l 1
 500 400 l 1
 300 400 l 1
 100 400 l 1
 100 250 l 1
 100 100 l 1
 300 100 l 1
 500 100 l 1
 500 50 l 1
 500 0 l 1
 250 0 l 1
 0 0 l 1
 0 250 l 1
100 650 m 1
 100 700 l 1
 250 700 l 1
 400 700 l 1
 400 650 l 1
 400 600 l 1
 250 600 l 1
 100 600 l 1
 100 650 l 1
EndSplineSet
Validated: 513
EndChar

StartChar: U+010A
Encoding: 266 266 200
Width: 600
VWidth: -81
Flags: HW
LayerCount: 2
Back
Fore
SplineSet
0 350 m 1
 0 700 l 1
 100 700 l 1
 200 700 l 1
 200 650 l 1
 200 600 l 1
 350 600 l 1
 500 600 l 1
 500 550 l 1
 500 500 l 1
 300 500 l 1
 100 500 l 1
 100 300 l 1
 100 100 l 1
 300 100 l 1
 500 100 l 1
 500 50 l 1
 500 0 l 1
 250 0 l 1
 0 0 l 1
 0 350 l 1
EndSplineSet
Validated: 513
EndChar

StartChar: U+010B
Encoding: 267 267 201
Width: 600
VWidth: -81
Flags: HW
LayerCount: 2
Back
Fore
SplineSet
0 250 m 1
 0 500 l 1
 250 500 l 1
 500 500 l 1
 500 450 l 1
 500 400 l 1
 300 400 l 1
 100 400 l 1
 100 250 l 1
 100 100 l 1
 300 100 l 1
 500 100 l 1
 500 50 l 1
 500 0 l 1
 250 0 l 1
 0 0 l 1
 0 250 l 1
0 650 m 1
 0 700 l 1
 100 700 l 1
 200 700 l 1
 200 650 l 1
 200 600 l 1
 100 600 l 1
 0 600 l 1
 0 650 l 1
EndSplineSet
Validated: 513
EndChar

StartChar: U+010C
Encoding: 268 268 202
Width: 600
VWidth: -81
Flags: HW
LayerCount: 2
Back
Fore
SplineSet
100 650 m 1
 100 700 l 1
 150 700 l 1
 200 700 l 1
 200 650 l 1
 200 600 l 1
 250 600 l 1
 300 600 l 1
 300 650 l 1
 300 700 l 1
 350 700 l 1
 400 700 l 1
 400 650 l 1
 400 600 l 1
 450 600 l 1
 500 600 l 1
 500 550 l 1
 500 500 l 1
 300 500 l 1
 100 500 l 1
 100 300 l 1
 100 100 l 1
 300 100 l 1
 500 100 l 1
 500 50 l 1
 500 0 l 1
 250 0 l 1
 0 0 l 1
 0 300 l 1
 0 600 l 1
 50 600 l 1
 100 600 l 1
 100 650 l 1
EndSplineSet
Validated: 513
EndChar

StartChar: U+010D
Encoding: 269 269 203
Width: 600
VWidth: -81
Flags: HW
LayerCount: 2
Back
Fore
SplineSet
100 600 m 1
 100 700 l 1
 150 700 l 1
 200 700 l 1
 200 650 l 1
 200 600 l 1
 250 600 l 1
 300 600 l 1
 300 650 l 1
 300 700 l 1
 350 700 l 1
 400 700 l 1
 400 600 l 1
 400 500 l 1
 450 500 l 1
 500 500 l 1
 500 450 l 1
 500 400 l 1
 300 400 l 1
 100 400 l 1
 100 250 l 1
 100 100 l 1
 300 100 l 1
 500 100 l 1
 500 50 l 1
 500 0 l 1
 250 0 l 1
 0 0 l 1
 0 250 l 1
 0 500 l 1
 50 500 l 1
 100 500 l 1
 100 600 l 1
EndSplineSet
Validated: 513
EndChar

StartChar: U+010E
Encoding: 270 270 204
Width: 600
VWidth: -81
Flags: HW
LayerCount: 2
Back
Fore
SplineSet
100 650 m 1
 100 700 l 1
 250 700 l 1
 400 700 l 1
 400 650 l 1
 400 600 l 1
 350 600 l 1
 300 600 l 1
 300 550 l 1
 300 500 l 1
 400 500 l 1
 500 500 l 1
 500 300 l 1
 500 100 l 1
 400 100 l 1
 300 100 l 1
 300 50 l 1
 300 0 l 1
 150 0 l 1
 0 0 l 1
 0 300 l 1
 0 600 l 1
 50 600 l 1
 100 600 l 1
 100 650 l 1
200 450 m 1
 200 500 l 1
 150 500 l 1
 100 500 l 1
 100 300 l 1
 100 100 l 1
 150 100 l 1
 200 100 l 1
 200 150 l 1
 200 200 l 1
 300 200 l 1
 400 200 l 1
 400 300 l 1
 400 400 l 1
 300 400 l 1
 200 400 l 1
 200 450 l 1
EndSplineSet
Validated: 513
EndChar

StartChar: U+010F
Encoding: 271 271 205
Width: 600
VWidth: -81
Flags: HW
LayerCount: 2
Back
Fore
SplineSet
0 250 m 1
 0 500 l 1
 150 500 l 1
 300 500 l 1
 300 450 l 1
 300 400 l 1
 400 400 l 1
 500 400 l 1
 500 250 l 1
 500 100 l 1
 400 100 l 1
 300 100 l 1
 300 50 l 1
 300 0 l 1
 150 0 l 1
 0 0 l 1
 0 250 l 1
200 350 m 1
 200 400 l 1
 150 400 l 1
 100 400 l 1
 100 250 l 1
 100 100 l 1
 150 100 l 1
 200 100 l 1
 200 150 l 1
 200 200 l 1
 300 200 l 1
 400 200 l 1
 400 250 l 1
 400 300 l 1
 300 300 l 1
 200 300 l 1
 200 350 l 1
100 650 m 1
 100 700 l 1
 250 700 l 1
 400 700 l 1
 400 650 l 1
 400 600 l 1
 250 600 l 1
 100 600 l 1
 100 650 l 1
EndSplineSet
Validated: 513
EndChar

StartChar: U+0110
Encoding: 272 272 206
Width: 600
VWidth: -81
Flags: HW
LayerCount: 2
Back
Fore
SplineSet
0 300 m 1
 0 600 l 1
 200 600 l 1
 400 600 l 1
 400 550 l 1
 400 500 l 1
 450 500 l 1
 500 500 l 1
 500 300 l 1
 500 100 l 1
 450 100 l 1
 400 100 l 1
 400 50 l 1
 400 0 l 1
 200 0 l 1
 0 0 l 1
 0 300 l 1
300 450 m 1
 300 500 l 1
 200 500 l 1
 100 500 l 1
 100 400 l 1
 100 300 l 1
 150 300 l 1
 200 300 l 1
 200 250 l 1
 200 200 l 1
 150 200 l 1
 100 200 l 1
 100 150 l 1
 100 100 l 1
 200 100 l 1
 300 100 l 1
 300 150 l 1
 300 200 l 1
 350 200 l 1
 400 200 l 1
 400 300 l 1
 400 400 l 1
 350 400 l 1
 300 400 l 1
 300 450 l 1
EndSplineSet
Validated: 513
EndChar

StartChar: U+0111
Encoding: 273 273 207
Width: 600
VWidth: -81
Flags: HW
LayerCount: 2
Back
Fore
SplineSet
0 250 m 1
 0 500 l 1
 200 500 l 1
 400 500 l 1
 400 450 l 1
 400 400 l 1
 450 400 l 1
 500 400 l 1
 500 250 l 1
 500 100 l 1
 450 100 l 1
 400 100 l 1
 400 50 l 1
 400 0 l 1
 200 0 l 1
 0 0 l 1
 0 250 l 1
300 350 m 1
 300 400 l 1
 200 400 l 1
 100 400 l 1
 100 350 l 1
 100 300 l 1
 150 300 l 1
 200 300 l 1
 200 250 l 1
 200 200 l 1
 150 200 l 1
 100 200 l 1
 100 150 l 1
 100 100 l 1
 200 100 l 1
 300 100 l 1
 300 150 l 1
 300 200 l 1
 350 200 l 1
 400 200 l 1
 400 250 l 1
 400 300 l 1
 350 300 l 1
 300 300 l 1
 300 350 l 1
EndSplineSet
Validated: 513
EndChar

StartChar: U+0112
Encoding: 274 274 208
Width: 600
VWidth: -81
Flags: HW
LayerCount: 2
Back
Fore
SplineSet
0 350 m 1
 0 700 l 1
 250 700 l 1
 500 700 l 1
 500 600 l 1
 500 500 l 1
 300 500 l 1
 100 500 l 1
 100 400 l 1
 100 300 l 1
 300 300 l 1
 500 300 l 1
 500 250 l 1
 500 200 l 1
 300 200 l 1
 100 200 l 1
 100 150 l 1
 100 100 l 1
 300 100 l 1
 500 100 l 1
 500 50 l 1
 500 0 l 1
 250 0 l 1
 0 0 l 1
 0 350 l 1
EndSplineSet
Validated: 513
EndChar

StartChar: U+0113
Encoding: 275 275 209
Width: 600
VWidth: -81
Flags: HW
LayerCount: 2
Back
Fore
SplineSet
0 250 m 1
 0 500 l 1
 250 500 l 1
 500 500 l 1
 500 450 l 1
 500 400 l 1
 300 400 l 1
 100 400 l 1
 100 350 l 1
 100 300 l 1
 300 300 l 1
 500 300 l 1
 500 250 l 1
 500 200 l 1
 300 200 l 1
 100 200 l 1
 100 150 l 1
 100 100 l 1
 300 100 l 1
 500 100 l 1
 500 50 l 1
 500 0 l 1
 250 0 l 1
 0 0 l 1
 0 250 l 1
0 650 m 1
 0 700 l 1
 250 700 l 1
 500 700 l 1
 500 650 l 1
 500 600 l 1
 250 600 l 1
 0 600 l 1
 0 650 l 1
EndSplineSet
Validated: 513
EndChar

StartChar: U+0114
Encoding: 276 276 210
Width: 600
VWidth: -81
Flags: HW
LayerCount: 2
Back
Fore
SplineSet
100 650 m 1
 100 700 l 1
 150 700 l 1
 200 700 l 1
 200 650 l 1
 200 600 l 1
 250 600 l 1
 300 600 l 1
 300 650 l 1
 300 700 l 1
 350 700 l 1
 400 700 l 1
 400 650 l 1
 400 600 l 1
 450 600 l 1
 500 600 l 1
 500 550 l 1
 500 500 l 1
 300 500 l 1
 100 500 l 1
 100 400 l 1
 100 300 l 1
 300 300 l 1
 500 300 l 1
 500 250 l 1
 500 200 l 1
 300 200 l 1
 100 200 l 1
 100 150 l 1
 100 100 l 1
 300 100 l 1
 500 100 l 1
 500 50 l 1
 500 0 l 1
 250 0 l 1
 0 0 l 1
 0 300 l 1
 0 600 l 1
 50 600 l 1
 100 600 l 1
 100 650 l 1
EndSplineSet
Validated: 513
EndChar

StartChar: U+0115
Encoding: 277 277 211
Width: 600
VWidth: -81
Flags: HW
LayerCount: 2
Back
Fore
SplineSet
100 600 m 1
 100 700 l 1
 150 700 l 1
 200 700 l 1
 200 650 l 1
 200 600 l 1
 250 600 l 1
 300 600 l 1
 300 650 l 1
 300 700 l 1
 350 700 l 1
 400 700 l 1
 400 600 l 1
 400 500 l 1
 450 500 l 1
 500 500 l 1
 500 450 l 1
 500 400 l 1
 300 400 l 1
 100 400 l 1
 100 350 l 1
 100 300 l 1
 300 300 l 1
 500 300 l 1
 500 250 l 1
 500 200 l 1
 300 200 l 1
 100 200 l 1
 100 150 l 1
 100 100 l 1
 300 100 l 1
 500 100 l 1
 500 50 l 1
 500 0 l 1
 250 0 l 1
 0 0 l 1
 0 250 l 1
 0 500 l 1
 50 500 l 1
 100 500 l 1
 100 600 l 1
EndSplineSet
Validated: 513
EndChar

StartChar: U+0116
Encoding: 278 278 212
Width: 600
VWidth: -81
Flags: HW
LayerCount: 2
Back
Fore
SplineSet
200 650 m 1
 200 700 l 1
 250 700 l 1
 300 700 l 1
 300 650 l 1
 300 600 l 1
 400 600 l 1
 500 600 l 1
 500 550 l 1
 500 500 l 1
 300 500 l 1
 100 500 l 1
 100 400 l 1
 100 300 l 1
 300 300 l 1
 500 300 l 1
 500 250 l 1
 500 200 l 1
 300 200 l 1
 100 200 l 1
 100 150 l 1
 100 100 l 1
 300 100 l 1
 500 100 l 1
 500 50 l 1
 500 0 l 1
 250 0 l 1
 0 0 l 1
 0 300 l 1
 0 600 l 1
 100 600 l 1
 200 600 l 1
 200 650 l 1
EndSplineSet
Validated: 513
EndChar

StartChar: U+0117
Encoding: 279 279 213
Width: 600
VWidth: -81
Flags: HW
LayerCount: 2
Back
Fore
SplineSet
0 250 m 1
 0 500 l 1
 250 500 l 1
 500 500 l 1
 500 450 l 1
 500 400 l 1
 300 400 l 1
 100 400 l 1
 100 350 l 1
 100 300 l 1
 300 300 l 1
 500 300 l 1
 500 250 l 1
 500 200 l 1
 300 200 l 1
 100 200 l 1
 100 150 l 1
 100 100 l 1
 300 100 l 1
 500 100 l 1
 500 50 l 1
 500 0 l 1
 250 0 l 1
 0 0 l 1
 0 250 l 1
200 650 m 1
 200 700 l 1
 250 700 l 1
 300 700 l 1
 300 650 l 1
 300 600 l 1
 250 600 l 1
 200 600 l 1
 200 650 l 1
EndSplineSet
Validated: 513
EndChar

StartChar: U+0118
Encoding: 280 280 214
Width: 600
VWidth: -81
Flags: HW
LayerCount: 2
Back
Fore
SplineSet
0 300 m 1
 0 600 l 1
 250 600 l 1
 500 600 l 1
 500 550 l 1
 500 500 l 1
 300 500 l 1
 100 500 l 1
 100 400 l 1
 100 300 l 1
 300 300 l 1
 500 300 l 1
 500 250 l 1
 500 200 l 1
 300 200 l 1
 100 200 l 1
 100 150 l 1
 100 100 l 1
 300 100 l 1
 500 100 l 1
 500 50 l 1
 500 0 l 1
 400 0 l 1
 300 0 l 1
 300 -50 l 1
 300 -100 l 1
 250 -100 l 1
 200 -100 l 1
 200 -50 l 1
 200 0 l 1
 100 0 l 1
 0 0 l 1
 0 300 l 1
EndSplineSet
Validated: 513
EndChar

StartChar: U+0119
Encoding: 281 281 215
Width: 600
VWidth: -81
Flags: HW
LayerCount: 2
Back
Fore
SplineSet
0 250 m 1
 0 500 l 1
 250 500 l 1
 500 500 l 1
 500 450 l 1
 500 400 l 1
 300 400 l 1
 100 400 l 1
 100 350 l 1
 100 300 l 1
 300 300 l 1
 500 300 l 1
 500 250 l 1
 500 200 l 1
 300 200 l 1
 100 200 l 1
 100 150 l 1
 100 100 l 1
 300 100 l 1
 500 100 l 1
 500 50 l 1
 500 0 l 1
 400 0 l 1
 300 0 l 1
 300 -50 l 1
 300 -100 l 1
 250 -100 l 1
 200 -100 l 1
 200 -50 l 1
 200 0 l 1
 100 0 l 1
 0 0 l 1
 0 250 l 1
EndSplineSet
Validated: 513
EndChar

StartChar: U+011A
Encoding: 282 282 216
Width: 600
VWidth: -81
Flags: HW
LayerCount: 2
Back
Fore
SplineSet
0 350 m 1
 0 700 l 1
 100 700 l 1
 200 700 l 1
 200 650 l 1
 200 600 l 1
 250 600 l 1
 300 600 l 1
 300 650 l 1
 300 700 l 1
 400 700 l 1
 500 700 l 1
 500 600 l 1
 500 500 l 1
 300 500 l 1
 100 500 l 1
 100 400 l 1
 100 300 l 1
 300 300 l 1
 500 300 l 1
 500 250 l 1
 500 200 l 1
 300 200 l 1
 100 200 l 1
 100 150 l 1
 100 100 l 1
 300 100 l 1
 500 100 l 1
 500 50 l 1
 500 0 l 1
 250 0 l 1
 0 0 l 1
 0 350 l 1
EndSplineSet
Validated: 513
EndChar

StartChar: U+011B
Encoding: 283 283 217
Width: 600
VWidth: -81
Flags: HW
LayerCount: 2
Back
Fore
SplineSet
0 650 m 1
 0 700 l 1
 100 700 l 1
 200 700 l 1
 200 650 l 1
 200 600 l 1
 250 600 l 1
 300 600 l 1
 300 650 l 1
 300 700 l 1
 400 700 l 1
 500 700 l 1
 500 650 l 1
 500 600 l 1
 450 600 l 1
 400 600 l 1
 400 550 l 1
 400 500 l 1
 450 500 l 1
 500 500 l 1
 500 450 l 1
 500 400 l 1
 300 400 l 1
 100 400 l 1
 100 350 l 1
 100 300 l 1
 300 300 l 1
 500 300 l 1
 500 250 l 1
 500 200 l 1
 300 200 l 1
 100 200 l 1
 100 150 l 1
 100 100 l 1
 300 100 l 1
 500 100 l 1
 500 50 l 1
 500 0 l 1
 250 0 l 1
 0 0 l 1
 0 250 l 1
 0 500 l 1
 50 500 l 1
 100 500 l 1
 100 550 l 1
 100 600 l 1
 50 600 l 1
 0 600 l 1
 0 650 l 1
EndSplineSet
Validated: 513
EndChar

StartChar: U+011C
Encoding: 284 284 218
Width: 600
VWidth: -81
Flags: HW
LayerCount: 2
Back
Fore
SplineSet
100 650 m 1
 100 700 l 1
 250 700 l 1
 400 700 l 1
 400 650 l 1
 400 600 l 1
 450 600 l 1
 500 600 l 1
 500 550 l 1
 500 500 l 1
 300 500 l 1
 100 500 l 1
 100 300 l 1
 100 100 l 1
 250 100 l 1
 400 100 l 1
 400 150 l 1
 400 200 l 1
 300 200 l 1
 200 200 l 1
 200 250 l 1
 200 300 l 1
 350 300 l 1
 500 300 l 1
 500 150 l 1
 500 0 l 1
 250 0 l 1
 0 0 l 1
 0 300 l 1
 0 600 l 1
 50 600 l 1
 100 600 l 1
 100 650 l 1
EndSplineSet
Validated: 513
EndChar

StartChar: U+011D
Encoding: 285 285 219
Width: 600
VWidth: -81
Flags: HW
LayerCount: 2
Back
Fore
SplineSet
100 600 m 1
 100 700 l 1
 250 700 l 1
 400 700 l 1
 400 600 l 1
 400 500 l 1
 450 500 l 1
 500 500 l 1
 500 450 l 1
 500 400 l 1
 300 400 l 1
 100 400 l 1
 100 250 l 1
 100 100 l 1
 250 100 l 1
 400 100 l 1
 400 150 l 1
 400 200 l 1
 300 200 l 1
 200 200 l 1
 200 250 l 1
 200 300 l 1
 350 300 l 1
 500 300 l 1
 500 150 l 1
 500 0 l 1
 250 0 l 1
 0 0 l 1
 0 250 l 1
 0 500 l 1
 50 500 l 1
 100 500 l 1
 100 600 l 1
300 550 m 1
 300 600 l 1
 250 600 l 1
 200 600 l 1
 200 550 l 1
 200 500 l 1
 250 500 l 1
 300 500 l 1
 300 550 l 1
EndSplineSet
Validated: 513
EndChar

StartChar: U+011E
Encoding: 286 286 220
Width: 600
VWidth: -81
Flags: HW
LayerCount: 2
Back
Fore
SplineSet
100 650 m 1
 100 700 l 1
 150 700 l 1
 200 700 l 1
 200 650 l 1
 200 600 l 1
 250 600 l 1
 300 600 l 1
 300 650 l 1
 300 700 l 1
 350 700 l 1
 400 700 l 1
 400 650 l 1
 400 600 l 1
 450 600 l 1
 500 600 l 1
 500 550 l 1
 500 500 l 1
 300 500 l 1
 100 500 l 1
 100 300 l 1
 100 100 l 1
 250 100 l 1
 400 100 l 1
 400 150 l 1
 400 200 l 1
 300 200 l 1
 200 200 l 1
 200 250 l 1
 200 300 l 1
 350 300 l 1
 500 300 l 1
 500 150 l 1
 500 0 l 1
 250 0 l 1
 0 0 l 1
 0 300 l 1
 0 600 l 1
 50 600 l 1
 100 600 l 1
 100 650 l 1
EndSplineSet
Validated: 513
EndChar

StartChar: U+011F
Encoding: 287 287 221
Width: 600
VWidth: -81
Flags: HW
LayerCount: 2
Back
Fore
SplineSet
100 600 m 1
 100 700 l 1
 150 700 l 1
 200 700 l 1
 200 650 l 1
 200 600 l 1
 250 600 l 1
 300 600 l 1
 300 650 l 1
 300 700 l 1
 350 700 l 1
 400 700 l 1
 400 600 l 1
 400 500 l 1
 450 500 l 1
 500 500 l 1
 500 450 l 1
 500 400 l 1
 300 400 l 1
 100 400 l 1
 100 250 l 1
 100 100 l 1
 250 100 l 1
 400 100 l 1
 400 150 l 1
 400 200 l 1
 300 200 l 1
 200 200 l 1
 200 250 l 1
 200 300 l 1
 350 300 l 1
 500 300 l 1
 500 150 l 1
 500 0 l 1
 250 0 l 1
 0 0 l 1
 0 250 l 1
 0 500 l 1
 50 500 l 1
 100 500 l 1
 100 600 l 1
EndSplineSet
Validated: 513
EndChar

StartChar: U+0120
Encoding: 288 288 222
Width: 600
VWidth: -81
Flags: HW
LayerCount: 2
Back
Fore
SplineSet
200 650 m 1
 200 700 l 1
 250 700 l 1
 300 700 l 1
 300 650 l 1
 300 600 l 1
 400 600 l 1
 500 600 l 1
 500 550 l 1
 500 500 l 1
 300 500 l 1
 100 500 l 1
 100 300 l 1
 100 100 l 1
 250 100 l 1
 400 100 l 1
 400 150 l 1
 400 200 l 1
 300 200 l 1
 200 200 l 1
 200 250 l 1
 200 300 l 1
 350 300 l 1
 500 300 l 1
 500 150 l 1
 500 0 l 1
 250 0 l 1
 0 0 l 1
 0 300 l 1
 0 600 l 1
 100 600 l 1
 200 600 l 1
 200 650 l 1
EndSplineSet
Validated: 513
EndChar

StartChar: U+0121
Encoding: 289 289 223
Width: 600
VWidth: -81
Flags: HW
LayerCount: 2
Back
Fore
SplineSet
0 250 m 1
 0 500 l 1
 250 500 l 1
 500 500 l 1
 500 450 l 1
 500 400 l 1
 300 400 l 1
 100 400 l 1
 100 250 l 1
 100 100 l 1
 250 100 l 1
 400 100 l 1
 400 150 l 1
 400 200 l 1
 300 200 l 1
 200 200 l 1
 200 250 l 1
 200 300 l 1
 350 300 l 1
 500 300 l 1
 500 150 l 1
 500 0 l 1
 250 0 l 1
 0 0 l 1
 0 250 l 1
200 650 m 1
 200 700 l 1
 250 700 l 1
 300 700 l 1
 300 650 l 1
 300 600 l 1
 250 600 l 1
 200 600 l 1
 200 650 l 1
EndSplineSet
Validated: 513
EndChar

StartChar: U+0122
Encoding: 290 290 224
Width: 600
VWidth: -81
Flags: HW
LayerCount: 2
Back
Fore
SplineSet
0 300 m 1
 0 600 l 1
 250 600 l 1
 500 600 l 1
 500 550 l 1
 500 500 l 1
 300 500 l 1
 100 500 l 1
 100 300 l 1
 100 100 l 1
 250 100 l 1
 400 100 l 1
 400 150 l 1
 400 200 l 1
 300 200 l 1
 200 200 l 1
 200 250 l 1
 200 300 l 1
 350 300 l 1
 500 300 l 1
 500 150 l 1
 500 0 l 1
 400 0 l 1
 300 0 l 1
 300 -50 l 1
 300 -100 l 1
 250 -100 l 1
 200 -100 l 1
 200 -50 l 1
 200 0 l 1
 100 0 l 1
 0 0 l 1
 0 300 l 1
EndSplineSet
Validated: 513
EndChar

StartChar: U+0123
Encoding: 291 291 225
Width: 600
VWidth: -81
Flags: HW
LayerCount: 2
Back
Fore
SplineSet
0 250 m 1
 0 500 l 1
 250 500 l 1
 500 500 l 1
 500 450 l 1
 500 400 l 1
 300 400 l 1
 100 400 l 1
 100 250 l 1
 100 100 l 1
 250 100 l 1
 400 100 l 1
 400 150 l 1
 400 200 l 1
 300 200 l 1
 200 200 l 1
 200 250 l 1
 200 300 l 1
 350 300 l 1
 500 300 l 1
 500 150 l 1
 500 0 l 1
 250 0 l 1
 0 0 l 1
 0 250 l 1
300 650 m 1
 300 700 l 1
 400 700 l 1
 500 700 l 1
 500 650 l 1
 500 600 l 1
 400 600 l 1
 300 600 l 1
 300 650 l 1
EndSplineSet
Validated: 513
EndChar

StartChar: U+0124
Encoding: 292 292 226
Width: 600
VWidth: -81
Flags: HW
LayerCount: 2
Back
Fore
SplineSet
0 300 m 1
 0 600 l 1
 50 600 l 1
 100 600 l 1
 100 450 l 1
 100 300 l 1
 250 300 l 1
 400 300 l 1
 400 450 l 1
 400 600 l 1
 450 600 l 1
 500 600 l 1
 500 300 l 1
 500 0 l 1
 450 0 l 1
 400 0 l 1
 400 100 l 1
 400 200 l 1
 250 200 l 1
 100 200 l 1
 100 100 l 1
 100 0 l 1
 50 0 l 1
 0 0 l 1
 0 300 l 1
200 650 m 1
 200 700 l 1
 250 700 l 1
 300 700 l 1
 300 650 l 1
 300 600 l 1
 250 600 l 1
 200 600 l 1
 200 650 l 1
EndSplineSet
Validated: 513
EndChar

StartChar: U+0125
Encoding: 293 293 227
Width: 600
VWidth: -81
Flags: HW
LayerCount: 2
Back
Fore
SplineSet
0 250 m 1
 0 500 l 1
 50 500 l 1
 100 500 l 1
 100 400 l 1
 100 300 l 1
 250 300 l 1
 400 300 l 1
 400 400 l 1
 400 500 l 1
 450 500 l 1
 500 500 l 1
 500 250 l 1
 500 0 l 1
 450 0 l 1
 400 0 l 1
 400 100 l 1
 400 200 l 1
 250 200 l 1
 100 200 l 1
 100 100 l 1
 100 0 l 1
 50 0 l 1
 0 0 l 1
 0 250 l 1
100 650 m 1
 100 700 l 1
 250 700 l 1
 400 700 l 1
 400 650 l 1
 400 600 l 1
 250 600 l 1
 100 600 l 1
 100 650 l 1
EndSplineSet
Validated: 513
EndChar

StartChar: U+0126
Encoding: 294 294 228
Width: 600
VWidth: -81
Flags: HW
LayerCount: 2
Back
Fore
SplineSet
0 300 m 1
 0 600 l 1
 50 600 l 1
 100 600 l 1
 100 550 l 1
 100 500 l 1
 250 500 l 1
 400 500 l 1
 400 550 l 1
 400 600 l 1
 450 600 l 1
 500 600 l 1
 500 300 l 1
 500 0 l 1
 450 0 l 1
 400 0 l 1
 400 100 l 1
 400 200 l 1
 250 200 l 1
 100 200 l 1
 100 100 l 1
 100 0 l 1
 50 0 l 1
 0 0 l 1
 0 300 l 1
400 350 m 1
 400 400 l 1
 250 400 l 1
 100 400 l 1
 100 350 l 1
 100 300 l 1
 250 300 l 1
 400 300 l 1
 400 350 l 1
EndSplineSet
Validated: 513
EndChar

StartChar: U+0127
Encoding: 295 295 229
Width: 600
VWidth: -81
Flags: HW
LayerCount: 2
Back
Fore
SplineSet
0 250 m 1
 0 500 l 1
 50 500 l 1
 100 500 l 1
 100 450 l 1
 100 400 l 1
 250 400 l 1
 400 400 l 1
 400 450 l 1
 400 500 l 1
 450 500 l 1
 500 500 l 1
 500 250 l 1
 500 0 l 1
 450 0 l 1
 400 0 l 1
 400 50 l 1
 400 100 l 1
 250 100 l 1
 100 100 l 1
 100 50 l 1
 100 0 l 1
 50 0 l 1
 0 0 l 1
 0 250 l 1
400 250 m 1
 400 300 l 1
 250 300 l 1
 100 300 l 1
 100 250 l 1
 100 200 l 1
 250 200 l 1
 400 200 l 1
 400 250 l 1
EndSplineSet
Validated: 513
EndChar

StartChar: U+0128
Encoding: 296 296 230
Width: 600
VWidth: -81
Flags: HW
LayerCount: 2
Back
Fore
SplineSet
0 600 m 1
 0 700 l 1
 100 700 l 1
 200 700 l 1
 200 650 l 1
 200 600 l 1
 250 600 l 1
 300 600 l 1
 300 650 l 1
 300 700 l 1
 400 700 l 1
 500 700 l 1
 500 600 l 1
 500 500 l 1
 400 500 l 1
 300 500 l 1
 300 300 l 1
 300 100 l 1
 400 100 l 1
 500 100 l 1
 500 50 l 1
 500 0 l 1
 250 0 l 1
 0 0 l 1
 0 50 l 1
 0 100 l 1
 100 100 l 1
 200 100 l 1
 200 300 l 1
 200 500 l 1
 100 500 l 1
 0 500 l 1
 0 600 l 1
EndSplineSet
Validated: 513
EndChar

StartChar: U+0129
Encoding: 297 297 231
Width: 600
VWidth: -81
Flags: HW
LayerCount: 2
Back
Fore
SplineSet
0 450 m 1
 0 500 l 1
 250 500 l 1
 500 500 l 1
 500 450 l 1
 500 400 l 1
 400 400 l 1
 300 400 l 1
 300 250 l 1
 300 100 l 1
 400 100 l 1
 500 100 l 1
 500 50 l 1
 500 0 l 1
 250 0 l 1
 0 0 l 1
 0 50 l 1
 0 100 l 1
 100 100 l 1
 200 100 l 1
 200 250 l 1
 200 400 l 1
 100 400 l 1
 0 400 l 1
 0 450 l 1
300 650 m 1
 300 700 l 1
 400 700 l 1
 500 700 l 1
 500 650 l 1
 500 600 l 1
 400 600 l 1
 300 600 l 1
 300 650 l 1
0 650 m 1
 0 700 l 1
 100 700 l 1
 200 700 l 1
 200 650 l 1
 200 600 l 1
 100 600 l 1
 0 600 l 1
 0 650 l 1
EndSplineSet
Validated: 513
EndChar

StartChar: U+012A
Encoding: 298 298 232
Width: 600
VWidth: -81
Flags: HW
LayerCount: 2
Back
Fore
SplineSet
0 600 m 1
 0 700 l 1
 250 700 l 1
 500 700 l 1
 500 600 l 1
 500 500 l 1
 400 500 l 1
 300 500 l 1
 300 300 l 1
 300 100 l 1
 400 100 l 1
 500 100 l 1
 500 50 l 1
 500 0 l 1
 250 0 l 1
 0 0 l 1
 0 50 l 1
 0 100 l 1
 100 100 l 1
 200 100 l 1
 200 300 l 1
 200 500 l 1
 100 500 l 1
 0 500 l 1
 0 600 l 1
EndSplineSet
Validated: 513
EndChar

StartChar: U+012B
Encoding: 299 299 233
Width: 600
VWidth: -81
Flags: HW
LayerCount: 2
Back
Fore
SplineSet
0 450 m 1
 0 500 l 1
 250 500 l 1
 500 500 l 1
 500 450 l 1
 500 400 l 1
 400 400 l 1
 300 400 l 1
 300 250 l 1
 300 100 l 1
 400 100 l 1
 500 100 l 1
 500 50 l 1
 500 0 l 1
 250 0 l 1
 0 0 l 1
 0 50 l 1
 0 100 l 1
 100 100 l 1
 200 100 l 1
 200 250 l 1
 200 400 l 1
 100 400 l 1
 0 400 l 1
 0 450 l 1
0 650 m 1
 0 700 l 1
 250 700 l 1
 500 700 l 1
 500 650 l 1
 500 600 l 1
 250 600 l 1
 0 600 l 1
 0 650 l 1
EndSplineSet
Validated: 513
EndChar

StartChar: U+012C
Encoding: 300 300 234
Width: 600
VWidth: -81
Flags: HW
LayerCount: 2
Back
Fore
SplineSet
100 650 m 1
 100 700 l 1
 150 700 l 1
 200 700 l 1
 200 650 l 1
 200 600 l 1
 250 600 l 1
 300 600 l 1
 300 650 l 1
 300 700 l 1
 350 700 l 1
 400 700 l 1
 400 650 l 1
 400 600 l 1
 450 600 l 1
 500 600 l 1
 500 550 l 1
 500 500 l 1
 400 500 l 1
 300 500 l 1
 300 300 l 1
 300 100 l 1
 400 100 l 1
 500 100 l 1
 500 50 l 1
 500 0 l 1
 250 0 l 1
 0 0 l 1
 0 50 l 1
 0 100 l 1
 100 100 l 1
 200 100 l 1
 200 300 l 1
 200 500 l 1
 100 500 l 1
 0 500 l 1
 0 550 l 1
 0 600 l 1
 50 600 l 1
 100 600 l 1
 100 650 l 1
EndSplineSet
Validated: 513
EndChar

StartChar: U+012D
Encoding: 301 301 235
Width: 600
VWidth: -81
Flags: HW
LayerCount: 2
Back
Fore
SplineSet
100 600 m 1
 100 700 l 1
 150 700 l 1
 200 700 l 1
 200 650 l 1
 200 600 l 1
 250 600 l 1
 300 600 l 1
 300 650 l 1
 300 700 l 1
 350 700 l 1
 400 700 l 1
 400 600 l 1
 400 500 l 1
 450 500 l 1
 500 500 l 1
 500 450 l 1
 500 400 l 1
 400 400 l 1
 300 400 l 1
 300 250 l 1
 300 100 l 1
 400 100 l 1
 500 100 l 1
 500 50 l 1
 500 0 l 1
 250 0 l 1
 0 0 l 1
 0 50 l 1
 0 100 l 1
 100 100 l 1
 200 100 l 1
 200 250 l 1
 200 400 l 1
 100 400 l 1
 0 400 l 1
 0 450 l 1
 0 500 l 1
 50 500 l 1
 100 500 l 1
 100 600 l 1
EndSplineSet
Validated: 513
EndChar

StartChar: U+012E
Encoding: 302 302 236
Width: 600
VWidth: -81
Flags: HW
LayerCount: 2
Back
Fore
SplineSet
0 550 m 1
 0 600 l 1
 250 600 l 1
 500 600 l 1
 500 550 l 1
 500 500 l 1
 400 500 l 1
 300 500 l 1
 300 300 l 1
 300 100 l 1
 400 100 l 1
 500 100 l 1
 500 50 l 1
 500 0 l 1
 400 0 l 1
 300 0 l 1
 300 -50 l 1
 300 -100 l 1
 250 -100 l 1
 200 -100 l 1
 200 -50 l 1
 200 0 l 1
 100 0 l 1
 0 0 l 1
 0 50 l 1
 0 100 l 1
 100 100 l 1
 200 100 l 1
 200 300 l 1
 200 500 l 1
 100 500 l 1
 0 500 l 1
 0 550 l 1
EndSplineSet
Validated: 513
EndChar

StartChar: U+012F
Encoding: 303 303 237
Width: 600
VWidth: -81
Flags: HW
LayerCount: 2
Back
Fore
SplineSet
0 450 m 1
 0 500 l 1
 250 500 l 1
 500 500 l 1
 500 450 l 1
 500 400 l 1
 400 400 l 1
 300 400 l 1
 300 250 l 1
 300 100 l 1
 400 100 l 1
 500 100 l 1
 500 50 l 1
 500 0 l 1
 400 0 l 1
 300 0 l 1
 300 -50 l 1
 300 -100 l 1
 250 -100 l 1
 200 -100 l 1
 200 -50 l 1
 200 0 l 1
 100 0 l 1
 0 0 l 1
 0 50 l 1
 0 100 l 1
 100 100 l 1
 200 100 l 1
 200 250 l 1
 200 400 l 1
 100 400 l 1
 0 400 l 1
 0 450 l 1
EndSplineSet
Validated: 513
EndChar

StartChar: U+0130
Encoding: 304 304 238
Width: 600
VWidth: -81
Flags: HW
LayerCount: 2
Back
Fore
SplineSet
0 450 m 1
 0 500 l 1
 250 500 l 1
 500 500 l 1
 500 450 l 1
 500 400 l 1
 400 400 l 1
 300 400 l 1
 300 250 l 1
 300 100 l 1
 400 100 l 1
 500 100 l 1
 500 50 l 1
 500 0 l 1
 250 0 l 1
 0 0 l 1
 0 50 l 1
 0 100 l 1
 100 100 l 1
 200 100 l 1
 200 250 l 1
 200 400 l 1
 100 400 l 1
 0 400 l 1
 0 450 l 1
200 650 m 1
 200 700 l 1
 250 700 l 1
 300 700 l 1
 300 650 l 1
 300 600 l 1
 250 600 l 1
 200 600 l 1
 200 650 l 1
EndSplineSet
Validated: 513
EndChar

StartChar: U+0131
Encoding: 305 305 239
Width: 600
VWidth: -81
Flags: HW
LayerCount: 2
Back
Fore
SplineSet
200 300 m 1
 200 500 l 1
 250 500 l 1
 300 500 l 1
 300 300 l 1
 300 100 l 1
 400 100 l 1
 500 100 l 1
 500 50 l 1
 500 0 l 1
 250 0 l 1
 0 0 l 1
 0 50 l 1
 0 100 l 1
 100 100 l 1
 200 100 l 1
 200 300 l 1
EndSplineSet
Validated: 513
EndChar

StartChar: U+0132
Encoding: 306 306 240
Width: 600
VWidth: -81
Flags: HW
LayerCount: 2
Back
Fore
SplineSet
200 350 m 1
 200 600 l 1
 250 600 l 1
 300 600 l 1
 300 350 l 1
 300 100 l 1
 350 100 l 1
 400 100 l 1
 400 350 l 1
 400 600 l 1
 450 600 l 1
 500 600 l 1
 500 300 l 1
 500 0 l 1
 250 0 l 1
 0 0 l 1
 0 150 l 1
 0 300 l 1
 50 300 l 1
 100 300 l 1
 100 200 l 1
 100 100 l 1
 150 100 l 1
 200 100 l 1
 200 350 l 1
EndSplineSet
Validated: 513
EndChar

StartChar: U+0133
Encoding: 307 307 241
Width: 600
VWidth: -81
Flags: HW
LayerCount: 2
Back
Fore
SplineSet
200 300 m 1
 200 500 l 1
 250 500 l 1
 300 500 l 1
 300 300 l 1
 300 100 l 1
 350 100 l 1
 400 100 l 1
 400 300 l 1
 400 500 l 1
 450 500 l 1
 500 500 l 1
 500 250 l 1
 500 0 l 1
 250 0 l 1
 0 0 l 1
 0 150 l 1
 0 300 l 1
 50 300 l 1
 100 300 l 1
 100 200 l 1
 100 100 l 1
 150 100 l 1
 200 100 l 1
 200 300 l 1
EndSplineSet
Validated: 513
EndChar

StartChar: U+0134
Encoding: 308 308 242
Width: 600
VWidth: -81
Flags: HW
LayerCount: 2
Back
Fore
SplineSet
100 650 m 1
 100 700 l 1
 250 700 l 1
 400 700 l 1
 400 650 l 1
 400 600 l 1
 450 600 l 1
 500 600 l 1
 500 300 l 1
 500 0 l 1
 250 0 l 1
 0 0 l 1
 0 150 l 1
 0 300 l 1
 50 300 l 1
 100 300 l 1
 100 200 l 1
 100 100 l 1
 250 100 l 1
 400 100 l 1
 400 350 l 1
 400 600 l 1
 250 600 l 1
 100 600 l 1
 100 650 l 1
EndSplineSet
Validated: 517
EndChar

StartChar: U+0135
Encoding: 309 309 243
Width: 600
VWidth: -81
Flags: HW
LayerCount: 2
Back
Fore
SplineSet
400 300 m 1
 400 500 l 1
 450 500 l 1
 500 500 l 1
 500 250 l 1
 500 0 l 1
 250 0 l 1
 0 0 l 1
 0 150 l 1
 0 300 l 1
 50 300 l 1
 100 300 l 1
 100 200 l 1
 100 100 l 1
 250 100 l 1
 400 100 l 1
 400 300 l 1
100 650 m 1
 100 700 l 1
 250 700 l 1
 400 700 l 1
 400 650 l 1
 400 600 l 1
 250 600 l 1
 100 600 l 1
 100 650 l 1
EndSplineSet
Validated: 513
EndChar

StartChar: U+0136
Encoding: 310 310 244
Width: 600
VWidth: -81
Flags: HW
LayerCount: 2
Back
Fore
SplineSet
0 300 m 1
 0 600 l 1
 50 600 l 1
 100 600 l 1
 100 450 l 1
 100 300 l 1
 200 300 l 1
 300 300 l 1
 300 450 l 1
 300 600 l 1
 400 600 l 1
 500 600 l 1
 500 550 l 1
 500 500 l 1
 450 500 l 1
 400 500 l 1
 400 300 l 1
 400 100 l 1
 450 100 l 1
 500 100 l 1
 500 50 l 1
 500 0 l 1
 400 0 l 1
 300 0 l 1
 300 100 l 1
 300 200 l 1
 200 200 l 1
 100 200 l 1
 100 100 l 1
 100 0 l 1
 150 0 l 1
 200 0 l 1
 200 -50 l 1
 200 -100 l 1
 150 -100 l 1
 100 -100 l 1
 100 -50 l 1
 100 0 l 1
 50 0 l 1
 0 0 l 1
 0 300 l 1
EndSplineSet
Validated: 517
EndChar

StartChar: U+0137
Encoding: 311 311 245
Width: 600
VWidth: -81
Flags: HW
LayerCount: 2
Back
Fore
SplineSet
0 250 m 1
 0 500 l 1
 50 500 l 1
 100 500 l 1
 100 400 l 1
 100 300 l 1
 200 300 l 1
 300 300 l 1
 300 400 l 1
 300 500 l 1
 400 500 l 1
 500 500 l 1
 500 450 l 1
 500 400 l 1
 450 400 l 1
 400 400 l 1
 400 250 l 1
 400 100 l 1
 450 100 l 1
 500 100 l 1
 500 50 l 1
 500 0 l 1
 400 0 l 1
 300 0 l 1
 300 100 l 1
 300 200 l 1
 200 200 l 1
 100 200 l 1
 100 100 l 1
 100 0 l 1
 150 0 l 1
 200 0 l 1
 200 -50 l 1
 200 -100 l 1
 150 -100 l 1
 100 -100 l 1
 100 -50 l 1
 100 0 l 1
 50 0 l 1
 0 0 l 1
 0 250 l 1
EndSplineSet
Validated: 517
EndChar

StartChar: U+0138
Encoding: 312 312 246
Width: 600
VWidth: -81
Flags: HW
LayerCount: 2
Back
Fore
SplineSet
0 200 m 1
 0 400 l 1
 50 400 l 1
 100 400 l 1
 100 350 l 1
 100 300 l 1
 200 300 l 1
 300 300 l 1
 300 350 l 1
 300 400 l 1
 400 400 l 1
 500 400 l 1
 500 350 l 1
 500 300 l 1
 450 300 l 1
 400 300 l 1
 400 200 l 1
 400 100 l 1
 450 100 l 1
 500 100 l 1
 500 50 l 1
 500 0 l 1
 400 0 l 1
 300 0 l 1
 300 100 l 1
 300 200 l 1
 200 200 l 1
 100 200 l 1
 100 100 l 1
 100 0 l 1
 50 0 l 1
 0 0 l 1
 0 200 l 1
EndSplineSet
Validated: 513
EndChar

StartChar: U+0139
Encoding: 313 313 247
Width: 600
VWidth: -81
Flags: HW
LayerCount: 2
Back
Fore
SplineSet
100 650 m 1
 100 700 l 1
 250 700 l 1
 400 700 l 1
 400 650 l 1
 400 600 l 1
 250 600 l 1
 100 600 l 1
 100 350 l 1
 100 100 l 1
 300 100 l 1
 500 100 l 1
 500 50 l 1
 500 0 l 1
 250 0 l 1
 0 0 l 1
 0 300 l 1
 0 600 l 1
 50 600 l 1
 100 600 l 1
 100 650 l 1
EndSplineSet
Validated: 517
EndChar

StartChar: U+013A
Encoding: 314 314 248
Width: 600
VWidth: -81
Flags: HW
LayerCount: 2
Back
Fore
SplineSet
0 250 m 1
 0 500 l 1
 50 500 l 1
 100 500 l 1
 100 300 l 1
 100 100 l 1
 300 100 l 1
 500 100 l 1
 500 50 l 1
 500 0 l 1
 250 0 l 1
 0 0 l 1
 0 250 l 1
100 650 m 1
 100 700 l 1
 250 700 l 1
 400 700 l 1
 400 650 l 1
 400 600 l 1
 250 600 l 1
 100 600 l 1
 100 650 l 1
EndSplineSet
Validated: 513
EndChar

StartChar: U+013B
Encoding: 315 315 249
Width: 600
VWidth: -81
Flags: HW
LayerCount: 2
Back
Fore
SplineSet
0 300 m 1
 0 600 l 1
 50 600 l 1
 100 600 l 1
 100 350 l 1
 100 100 l 1
 300 100 l 1
 500 100 l 1
 500 50 l 1
 500 0 l 1
 400 0 l 1
 300 0 l 1
 300 -50 l 1
 300 -100 l 1
 250 -100 l 1
 200 -100 l 1
 200 -50 l 1
 200 0 l 1
 100 0 l 1
 0 0 l 1
 0 300 l 1
EndSplineSet
Validated: 513
EndChar

StartChar: U+013C
Encoding: 316 316 250
Width: 600
VWidth: -81
Flags: HW
LayerCount: 2
Back
Fore
SplineSet
0 250 m 1
 0 500 l 1
 50 500 l 1
 100 500 l 1
 100 300 l 1
 100 100 l 1
 300 100 l 1
 500 100 l 1
 500 50 l 1
 500 0 l 1
 400 0 l 1
 300 0 l 1
 300 -50 l 1
 300 -100 l 1
 250 -100 l 1
 200 -100 l 1
 200 -50 l 1
 200 0 l 1
 100 0 l 1
 0 0 l 1
 0 250 l 1
EndSplineSet
Validated: 513
EndChar

StartChar: U+013D
Encoding: 317 317 251
Width: 600
VWidth: -81
Flags: HW
LayerCount: 2
Back
Fore
SplineSet
0 300 m 1
 0 600 l 1
 50 600 l 1
 100 600 l 1
 100 350 l 1
 100 100 l 1
 300 100 l 1
 500 100 l 1
 500 50 l 1
 500 0 l 1
 250 0 l 1
 0 0 l 1
 0 300 l 1
300 650 m 1
 300 700 l 1
 400 700 l 1
 500 700 l 1
 500 650 l 1
 500 600 l 1
 400 600 l 1
 300 600 l 1
 300 650 l 1
EndSplineSet
Validated: 513
EndChar

StartChar: U+013E
Encoding: 318 318 252
Width: 600
VWidth: -81
Flags: HW
LayerCount: 2
Back
Fore
SplineSet
0 250 m 1
 0 500 l 1
 50 500 l 1
 100 500 l 1
 100 300 l 1
 100 100 l 1
 300 100 l 1
 500 100 l 1
 500 50 l 1
 500 0 l 1
 250 0 l 1
 0 0 l 1
 0 250 l 1
300 650 m 1
 300 700 l 1
 400 700 l 1
 500 700 l 1
 500 650 l 1
 500 600 l 1
 400 600 l 1
 300 600 l 1
 300 650 l 1
EndSplineSet
Validated: 513
EndChar

StartChar: U+013F
Encoding: 319 319 253
Width: 600
VWidth: -81
Flags: HW
LayerCount: 2
Back
Fore
SplineSet
200 250 m 1
 200 300 l 1
 250 300 l 1
 300 300 l 1
 300 250 l 1
 300 200 l 1
 250 200 l 1
 200 200 l 1
 200 250 l 1
0 300 m 1
 0 600 l 1
 50 600 l 1
 100 600 l 1
 100 350 l 1
 100 100 l 1
 300 100 l 1
 500 100 l 1
 500 50 l 1
 500 0 l 1
 250 0 l 1
 0 0 l 1
 0 300 l 1
EndSplineSet
Validated: 513
EndChar

StartChar: U+0140
Encoding: 320 320 254
Width: 600
VWidth: -81
Flags: HW
LayerCount: 2
Back
Fore
SplineSet
200 250 m 1
 200 300 l 1
 250 300 l 1
 300 300 l 1
 300 250 l 1
 300 200 l 1
 250 200 l 1
 200 200 l 1
 200 250 l 1
0 250 m 1
 0 500 l 1
 50 500 l 1
 100 500 l 1
 100 300 l 1
 100 100 l 1
 300 100 l 1
 500 100 l 1
 500 50 l 1
 500 0 l 1
 250 0 l 1
 0 0 l 1
 0 250 l 1
EndSplineSet
Validated: 513
EndChar

StartChar: U+0141
Encoding: 321 321 255
Width: 600
VWidth: -81
Flags: HW
LayerCount: 2
Back
Fore
SplineSet
0 300 m 1
 0 600 l 1
 50 600 l 1
 100 600 l 1
 100 450 l 1
 100 300 l 1
 150 300 l 1
 200 300 l 1
 200 250 l 1
 200 200 l 1
 150 200 l 1
 100 200 l 1
 100 150 l 1
 100 100 l 1
 300 100 l 1
 500 100 l 1
 500 50 l 1
 500 0 l 1
 250 0 l 1
 0 0 l 1
 0 300 l 1
EndSplineSet
Validated: 513
EndChar

StartChar: U+0142
Encoding: 322 322 256
Width: 600
VWidth: -81
Flags: HW
LayerCount: 2
Back
Fore
SplineSet
0 250 m 1
 0 500 l 1
 50 500 l 1
 100 500 l 1
 100 400 l 1
 100 300 l 1
 150 300 l 1
 200 300 l 1
 200 250 l 1
 200 200 l 1
 150 200 l 1
 100 200 l 1
 100 150 l 1
 100 100 l 1
 300 100 l 1
 500 100 l 1
 500 50 l 1
 500 0 l 1
 250 0 l 1
 0 0 l 1
 0 250 l 1
EndSplineSet
Validated: 513
EndChar

StartChar: U+0143
Encoding: 323 323 257
Width: 600
VWidth: -81
Flags: HW
LayerCount: 2
Back
Fore
SplineSet
300 650 m 1
 300 700 l 1
 400 700 l 1
 500 700 l 1
 500 350 l 1
 500 0 l 1
 350 0 l 1
 200 0 l 1
 200 250 l 1
 200 500 l 1
 150 500 l 1
 100 500 l 1
 100 250 l 1
 100 0 l 1
 50 0 l 1
 0 0 l 1
 0 300 l 1
 0 600 l 1
 150 600 l 1
 300 600 l 1
 300 650 l 1
400 350 m 1
 400 600 l 1
 350 600 l 1
 300 600 l 1
 300 350 l 1
 300 100 l 1
 350 100 l 1
 400 100 l 1
 400 350 l 1
EndSplineSet
Validated: 517
EndChar

StartChar: U+0144
Encoding: 324 324 258
Width: 600
VWidth: -81
Flags: HW
LayerCount: 2
Back
Fore
SplineSet
0 250 m 1
 0 500 l 1
 150 500 l 1
 300 500 l 1
 300 300 l 1
 300 100 l 1
 350 100 l 1
 400 100 l 1
 400 300 l 1
 400 500 l 1
 450 500 l 1
 500 500 l 1
 500 250 l 1
 500 0 l 1
 350 0 l 1
 200 0 l 1
 200 200 l 1
 200 400 l 1
 150 400 l 1
 100 400 l 1
 100 200 l 1
 100 0 l 1
 50 0 l 1
 0 0 l 1
 0 250 l 1
300 650 m 1
 300 700 l 1
 400 700 l 1
 500 700 l 1
 500 650 l 1
 500 600 l 1
 400 600 l 1
 300 600 l 1
 300 650 l 1
EndSplineSet
Validated: 513
EndChar

StartChar: U+0145
Encoding: 325 325 259
Width: 600
VWidth: -81
Flags: HW
LayerCount: 2
Back
Fore
SplineSet
0 300 m 1
 0 600 l 1
 150 600 l 1
 300 600 l 1
 300 350 l 1
 300 100 l 1
 350 100 l 1
 400 100 l 1
 400 350 l 1
 400 600 l 1
 450 600 l 1
 500 600 l 1
 500 300 l 1
 500 0 l 1
 400 0 l 1
 300 0 l 1
 300 -50 l 1
 300 -100 l 1
 250 -100 l 1
 200 -100 l 1
 200 200 l 1
 200 500 l 1
 150 500 l 1
 100 500 l 1
 100 250 l 1
 100 0 l 1
 50 0 l 1
 0 0 l 1
 0 300 l 1
EndSplineSet
Validated: 513
EndChar

StartChar: U+0146
Encoding: 326 326 260
Width: 600
VWidth: -81
Flags: HW
LayerCount: 2
Back
Fore
SplineSet
0 250 m 1
 0 500 l 1
 150 500 l 1
 300 500 l 1
 300 300 l 1
 300 100 l 1
 350 100 l 1
 400 100 l 1
 400 300 l 1
 400 500 l 1
 450 500 l 1
 500 500 l 1
 500 250 l 1
 500 0 l 1
 400 0 l 1
 300 0 l 1
 300 -50 l 1
 300 -100 l 1
 250 -100 l 1
 200 -100 l 1
 200 150 l 1
 200 400 l 1
 150 400 l 1
 100 400 l 1
 100 200 l 1
 100 0 l 1
 50 0 l 1
 0 0 l 1
 0 250 l 1
EndSplineSet
Validated: 513
EndChar

StartChar: U+0147
Encoding: 327 327 261
Width: 600
VWidth: -81
Flags: HW
LayerCount: 2
Back
Fore
SplineSet
100 650 m 1
 100 700 l 1
 150 700 l 1
 200 700 l 1
 200 650 l 1
 200 600 l 1
 250 600 l 1
 300 600 l 1
 300 650 l 1
 300 700 l 1
 350 700 l 1
 400 700 l 1
 400 650 l 1
 400 600 l 1
 450 600 l 1
 500 600 l 1
 500 300 l 1
 500 0 l 1
 350 0 l 1
 200 0 l 1
 200 250 l 1
 200 500 l 1
 150 500 l 1
 100 500 l 1
 100 250 l 1
 100 0 l 1
 50 0 l 1
 0 0 l 1
 0 300 l 1
 0 600 l 1
 50 600 l 1
 100 600 l 1
 100 650 l 1
400 300 m 1
 400 500 l 1
 350 500 l 1
 300 500 l 1
 300 300 l 1
 300 100 l 1
 350 100 l 1
 400 100 l 1
 400 300 l 1
EndSplineSet
Validated: 513
EndChar

StartChar: U+0148
Encoding: 328 328 262
Width: 600
VWidth: -81
Flags: HW
LayerCount: 2
Back
Fore
SplineSet
100 600 m 1
 100 700 l 1
 150 700 l 1
 200 700 l 1
 200 650 l 1
 200 600 l 1
 250 600 l 1
 300 600 l 1
 300 650 l 1
 300 700 l 1
 350 700 l 1
 400 700 l 1
 400 600 l 1
 400 500 l 1
 450 500 l 1
 500 500 l 1
 500 250 l 1
 500 0 l 1
 350 0 l 1
 200 0 l 1
 200 200 l 1
 200 400 l 1
 150 400 l 1
 100 400 l 1
 100 200 l 1
 100 0 l 1
 50 0 l 1
 0 0 l 1
 0 250 l 1
 0 500 l 1
 50 500 l 1
 100 500 l 1
 100 600 l 1
400 300 m 1
 400 500 l 1
 350 500 l 1
 300 500 l 1
 300 300 l 1
 300 100 l 1
 350 100 l 1
 400 100 l 1
 400 300 l 1
EndSplineSet
Validated: 517
EndChar

StartChar: U+0149
Encoding: 329 329 263
Width: 600
VWidth: -81
Flags: HW
LayerCount: 2
Back
Fore
SplineSet
0 250 m 1
 0 500 l 1
 150 500 l 1
 300 500 l 1
 300 300 l 1
 300 100 l 1
 350 100 l 1
 400 100 l 1
 400 300 l 1
 400 500 l 1
 450 500 l 1
 500 500 l 1
 500 250 l 1
 500 0 l 1
 350 0 l 1
 200 0 l 1
 200 200 l 1
 200 400 l 1
 150 400 l 1
 100 400 l 1
 100 200 l 1
 100 0 l 1
 50 0 l 1
 0 0 l 1
 0 250 l 1
0 650 m 1
 0 700 l 1
 50 700 l 1
 100 700 l 1
 100 650 l 1
 100 600 l 1
 50 600 l 1
 0 600 l 1
 0 650 l 1
EndSplineSet
Validated: 513
EndChar

StartChar: U+014A
Encoding: 330 330 264
Width: 600
VWidth: -81
Flags: HW
LayerCount: 2
Back
Fore
SplineSet
0 300 m 1
 0 600 l 1
 150 600 l 1
 300 600 l 1
 300 350 l 1
 300 100 l 1
 350 100 l 1
 400 100 l 1
 400 350 l 1
 400 600 l 1
 450 600 l 1
 500 600 l 1
 500 250 l 1
 500 -100 l 1
 450 -100 l 1
 400 -100 l 1
 400 -50 l 1
 400 0 l 1
 300 0 l 1
 200 0 l 1
 200 250 l 1
 200 500 l 1
 150 500 l 1
 100 500 l 1
 100 250 l 1
 100 0 l 1
 50 0 l 1
 0 0 l 1
 0 300 l 1
EndSplineSet
Validated: 513
EndChar

StartChar: U+014B
Encoding: 331 331 265
Width: 600
VWidth: -81
Flags: HW
LayerCount: 2
Back
Fore
SplineSet
0 250 m 1
 0 500 l 1
 150 500 l 1
 300 500 l 1
 300 300 l 1
 300 100 l 1
 350 100 l 1
 400 100 l 1
 400 300 l 1
 400 500 l 1
 450 500 l 1
 500 500 l 1
 500 200 l 1
 500 -100 l 1
 450 -100 l 1
 400 -100 l 1
 400 -50 l 1
 400 0 l 1
 300 0 l 1
 200 0 l 1
 200 200 l 1
 200 400 l 1
 150 400 l 1
 100 400 l 1
 100 200 l 1
 100 0 l 1
 50 0 l 1
 0 0 l 1
 0 250 l 1
EndSplineSet
Validated: 513
EndChar

StartChar: U+014C
Encoding: 332 332 266
Width: 600
VWidth: -81
Flags: HW
LayerCount: 2
Back
Fore
SplineSet
0 350 m 1
 0 700 l 1
 250 700 l 1
 500 700 l 1
 500 350 l 1
 500 0 l 1
 250 0 l 1
 0 0 l 1
 0 350 l 1
400 300 m 1
 400 500 l 1
 250 500 l 1
 100 500 l 1
 100 300 l 1
 100 100 l 1
 250 100 l 1
 400 100 l 1
 400 300 l 1
EndSplineSet
Validated: 513
EndChar

StartChar: U+014D
Encoding: 333 333 267
Width: 600
VWidth: -81
Flags: HW
LayerCount: 2
Back
Fore
SplineSet
0 250 m 1
 0 500 l 1
 250 500 l 1
 500 500 l 1
 500 250 l 1
 500 0 l 1
 250 0 l 1
 0 0 l 1
 0 250 l 1
400 250 m 1
 400 400 l 1
 250 400 l 1
 100 400 l 1
 100 250 l 1
 100 100 l 1
 250 100 l 1
 400 100 l 1
 400 250 l 1
0 650 m 1
 0 700 l 1
 250 700 l 1
 500 700 l 1
 500 650 l 1
 500 600 l 1
 250 600 l 1
 0 600 l 1
 0 650 l 1
EndSplineSet
Validated: 513
EndChar

StartChar: U+014E
Encoding: 334 334 268
Width: 600
VWidth: -81
Flags: HW
LayerCount: 2
Back
Fore
SplineSet
100 650 m 1
 100 700 l 1
 150 700 l 1
 200 700 l 1
 200 650 l 1
 200 600 l 1
 250 600 l 1
 300 600 l 1
 300 650 l 1
 300 700 l 1
 350 700 l 1
 400 700 l 1
 400 650 l 1
 400 600 l 1
 450 600 l 1
 500 600 l 1
 500 300 l 1
 500 0 l 1
 250 0 l 1
 0 0 l 1
 0 300 l 1
 0 600 l 1
 50 600 l 1
 100 600 l 1
 100 650 l 1
400 300 m 1
 400 500 l 1
 250 500 l 1
 100 500 l 1
 100 300 l 1
 100 100 l 1
 250 100 l 1
 400 100 l 1
 400 300 l 1
EndSplineSet
Validated: 513
EndChar

StartChar: U+014F
Encoding: 335 335 269
Width: 600
VWidth: -81
Flags: HW
LayerCount: 2
Back
Fore
SplineSet
100 600 m 1
 100 700 l 1
 150 700 l 1
 200 700 l 1
 200 650 l 1
 200 600 l 1
 250 600 l 1
 300 600 l 1
 300 650 l 1
 300 700 l 1
 350 700 l 1
 400 700 l 1
 400 600 l 1
 400 500 l 1
 450 500 l 1
 500 500 l 1
 500 250 l 1
 500 0 l 1
 250 0 l 1
 0 0 l 1
 0 250 l 1
 0 500 l 1
 50 500 l 1
 100 500 l 1
 100 600 l 1
400 250 m 1
 400 400 l 1
 250 400 l 1
 100 400 l 1
 100 250 l 1
 100 100 l 1
 250 100 l 1
 400 100 l 1
 400 250 l 1
EndSplineSet
Validated: 513
EndChar

StartChar: U+0150
Encoding: 336 336 270
Width: 600
VWidth: -81
Flags: HW
LayerCount: 2
Back
Fore
SplineSet
0 350 m 1
 0 700 l 1
 100 700 l 1
 200 700 l 1
 200 650 l 1
 200 600 l 1
 250 600 l 1
 300 600 l 1
 300 650 l 1
 300 700 l 1
 400 700 l 1
 500 700 l 1
 500 350 l 1
 500 0 l 1
 250 0 l 1
 0 0 l 1
 0 350 l 1
400 300 m 1
 400 500 l 1
 250 500 l 1
 100 500 l 1
 100 300 l 1
 100 100 l 1
 250 100 l 1
 400 100 l 1
 400 300 l 1
EndSplineSet
Validated: 513
EndChar

StartChar: U+0151
Encoding: 337 337 271
Width: 600
VWidth: -81
Flags: HW
LayerCount: 2
Back
Fore
SplineSet
0 250 m 1
 0 500 l 1
 250 500 l 1
 500 500 l 1
 500 250 l 1
 500 0 l 1
 250 0 l 1
 0 0 l 1
 0 250 l 1
400 250 m 1
 400 400 l 1
 250 400 l 1
 100 400 l 1
 100 250 l 1
 100 100 l 1
 250 100 l 1
 400 100 l 1
 400 250 l 1
300 650 m 1
 300 700 l 1
 400 700 l 1
 500 700 l 1
 500 650 l 1
 500 600 l 1
 400 600 l 1
 300 600 l 1
 300 650 l 1
0 650 m 1
 0 700 l 1
 100 700 l 1
 200 700 l 1
 200 650 l 1
 200 600 l 1
 100 600 l 1
 0 600 l 1
 0 650 l 1
EndSplineSet
Validated: 513
EndChar

StartChar: U+0152
Encoding: 338 338 272
Width: 600
VWidth: -81
Flags: HW
LayerCount: 2
Back
Fore
SplineSet
0 300 m 1
 0 600 l 1
 250 600 l 1
 500 600 l 1
 500 550 l 1
 500 500 l 1
 400 500 l 1
 300 500 l 1
 300 400 l 1
 300 300 l 1
 400 300 l 1
 500 300 l 1
 500 250 l 1
 500 200 l 1
 400 200 l 1
 300 200 l 1
 300 150 l 1
 300 100 l 1
 400 100 l 1
 500 100 l 1
 500 50 l 1
 500 0 l 1
 250 0 l 1
 0 0 l 1
 0 300 l 1
200 300 m 1
 200 500 l 1
 150 500 l 1
 100 500 l 1
 100 300 l 1
 100 100 l 1
 150 100 l 1
 200 100 l 1
 200 300 l 1
EndSplineSet
Validated: 513
EndChar

StartChar: U+0153
Encoding: 339 339 273
Width: 600
VWidth: -81
Flags: HW
LayerCount: 2
Back
Fore
SplineSet
0 250 m 1
 0 500 l 1
 250 500 l 1
 500 500 l 1
 500 450 l 1
 500 400 l 1
 400 400 l 1
 300 400 l 1
 300 350 l 1
 300 300 l 1
 400 300 l 1
 500 300 l 1
 500 250 l 1
 500 200 l 1
 400 200 l 1
 300 200 l 1
 300 150 l 1
 300 100 l 1
 400 100 l 1
 500 100 l 1
 500 50 l 1
 500 0 l 1
 250 0 l 1
 0 0 l 1
 0 250 l 1
200 250 m 1
 200 400 l 1
 150 400 l 1
 100 400 l 1
 100 250 l 1
 100 100 l 1
 150 100 l 1
 200 100 l 1
 200 250 l 1
EndSplineSet
Validated: 513
EndChar

StartChar: U+0154
Encoding: 340 340 274
Width: 600
VWidth: -81
Flags: HW
LayerCount: 2
Back
Fore
SplineSet
300 650 m 1
 300 700 l 1
 400 700 l 1
 500 700 l 1
 500 450 l 1
 500 200 l 1
 450 200 l 1
 400 200 l 1
 400 150 l 1
 400 100 l 1
 450 100 l 1
 500 100 l 1
 500 50 l 1
 500 0 l 1
 400 0 l 1
 300 0 l 1
 300 100 l 1
 300 200 l 1
 200 200 l 1
 100 200 l 1
 100 100 l 1
 100 0 l 1
 50 0 l 1
 0 0 l 1
 0 300 l 1
 0 600 l 1
 150 600 l 1
 300 600 l 1
 300 650 l 1
400 400 m 1
 400 500 l 1
 250 500 l 1
 100 500 l 1
 100 400 l 1
 100 300 l 1
 250 300 l 1
 400 300 l 1
 400 400 l 1
EndSplineSet
Validated: 513
EndChar

StartChar: U+0155
Encoding: 341 341 275
Width: 600
VWidth: -81
Flags: HW
LayerCount: 2
Back
Fore
SplineSet
0 250 m 1
 0 500 l 1
 250 500 l 1
 500 500 l 1
 500 350 l 1
 500 200 l 1
 450 200 l 1
 400 200 l 1
 400 150 l 1
 400 100 l 1
 450 100 l 1
 500 100 l 1
 500 50 l 1
 500 0 l 1
 400 0 l 1
 300 0 l 1
 300 100 l 1
 300 200 l 1
 200 200 l 1
 100 200 l 1
 100 100 l 1
 100 0 l 1
 50 0 l 1
 0 0 l 1
 0 250 l 1
400 350 m 1
 400 400 l 1
 250 400 l 1
 100 400 l 1
 100 350 l 1
 100 300 l 1
 250 300 l 1
 400 300 l 1
 400 350 l 1
300 650 m 1
 300 700 l 1
 400 700 l 1
 500 700 l 1
 500 650 l 1
 500 600 l 1
 400 600 l 1
 300 600 l 1
 300 650 l 1
EndSplineSet
Validated: 513
EndChar

StartChar: U+0156
Encoding: 342 342 276
Width: 600
VWidth: -81
Flags: HW
LayerCount: 2
Back
Fore
SplineSet
0 300 m 1
 0 600 l 1
 250 600 l 1
 500 600 l 1
 500 400 l 1
 500 200 l 1
 450 200 l 1
 400 200 l 1
 400 150 l 1
 400 100 l 1
 450 100 l 1
 500 100 l 1
 500 50 l 1
 500 0 l 1
 400 0 l 1
 300 0 l 1
 300 100 l 1
 300 200 l 1
 200 200 l 1
 100 200 l 1
 100 100 l 1
 100 0 l 1
 150 0 l 1
 200 0 l 1
 200 -50 l 1
 200 -100 l 1
 150 -100 l 1
 100 -100 l 1
 100 -50 l 1
 100 0 l 1
 50 0 l 1
 0 0 l 1
 0 300 l 1
400 400 m 1
 400 500 l 1
 250 500 l 1
 100 500 l 1
 100 400 l 1
 100 300 l 1
 250 300 l 1
 400 300 l 1
 400 400 l 1
EndSplineSet
Validated: 517
EndChar

StartChar: U+0157
Encoding: 343 343 277
Width: 600
VWidth: -81
Flags: HW
LayerCount: 2
Back
Fore
SplineSet
0 250 m 1
 0 500 l 1
 250 500 l 1
 500 500 l 1
 500 350 l 1
 500 200 l 1
 450 200 l 1
 400 200 l 1
 400 150 l 1
 400 100 l 1
 450 100 l 1
 500 100 l 1
 500 50 l 1
 500 0 l 1
 400 0 l 1
 300 0 l 1
 300 100 l 1
 300 200 l 1
 200 200 l 1
 100 200 l 1
 100 100 l 1
 100 0 l 1
 150 0 l 1
 200 0 l 1
 200 -50 l 1
 200 -100 l 1
 150 -100 l 1
 100 -100 l 1
 100 -50 l 1
 100 0 l 1
 50 0 l 1
 0 0 l 1
 0 250 l 1
400 350 m 1
 400 400 l 1
 250 400 l 1
 100 400 l 1
 100 350 l 1
 100 300 l 1
 250 300 l 1
 400 300 l 1
 400 350 l 1
EndSplineSet
Validated: 517
EndChar

StartChar: U+0158
Encoding: 344 344 278
Width: 600
VWidth: -81
Flags: HW
LayerCount: 2
Back
Fore
SplineSet
100 650 m 1
 100 700 l 1
 150 700 l 1
 200 700 l 1
 200 650 l 1
 200 600 l 1
 250 600 l 1
 300 600 l 1
 300 650 l 1
 300 700 l 1
 350 700 l 1
 400 700 l 1
 400 650 l 1
 400 600 l 1
 450 600 l 1
 500 600 l 1
 500 400 l 1
 500 200 l 1
 450 200 l 1
 400 200 l 1
 400 150 l 1
 400 100 l 1
 450 100 l 1
 500 100 l 1
 500 50 l 1
 500 0 l 1
 400 0 l 1
 300 0 l 1
 300 100 l 1
 300 200 l 1
 200 200 l 1
 100 200 l 1
 100 100 l 1
 100 0 l 1
 50 0 l 1
 0 0 l 1
 0 300 l 1
 0 600 l 1
 50 600 l 1
 100 600 l 1
 100 650 l 1
400 400 m 1
 400 500 l 1
 250 500 l 1
 100 500 l 1
 100 400 l 1
 100 300 l 1
 250 300 l 1
 400 300 l 1
 400 400 l 1
EndSplineSet
Validated: 513
EndChar

StartChar: U+0159
Encoding: 345 345 279
Width: 600
VWidth: -81
Flags: HW
LayerCount: 2
Back
Fore
SplineSet
100 600 m 1
 100 700 l 1
 150 700 l 1
 200 700 l 1
 200 650 l 1
 200 600 l 1
 250 600 l 1
 300 600 l 1
 300 650 l 1
 300 700 l 1
 350 700 l 1
 400 700 l 1
 400 600 l 1
 400 500 l 1
 450 500 l 1
 500 500 l 1
 500 350 l 1
 500 200 l 1
 450 200 l 1
 400 200 l 1
 400 150 l 1
 400 100 l 1
 450 100 l 1
 500 100 l 1
 500 50 l 1
 500 0 l 1
 400 0 l 1
 300 0 l 1
 300 100 l 1
 300 200 l 1
 200 200 l 1
 100 200 l 1
 100 100 l 1
 100 0 l 1
 50 0 l 1
 0 0 l 1
 0 250 l 1
 0 500 l 1
 50 500 l 1
 100 500 l 1
 100 600 l 1
400 350 m 1
 400 400 l 1
 250 400 l 1
 100 400 l 1
 100 350 l 1
 100 300 l 1
 250 300 l 1
 400 300 l 1
 400 350 l 1
EndSplineSet
Validated: 513
EndChar

StartChar: U+015A
Encoding: 346 346 280
Width: 600
VWidth: -81
Flags: HW
LayerCount: 2
Back
Fore
SplineSet
300 650 m 1
 300 700 l 1
 400 700 l 1
 500 700 l 1
 500 600 l 1
 500 500 l 1
 300 500 l 1
 100 500 l 1
 100 400 l 1
 100 300 l 1
 300 300 l 1
 500 300 l 1
 500 150 l 1
 500 0 l 1
 250 0 l 1
 0 0 l 1
 0 50 l 1
 0 100 l 1
 200 100 l 1
 400 100 l 1
 400 150 l 1
 400 200 l 1
 200 200 l 1
 0 200 l 1
 0 400 l 1
 0 600 l 1
 150 600 l 1
 300 600 l 1
 300 650 l 1
EndSplineSet
Validated: 513
EndChar

StartChar: U+015B
Encoding: 347 347 281
Width: 600
VWidth: -81
Flags: HW
LayerCount: 2
Back
Fore
SplineSet
0 350 m 1
 0 500 l 1
 250 500 l 1
 500 500 l 1
 500 450 l 1
 500 400 l 1
 300 400 l 1
 100 400 l 1
 100 350 l 1
 100 300 l 1
 300 300 l 1
 500 300 l 1
 500 150 l 1
 500 0 l 1
 250 0 l 1
 0 0 l 1
 0 50 l 1
 0 100 l 1
 200 100 l 1
 400 100 l 1
 400 150 l 1
 400 200 l 1
 200 200 l 1
 0 200 l 1
 0 350 l 1
300 650 m 1
 300 700 l 1
 400 700 l 1
 500 700 l 1
 500 650 l 1
 500 600 l 1
 400 600 l 1
 300 600 l 1
 300 650 l 1
EndSplineSet
Validated: 513
EndChar

StartChar: U+015C
Encoding: 348 348 282
Width: 600
VWidth: -81
Flags: HW
LayerCount: 2
Back
Fore
SplineSet
100 650 m 1
 100 700 l 1
 250 700 l 1
 400 700 l 1
 400 650 l 1
 400 600 l 1
 450 600 l 1
 500 600 l 1
 500 550 l 1
 500 500 l 1
 300 500 l 1
 100 500 l 1
 100 400 l 1
 100 300 l 1
 300 300 l 1
 500 300 l 1
 500 150 l 1
 500 0 l 1
 250 0 l 1
 0 0 l 1
 0 50 l 1
 0 100 l 1
 200 100 l 1
 400 100 l 1
 400 150 l 1
 400 200 l 1
 200 200 l 1
 0 200 l 1
 0 400 l 1
 0 600 l 1
 50 600 l 1
 100 600 l 1
 100 650 l 1
EndSplineSet
Validated: 513
EndChar

StartChar: U+015D
Encoding: 349 349 283
Width: 600
VWidth: -81
Flags: HW
LayerCount: 2
Back
Fore
SplineSet
100 600 m 1
 100 700 l 1
 250 700 l 1
 400 700 l 1
 400 600 l 1
 400 500 l 1
 450 500 l 1
 500 500 l 1
 500 450 l 1
 500 400 l 1
 300 400 l 1
 100 400 l 1
 100 350 l 1
 100 300 l 1
 300 300 l 1
 500 300 l 1
 500 150 l 1
 500 0 l 1
 250 0 l 1
 0 0 l 1
 0 50 l 1
 0 100 l 1
 200 100 l 1
 400 100 l 1
 400 150 l 1
 400 200 l 1
 200 200 l 1
 0 200 l 1
 0 350 l 1
 0 500 l 1
 50 500 l 1
 100 500 l 1
 100 600 l 1
300 550 m 1
 300 600 l 1
 250 600 l 1
 200 600 l 1
 200 550 l 1
 200 500 l 1
 250 500 l 1
 300 500 l 1
 300 550 l 1
EndSplineSet
Validated: 513
EndChar

StartChar: U+015E
Encoding: 350 350 284
Width: 600
VWidth: -81
Flags: HW
LayerCount: 2
Back
Fore
SplineSet
0 400 m 1
 0 600 l 1
 250 600 l 1
 500 600 l 1
 500 550 l 1
 500 500 l 1
 300 500 l 1
 100 500 l 1
 100 400 l 1
 100 300 l 1
 300 300 l 1
 500 300 l 1
 500 150 l 1
 500 0 l 1
 400 0 l 1
 300 0 l 1
 300 -50 l 1
 300 -100 l 1
 250 -100 l 1
 200 -100 l 1
 200 -50 l 1
 200 0 l 1
 100 0 l 1
 0 0 l 1
 0 50 l 1
 0 100 l 1
 200 100 l 1
 400 100 l 1
 400 150 l 1
 400 200 l 1
 200 200 l 1
 0 200 l 1
 0 400 l 1
EndSplineSet
Validated: 513
EndChar

StartChar: U+015F
Encoding: 351 351 285
Width: 600
VWidth: -81
Flags: HW
LayerCount: 2
Back
Fore
SplineSet
0 350 m 1
 0 500 l 1
 250 500 l 1
 500 500 l 1
 500 450 l 1
 500 400 l 1
 300 400 l 1
 100 400 l 1
 100 350 l 1
 100 300 l 1
 300 300 l 1
 500 300 l 1
 500 150 l 1
 500 0 l 1
 400 0 l 1
 300 0 l 1
 300 -50 l 1
 300 -100 l 1
 250 -100 l 1
 200 -100 l 1
 200 -50 l 1
 200 0 l 1
 100 0 l 1
 0 0 l 1
 0 50 l 1
 0 100 l 1
 200 100 l 1
 400 100 l 1
 400 150 l 1
 400 200 l 1
 200 200 l 1
 0 200 l 1
 0 350 l 1
EndSplineSet
Validated: 513
EndChar

StartChar: U+0160
Encoding: 352 352 286
Width: 600
VWidth: -81
Flags: HW
LayerCount: 2
Back
Fore
SplineSet
100 650 m 1
 100 700 l 1
 150 700 l 1
 200 700 l 1
 200 650 l 1
 200 600 l 1
 250 600 l 1
 300 600 l 1
 300 650 l 1
 300 700 l 1
 350 700 l 1
 400 700 l 1
 400 650 l 1
 400 600 l 1
 450 600 l 1
 500 600 l 1
 500 550 l 1
 500 500 l 1
 300 500 l 1
 100 500 l 1
 100 400 l 1
 100 300 l 1
 300 300 l 1
 500 300 l 1
 500 150 l 1
 500 0 l 1
 250 0 l 1
 0 0 l 1
 0 50 l 1
 0 100 l 1
 200 100 l 1
 400 100 l 1
 400 150 l 1
 400 200 l 1
 200 200 l 1
 0 200 l 1
 0 400 l 1
 0 600 l 1
 50 600 l 1
 100 600 l 1
 100 650 l 1
EndSplineSet
Validated: 513
EndChar

StartChar: U+0161
Encoding: 353 353 287
Width: 600
VWidth: -81
Flags: HW
LayerCount: 2
Back
Fore
SplineSet
100 600 m 1
 100 700 l 1
 150 700 l 1
 200 700 l 1
 200 650 l 1
 200 600 l 1
 250 600 l 1
 300 600 l 1
 300 650 l 1
 300 700 l 1
 350 700 l 1
 400 700 l 1
 400 600 l 1
 400 500 l 1
 450 500 l 1
 500 500 l 1
 500 450 l 1
 500 400 l 1
 300 400 l 1
 100 400 l 1
 100 350 l 1
 100 300 l 1
 300 300 l 1
 500 300 l 1
 500 150 l 1
 500 0 l 1
 250 0 l 1
 0 0 l 1
 0 50 l 1
 0 100 l 1
 200 100 l 1
 400 100 l 1
 400 150 l 1
 400 200 l 1
 200 200 l 1
 0 200 l 1
 0 350 l 1
 0 500 l 1
 50 500 l 1
 100 500 l 1
 100 600 l 1
EndSplineSet
Validated: 513
EndChar

StartChar: U+0162
Encoding: 354 354 288
Width: 600
VWidth: -81
Flags: HW
LayerCount: 2
Back
Fore
SplineSet
0 550 m 1
 0 600 l 1
 250 600 l 1
 500 600 l 1
 500 550 l 1
 500 500 l 1
 400 500 l 1
 300 500 l 1
 300 200 l 1
 300 -100 l 1
 200 -100 l 1
 100 -100 l 1
 100 -50 l 1
 100 0 l 1
 150 0 l 1
 200 0 l 1
 200 250 l 1
 200 500 l 1
 100 500 l 1
 0 500 l 1
 0 550 l 1
EndSplineSet
Validated: 513
EndChar

StartChar: U+0163
Encoding: 355 355 289
Width: 600
VWidth: -81
Flags: HW
LayerCount: 2
Back
Fore
SplineSet
0 450 m 1
 0 500 l 1
 250 500 l 1
 500 500 l 1
 500 450 l 1
 500 400 l 1
 400 400 l 1
 300 400 l 1
 300 150 l 1
 300 -100 l 1
 200 -100 l 1
 100 -100 l 1
 100 -50 l 1
 100 0 l 1
 150 0 l 1
 200 0 l 1
 200 200 l 1
 200 400 l 1
 100 400 l 1
 0 400 l 1
 0 450 l 1
EndSplineSet
Validated: 513
EndChar

StartChar: U+0164
Encoding: 356 356 290
Width: 600
VWidth: -81
Flags: HW
LayerCount: 2
Back
Fore
SplineSet
100 650 m 1
 100 700 l 1
 150 700 l 1
 200 700 l 1
 200 650 l 1
 200 600 l 1
 250 600 l 1
 300 600 l 1
 300 650 l 1
 300 700 l 1
 350 700 l 1
 400 700 l 1
 400 650 l 1
 400 600 l 1
 450 600 l 1
 500 600 l 1
 500 550 l 1
 500 500 l 1
 400 500 l 1
 300 500 l 1
 300 250 l 1
 300 0 l 1
 250 0 l 1
 200 0 l 1
 200 250 l 1
 200 500 l 1
 100 500 l 1
 0 500 l 1
 0 550 l 1
 0 600 l 1
 50 600 l 1
 100 600 l 1
 100 650 l 1
EndSplineSet
Validated: 513
EndChar

StartChar: U+0165
Encoding: 357 357 291
Width: 600
VWidth: -81
Flags: HW
LayerCount: 2
Back
Fore
SplineSet
0 450 m 1
 0 500 l 1
 250 500 l 1
 500 500 l 1
 500 450 l 1
 500 400 l 1
 400 400 l 1
 300 400 l 1
 300 200 l 1
 300 0 l 1
 250 0 l 1
 200 0 l 1
 200 200 l 1
 200 400 l 1
 100 400 l 1
 0 400 l 1
 0 450 l 1
300 650 m 1
 300 700 l 1
 400 700 l 1
 500 700 l 1
 500 650 l 1
 500 600 l 1
 400 600 l 1
 300 600 l 1
 300 650 l 1
EndSplineSet
Validated: 513
EndChar

StartChar: U+0166
Encoding: 358 358 292
Width: 600
VWidth: -81
Flags: HW
LayerCount: 2
Back
Fore
SplineSet
0 550 m 1
 0 600 l 1
 250 600 l 1
 500 600 l 1
 500 550 l 1
 500 500 l 1
 400 500 l 1
 300 500 l 1
 300 400 l 1
 300 300 l 1
 350 300 l 1
 400 300 l 1
 400 250 l 1
 400 200 l 1
 350 200 l 1
 300 200 l 1
 300 100 l 1
 300 0 l 1
 250 0 l 1
 200 0 l 1
 200 100 l 1
 200 200 l 1
 150 200 l 1
 100 200 l 1
 100 250 l 1
 100 300 l 1
 150 300 l 1
 200 300 l 1
 200 400 l 1
 200 500 l 1
 100 500 l 1
 0 500 l 1
 0 550 l 1
EndSplineSet
Validated: 513
EndChar

StartChar: U+0167
Encoding: 359 359 293
Width: 600
VWidth: -81
Flags: HW
LayerCount: 2
Back
Fore
SplineSet
0 450 m 1
 0 500 l 1
 250 500 l 1
 500 500 l 1
 500 450 l 1
 500 400 l 1
 400 400 l 1
 300 400 l 1
 300 350 l 1
 300 300 l 1
 350 300 l 1
 400 300 l 1
 400 250 l 1
 400 200 l 1
 350 200 l 1
 300 200 l 1
 300 100 l 1
 300 0 l 1
 250 0 l 1
 200 0 l 1
 200 100 l 1
 200 200 l 1
 150 200 l 1
 100 200 l 1
 100 250 l 1
 100 300 l 1
 150 300 l 1
 200 300 l 1
 200 350 l 1
 200 400 l 1
 100 400 l 1
 0 400 l 1
 0 450 l 1
EndSplineSet
Validated: 513
EndChar

StartChar: U+0168
Encoding: 360 360 294
Width: 600
VWidth: -81
Flags: HW
LayerCount: 2
Back
Fore
SplineSet
0 350 m 1
 0 700 l 1
 100 700 l 1
 200 700 l 1
 200 650 l 1
 200 600 l 1
 150 600 l 1
 100 600 l 1
 100 350 l 1
 100 100 l 1
 250 100 l 1
 400 100 l 1
 400 350 l 1
 400 600 l 1
 350 600 l 1
 300 600 l 1
 300 650 l 1
 300 700 l 1
 400 700 l 1
 500 700 l 1
 500 350 l 1
 500 0 l 1
 250 0 l 1
 0 0 l 1
 0 350 l 1
EndSplineSet
Validated: 513
EndChar

StartChar: U+0169
Encoding: 361 361 295
Width: 600
VWidth: -81
Flags: HW
LayerCount: 2
Back
Fore
SplineSet
0 250 m 1
 0 500 l 1
 50 500 l 1
 100 500 l 1
 100 300 l 1
 100 100 l 1
 250 100 l 1
 400 100 l 1
 400 300 l 1
 400 500 l 1
 450 500 l 1
 500 500 l 1
 500 250 l 1
 500 0 l 1
 250 0 l 1
 0 0 l 1
 0 250 l 1
300 650 m 1
 300 700 l 1
 400 700 l 1
 500 700 l 1
 500 650 l 1
 500 600 l 1
 400 600 l 1
 300 600 l 1
 300 650 l 1
0 650 m 1
 0 700 l 1
 100 700 l 1
 200 700 l 1
 200 650 l 1
 200 600 l 1
 100 600 l 1
 0 600 l 1
 0 650 l 1
EndSplineSet
Validated: 513
EndChar

StartChar: U+016A
Encoding: 362 362 296
Width: 600
VWidth: -81
Flags: HW
LayerCount: 2
Back
Fore
SplineSet
100 650 m 1
 100 700 l 1
 250 700 l 1
 400 700 l 1
 400 650 l 1
 400 600 l 1
 450 600 l 1
 500 600 l 1
 500 300 l 1
 500 0 l 1
 250 0 l 1
 0 0 l 1
 0 300 l 1
 0 600 l 1
 50 600 l 1
 100 600 l 1
 100 650 l 1
400 350 m 1
 400 600 l 1
 250 600 l 1
 100 600 l 1
 100 350 l 1
 100 100 l 1
 250 100 l 1
 400 100 l 1
 400 350 l 1
EndSplineSet
Validated: 517
EndChar

StartChar: U+016B
Encoding: 363 363 297
Width: 600
VWidth: -81
Flags: HW
LayerCount: 2
Back
Fore
SplineSet
0 250 m 1
 0 500 l 1
 50 500 l 1
 100 500 l 1
 100 300 l 1
 100 100 l 1
 250 100 l 1
 400 100 l 1
 400 300 l 1
 400 500 l 1
 450 500 l 1
 500 500 l 1
 500 250 l 1
 500 0 l 1
 250 0 l 1
 0 0 l 1
 0 250 l 1
0 650 m 1
 0 700 l 1
 250 700 l 1
 500 700 l 1
 500 650 l 1
 500 600 l 1
 250 600 l 1
 0 600 l 1
 0 650 l 1
EndSplineSet
Validated: 513
EndChar

StartChar: U+016C
Encoding: 364 364 298
Width: 600
VWidth: -81
Flags: HW
LayerCount: 2
Back
Fore
SplineSet
100 600 m 1
 100 700 l 1
 150 700 l 1
 200 700 l 1
 200 650 l 1
 200 600 l 1
 250 600 l 1
 300 600 l 1
 300 650 l 1
 300 700 l 1
 350 700 l 1
 400 700 l 1
 400 600 l 1
 400 500 l 1
 450 500 l 1
 500 500 l 1
 500 250 l 1
 500 0 l 1
 250 0 l 1
 0 0 l 1
 0 250 l 1
 0 500 l 1
 50 500 l 1
 100 500 l 1
 100 600 l 1
400 300 m 1
 400 500 l 1
 250 500 l 1
 100 500 l 1
 100 300 l 1
 100 100 l 1
 250 100 l 1
 400 100 l 1
 400 300 l 1
EndSplineSet
Validated: 517
EndChar

StartChar: U+016D
Encoding: 365 365 299
Width: 600
VWidth: -81
Flags: HW
LayerCount: 2
Back
Fore
SplineSet
100 600 m 1
 100 700 l 1
 150 700 l 1
 200 700 l 1
 200 650 l 1
 200 600 l 1
 250 600 l 1
 300 600 l 1
 300 650 l 1
 300 700 l 1
 350 700 l 1
 400 700 l 1
 400 600 l 1
 400 500 l 1
 450 500 l 1
 500 500 l 1
 500 250 l 1
 500 0 l 1
 250 0 l 1
 0 0 l 1
 0 250 l 1
 0 500 l 1
 50 500 l 1
 100 500 l 1
 100 600 l 1
400 300 m 1
 400 500 l 1
 250 500 l 1
 100 500 l 1
 100 300 l 1
 100 100 l 1
 250 100 l 1
 400 100 l 1
 400 300 l 1
EndSplineSet
Validated: 517
EndChar

StartChar: U+016E
Encoding: 366 366 300
Width: 600
VWidth: -81
Flags: HW
LayerCount: 2
Back
Fore
SplineSet
0 300 m 1
 0 600 l 1
 50 600 l 1
 100 600 l 1
 100 350 l 1
 100 100 l 1
 250 100 l 1
 400 100 l 1
 400 350 l 1
 400 600 l 1
 450 600 l 1
 500 600 l 1
 500 300 l 1
 500 0 l 1
 250 0 l 1
 0 0 l 1
 0 300 l 1
200 650 m 1
 200 700 l 1
 250 700 l 1
 300 700 l 1
 300 650 l 1
 300 600 l 1
 250 600 l 1
 200 600 l 1
 200 650 l 1
EndSplineSet
Validated: 513
EndChar

StartChar: U+016F
Encoding: 367 367 301
Width: 600
VWidth: -81
Flags: HW
LayerCount: 2
Back
Fore
SplineSet
0 250 m 1
 0 500 l 1
 50 500 l 1
 100 500 l 1
 100 300 l 1
 100 100 l 1
 250 100 l 1
 400 100 l 1
 400 300 l 1
 400 500 l 1
 450 500 l 1
 500 500 l 1
 500 250 l 1
 500 0 l 1
 250 0 l 1
 0 0 l 1
 0 250 l 1
200 650 m 1
 200 700 l 1
 250 700 l 1
 300 700 l 1
 300 650 l 1
 300 600 l 1
 250 600 l 1
 200 600 l 1
 200 650 l 1
EndSplineSet
Validated: 513
EndChar

StartChar: U+0170
Encoding: 368 368 302
Width: 600
VWidth: -81
Flags: HW
LayerCount: 2
Back
Fore
SplineSet
0 350 m 1
 0 700 l 1
 100 700 l 1
 200 700 l 1
 200 650 l 1
 200 600 l 1
 150 600 l 1
 100 600 l 1
 100 350 l 1
 100 100 l 1
 250 100 l 1
 400 100 l 1
 400 350 l 1
 400 600 l 1
 350 600 l 1
 300 600 l 1
 300 650 l 1
 300 700 l 1
 400 700 l 1
 500 700 l 1
 500 350 l 1
 500 0 l 1
 250 0 l 1
 0 0 l 1
 0 350 l 1
EndSplineSet
Validated: 513
EndChar

StartChar: U+0171
Encoding: 369 369 303
Width: 600
VWidth: -81
Flags: HW
LayerCount: 2
Back
Fore
SplineSet
0 250 m 1
 0 500 l 1
 50 500 l 1
 100 500 l 1
 100 300 l 1
 100 100 l 1
 250 100 l 1
 400 100 l 1
 400 300 l 1
 400 500 l 1
 450 500 l 1
 500 500 l 1
 500 250 l 1
 500 0 l 1
 250 0 l 1
 0 0 l 1
 0 250 l 1
300 650 m 1
 300 700 l 1
 400 700 l 1
 500 700 l 1
 500 650 l 1
 500 600 l 1
 400 600 l 1
 300 600 l 1
 300 650 l 1
0 650 m 1
 0 700 l 1
 100 700 l 1
 200 700 l 1
 200 650 l 1
 200 600 l 1
 100 600 l 1
 0 600 l 1
 0 650 l 1
EndSplineSet
Validated: 513
EndChar

StartChar: U+0172
Encoding: 370 370 304
Width: 600
VWidth: -81
Flags: HW
LayerCount: 2
Back
Fore
SplineSet
0 300 m 1
 0 600 l 1
 50 600 l 1
 100 600 l 1
 100 350 l 1
 100 100 l 1
 250 100 l 1
 400 100 l 1
 400 350 l 1
 400 600 l 1
 450 600 l 1
 500 600 l 1
 500 300 l 1
 500 0 l 1
 400 0 l 1
 300 0 l 1
 300 -50 l 1
 300 -100 l 1
 250 -100 l 1
 200 -100 l 1
 200 -50 l 1
 200 0 l 1
 100 0 l 1
 0 0 l 1
 0 300 l 1
EndSplineSet
Validated: 513
EndChar

StartChar: U+0173
Encoding: 371 371 305
Width: 600
VWidth: -81
Flags: HW
LayerCount: 2
Back
Fore
SplineSet
0 250 m 1
 0 500 l 1
 50 500 l 1
 100 500 l 1
 100 300 l 1
 100 100 l 1
 250 100 l 1
 400 100 l 1
 400 300 l 1
 400 500 l 1
 450 500 l 1
 500 500 l 1
 500 250 l 1
 500 0 l 1
 400 0 l 1
 300 0 l 1
 300 -50 l 1
 300 -100 l 1
 250 -100 l 1
 200 -100 l 1
 200 -50 l 1
 200 0 l 1
 100 0 l 1
 0 0 l 1
 0 250 l 1
EndSplineSet
Validated: 513
EndChar

StartChar: U+0174
Encoding: 372 372 306
Width: 600
VWidth: -81
Flags: HW
LayerCount: 2
Back
Fore
SplineSet
100 650 m 1
 100 700 l 1
 250 700 l 1
 400 700 l 1
 400 650 l 1
 400 600 l 1
 450 600 l 1
 500 600 l 1
 500 300 l 1
 500 0 l 1
 250 0 l 1
 0 0 l 1
 0 300 l 1
 0 600 l 1
 50 600 l 1
 100 600 l 1
 100 650 l 1
400 350 m 1
 400 600 l 1
 250 600 l 1
 100 600 l 1
 100 350 l 1
 100 100 l 1
 150 100 l 1
 200 100 l 1
 200 300 l 1
 200 500 l 1
 250 500 l 1
 300 500 l 1
 300 300 l 1
 300 100 l 1
 350 100 l 1
 400 100 l 1
 400 350 l 1
EndSplineSet
Validated: 517
EndChar

StartChar: U+0175
Encoding: 373 373 307
Width: 600
VWidth: -81
Flags: HW
LayerCount: 2
Back
Fore
SplineSet
0 250 m 1
 0 500 l 1
 50 500 l 1
 100 500 l 1
 100 300 l 1
 100 100 l 1
 150 100 l 1
 200 100 l 1
 200 300 l 1
 200 500 l 1
 250 500 l 1
 300 500 l 1
 300 300 l 1
 300 100 l 1
 350 100 l 1
 400 100 l 1
 400 300 l 1
 400 500 l 1
 450 500 l 1
 500 500 l 1
 500 250 l 1
 500 0 l 1
 250 0 l 1
 0 0 l 1
 0 250 l 1
100 650 m 1
 100 700 l 1
 250 700 l 1
 400 700 l 1
 400 650 l 1
 400 600 l 1
 250 600 l 1
 100 600 l 1
 100 650 l 1
EndSplineSet
Validated: 513
EndChar

StartChar: U+0176
Encoding: 374 374 308
Width: 600
VWidth: -81
Flags: HW
LayerCount: 2
Back
Fore
SplineSet
100 650 m 1
 100 700 l 1
 250 700 l 1
 400 700 l 1
 400 650 l 1
 400 600 l 1
 450 600 l 1
 500 600 l 1
 500 400 l 1
 500 200 l 1
 400 200 l 1
 300 200 l 1
 300 100 l 1
 300 0 l 1
 250 0 l 1
 200 0 l 1
 200 100 l 1
 200 200 l 1
 100 200 l 1
 0 200 l 1
 0 400 l 1
 0 600 l 1
 50 600 l 1
 100 600 l 1
 100 650 l 1
400 450 m 1
 400 600 l 1
 250 600 l 1
 100 600 l 1
 100 450 l 1
 100 300 l 1
 250 300 l 1
 400 300 l 1
 400 450 l 1
EndSplineSet
Validated: 517
EndChar

StartChar: U+0177
Encoding: 375 375 309
Width: 600
VWidth: -81
Flags: HW
LayerCount: 2
Back
Fore
SplineSet
0 350 m 1
 0 500 l 1
 50 500 l 1
 100 500 l 1
 100 400 l 1
 100 300 l 1
 250 300 l 1
 400 300 l 1
 400 400 l 1
 400 500 l 1
 450 500 l 1
 500 500 l 1
 500 350 l 1
 500 200 l 1
 400 200 l 1
 300 200 l 1
 300 100 l 1
 300 0 l 1
 250 0 l 1
 200 0 l 1
 200 100 l 1
 200 200 l 1
 100 200 l 1
 0 200 l 1
 0 350 l 1
100 650 m 1
 100 700 l 1
 250 700 l 1
 400 700 l 1
 400 650 l 1
 400 600 l 1
 250 600 l 1
 100 600 l 1
 100 650 l 1
EndSplineSet
Validated: 513
EndChar

StartChar: U+0178
Encoding: 376 376 310
Width: 600
VWidth: -81
Flags: HW
LayerCount: 2
Back
Fore
SplineSet
100 650 m 1
 100 700 l 1
 150 700 l 1
 200 700 l 1
 200 650 l 1
 200 600 l 1
 150 600 l 1
 100 600 l 1
 100 450 l 1
 100 300 l 1
 250 300 l 1
 400 300 l 1
 400 450 l 1
 400 600 l 1
 350 600 l 1
 300 600 l 1
 300 650 l 1
 300 700 l 1
 350 700 l 1
 400 700 l 1
 400 650 l 1
 400 600 l 1
 450 600 l 1
 500 600 l 1
 500 400 l 1
 500 200 l 1
 400 200 l 1
 300 200 l 1
 300 100 l 1
 300 0 l 1
 250 0 l 1
 200 0 l 1
 200 100 l 1
 200 200 l 1
 100 200 l 1
 0 200 l 1
 0 400 l 1
 0 600 l 1
 50 600 l 1
 100 600 l 1
 100 650 l 1
EndSplineSet
Validated: 517
EndChar

StartChar: U+0179
Encoding: 377 377 311
Width: 600
VWidth: -81
Flags: HW
LayerCount: 2
Back
Fore
SplineSet
300 650 m 1
 300 700 l 1
 400 700 l 1
 500 700 l 1
 500 500 l 1
 500 300 l 1
 400 300 l 1
 300 300 l 1
 300 250 l 1
 300 200 l 1
 250 200 l 1
 200 200 l 1
 200 250 l 1
 200 300 l 1
 150 300 l 1
 100 300 l 1
 100 200 l 1
 100 100 l 1
 300 100 l 1
 500 100 l 1
 500 50 l 1
 500 0 l 1
 250 0 l 1
 0 0 l 1
 0 200 l 1
 0 400 l 1
 200 400 l 1
 400 400 l 1
 400 450 l 1
 400 500 l 1
 200 500 l 1
 0 500 l 1
 0 550 l 1
 0 600 l 1
 150 600 l 1
 300 600 l 1
 300 650 l 1
EndSplineSet
Validated: 513
EndChar

StartChar: U+017A
Encoding: 378 378 312
Width: 600
VWidth: -81
Flags: HW
LayerCount: 2
Back
Fore
SplineSet
0 450 m 1
 0 500 l 1
 250 500 l 1
 500 500 l 1
 500 350 l 1
 500 200 l 1
 300 200 l 1
 100 200 l 1
 100 150 l 1
 100 100 l 1
 300 100 l 1
 500 100 l 1
 500 50 l 1
 500 0 l 1
 250 0 l 1
 0 0 l 1
 0 150 l 1
 0 300 l 1
 200 300 l 1
 400 300 l 1
 400 350 l 1
 400 400 l 1
 200 400 l 1
 0 400 l 1
 0 450 l 1
300 650 m 1
 300 700 l 1
 400 700 l 1
 500 700 l 1
 500 650 l 1
 500 600 l 1
 400 600 l 1
 300 600 l 1
 300 650 l 1
EndSplineSet
Validated: 513
EndChar

StartChar: U+017B
Encoding: 379 379 313
Width: 600
VWidth: -81
Flags: HW
LayerCount: 2
Back
Fore
SplineSet
200 650 m 1
 200 700 l 1
 250 700 l 1
 300 700 l 1
 300 650 l 1
 300 600 l 1
 400 600 l 1
 500 600 l 1
 500 450 l 1
 500 300 l 1
 400 300 l 1
 300 300 l 1
 300 250 l 1
 300 200 l 1
 250 200 l 1
 200 200 l 1
 200 250 l 1
 200 300 l 1
 150 300 l 1
 100 300 l 1
 100 200 l 1
 100 100 l 1
 300 100 l 1
 500 100 l 1
 500 50 l 1
 500 0 l 1
 250 0 l 1
 0 0 l 1
 0 200 l 1
 0 400 l 1
 200 400 l 1
 400 400 l 1
 400 450 l 1
 400 500 l 1
 200 500 l 1
 0 500 l 1
 0 550 l 1
 0 600 l 1
 100 600 l 1
 200 600 l 1
 200 650 l 1
EndSplineSet
Validated: 513
EndChar

StartChar: U+017C
Encoding: 380 380 314
Width: 600
VWidth: -81
Flags: HW
LayerCount: 2
Back
Fore
SplineSet
0 450 m 1
 0 500 l 1
 250 500 l 1
 500 500 l 1
 500 350 l 1
 500 200 l 1
 300 200 l 1
 100 200 l 1
 100 150 l 1
 100 100 l 1
 300 100 l 1
 500 100 l 1
 500 50 l 1
 500 0 l 1
 250 0 l 1
 0 0 l 1
 0 150 l 1
 0 300 l 1
 200 300 l 1
 400 300 l 1
 400 350 l 1
 400 400 l 1
 200 400 l 1
 0 400 l 1
 0 450 l 1
200 650 m 1
 200 700 l 1
 250 700 l 1
 300 700 l 1
 300 650 l 1
 300 600 l 1
 250 600 l 1
 200 600 l 1
 200 650 l 1
EndSplineSet
Validated: 513
EndChar

StartChar: U+017D
Encoding: 381 381 315
Width: 600
VWidth: -81
Flags: HW
LayerCount: 2
Back
Fore
SplineSet
100 650 m 1
 100 700 l 1
 250 700 l 1
 400 700 l 1
 400 650 l 1
 400 600 l 1
 450 600 l 1
 500 600 l 1
 500 450 l 1
 500 300 l 1
 400 300 l 1
 300 300 l 1
 300 250 l 1
 300 200 l 1
 250 200 l 1
 200 200 l 1
 200 250 l 1
 200 300 l 1
 150 300 l 1
 100 300 l 1
 100 200 l 1
 100 100 l 1
 300 100 l 1
 500 100 l 1
 500 50 l 1
 500 0 l 1
 250 0 l 1
 0 0 l 1
 0 200 l 1
 0 400 l 1
 200 400 l 1
 400 400 l 1
 400 450 l 1
 400 500 l 1
 200 500 l 1
 0 500 l 1
 0 550 l 1
 0 600 l 1
 50 600 l 1
 100 600 l 1
 100 650 l 1
EndSplineSet
Validated: 513
EndChar

StartChar: U+017E
Encoding: 382 382 316
Width: 600
VWidth: -81
Flags: HW
LayerCount: 2
Back
Fore
SplineSet
0 450 m 1
 0 500 l 1
 250 500 l 1
 500 500 l 1
 500 350 l 1
 500 200 l 1
 300 200 l 1
 100 200 l 1
 100 150 l 1
 100 100 l 1
 300 100 l 1
 500 100 l 1
 500 50 l 1
 500 0 l 1
 250 0 l 1
 0 0 l 1
 0 150 l 1
 0 300 l 1
 200 300 l 1
 400 300 l 1
 400 350 l 1
 400 400 l 1
 200 400 l 1
 0 400 l 1
 0 450 l 1
100 650 m 1
 100 700 l 1
 250 700 l 1
 400 700 l 1
 400 650 l 1
 400 600 l 1
 250 600 l 1
 100 600 l 1
 100 650 l 1
EndSplineSet
Validated: 513
EndChar

StartChar: U+017F
Encoding: 383 383 317
Width: 600
VWidth: -81
Flags: HW
LayerCount: 2
Back
Fore
SplineSet
0 250 m 1
 0 500 l 1
 250 500 l 1
 500 500 l 1
 500 450 l 1
 500 400 l 1
 300 400 l 1
 100 400 l 1
 100 200 l 1
 100 0 l 1
 50 0 l 1
 0 0 l 1
 0 250 l 1
EndSplineSet
Validated: 513
EndChar

StartChar: char8208
Encoding: 8208 -1 318
Width: 600
VWidth: -81
Flags: HW
LayerCount: 2
Back
Fore
SplineSet
100 250 m 1
 100 300 l 1
 250 300 l 1
 400 300 l 1
 400 250 l 1
 400 200 l 1
 250 200 l 1
 100 200 l 1
 100 250 l 1
EndSplineSet
Validated: 1
EndChar

StartChar: char8209
Encoding: 8209 -1 319
Width: 600
VWidth: -81
Flags: HW
LayerCount: 2
Back
Fore
SplineSet
100 250 m 1
 100 300 l 1
 250 300 l 1
 400 300 l 1
 400 250 l 1
 400 200 l 1
 250 200 l 1
 100 200 l 1
 100 250 l 1
EndSplineSet
Validated: 1
EndChar

StartChar: char8210
Encoding: 8210 -1 320
Width: 600
VWidth: -81
Flags: HW
LayerCount: 2
Back
Fore
SplineSet
100 250 m 1
 100 300 l 1
 250 300 l 1
 400 300 l 1
 400 250 l 1
 400 200 l 1
 250 200 l 1
 100 200 l 1
 100 250 l 1
EndSplineSet
Validated: 1
EndChar

StartChar: char8211
Encoding: 8211 -1 321
Width: 600
VWidth: -81
Flags: HW
LayerCount: 2
Back
Fore
SplineSet
0 250 m 1
 0 300 l 1
 250 300 l 1
 500 300 l 1
 500 250 l 1
 500 200 l 1
 250 200 l 1
 0 200 l 1
 0 250 l 1
EndSplineSet
Validated: 1
EndChar

StartChar: char8212
Encoding: 8212 -1 322
Width: 600
VWidth: -81
Flags: HW
LayerCount: 2
Back
Fore
SplineSet
0 250 m 1
 0 300 l 1
 250 300 l 1
 500 300 l 1
 500 250 l 1
 500 200 l 1
 250 200 l 1
 0 200 l 1
 0 250 l 1
EndSplineSet
Validated: 1
EndChar

StartChar: char8213
Encoding: 8213 -1 323
Width: 600
VWidth: -81
Flags: HW
LayerCount: 2
Back
Fore
SplineSet
0 250 m 1
 0 300 l 1
 250 300 l 1
 500 300 l 1
 500 250 l 1
 500 200 l 1
 250 200 l 1
 0 200 l 1
 0 250 l 1
EndSplineSet
Validated: 1
EndChar

StartChar: char8214
Encoding: 8214 -1 324
Width: 600
VWidth: -81
Flags: HW
LayerCount: 2
Back
Fore
SplineSet
300 300 m 1
 300 600 l 1
 350 600 l 1
 400 600 l 1
 400 300 l 1
 400 0 l 1
 350 0 l 1
 300 0 l 1
 300 300 l 1
100 300 m 1
 100 600 l 1
 150 600 l 1
 200 600 l 1
 200 300 l 1
 200 0 l 1
 150 0 l 1
 100 0 l 1
 100 300 l 1
EndSplineSet
Validated: 1
EndChar

StartChar: char8215
Encoding: 8215 -1 325
Width: 600
VWidth: -81
Flags: HW
LayerCount: 2
Back
Fore
SplineSet
0 -50 m 1
 0 0 l 1
 250 0 l 1
 500 0 l 1
 500 -50 l 1
 500 -100 l 1
 250 -100 l 1
 0 -100 l 1
 0 -50 l 1
0 150 m 1
 0 200 l 1
 250 200 l 1
 500 200 l 1
 500 150 l 1
 500 100 l 1
 250 100 l 1
 0 100 l 1
 0 150 l 1
EndSplineSet
Validated: 1
EndChar

StartChar: char8216
Encoding: 8216 -1 326
Width: 600
VWidth: -81
Flags: HW
LayerCount: 2
Back
Fore
SplineSet
200 650 m 1
 200 700 l 1
 250 700 l 1
 300 700 l 1
 300 550 l 1
 300 400 l 1
 200 400 l 1
 100 400 l 1
 100 500 l 1
 100 600 l 1
 150 600 l 1
 200 600 l 1
 200 650 l 1
EndSplineSet
Validated: 1
EndChar

StartChar: char8217
Encoding: 8217 -1 327
Width: 600
VWidth: -81
Flags: HW
LayerCount: 2
Back
Fore
SplineSet
200 550 m 1
 200 700 l 1
 300 700 l 1
 400 700 l 1
 400 600 l 1
 400 500 l 1
 350 500 l 1
 300 500 l 1
 300 450 l 1
 300 400 l 1
 250 400 l 1
 200 400 l 1
 200 550 l 1
EndSplineSet
Validated: 1
EndChar

StartChar: char8218
Encoding: 8218 -1 328
Width: 600
VWidth: -81
Flags: HW
LayerCount: 2
Back
Fore
SplineSet
200 50 m 1
 200 200 l 1
 300 200 l 1
 400 200 l 1
 400 100 l 1
 400 0 l 1
 350 0 l 1
 300 0 l 1
 300 -50 l 1
 300 -100 l 1
 250 -100 l 1
 200 -100 l 1
 200 50 l 1
EndSplineSet
Validated: 1
EndChar

StartChar: char8219
Encoding: 8219 -1 329
Width: 600
VWidth: -81
Flags: HW
LayerCount: 2
Back
Fore
SplineSet
100 600 m 1
 100 700 l 1
 200 700 l 1
 300 700 l 1
 300 550 l 1
 300 400 l 1
 250 400 l 1
 200 400 l 1
 200 450 l 1
 200 500 l 1
 150 500 l 1
 100 500 l 1
 100 600 l 1
EndSplineSet
Validated: 1
EndChar

StartChar: char8220
Encoding: 8220 -1 330
Width: 600
VWidth: -81
Flags: HW
LayerCount: 2
Back
Fore
SplineSet
400 650 m 1
 400 700 l 1
 450 700 l 1
 500 700 l 1
 500 550 l 1
 500 400 l 1
 400 400 l 1
 300 400 l 1
 300 500 l 1
 300 600 l 1
 350 600 l 1
 400 600 l 1
 400 650 l 1
100 650 m 1
 100 700 l 1
 150 700 l 1
 200 700 l 1
 200 550 l 1
 200 400 l 1
 100 400 l 1
 0 400 l 1
 0 500 l 1
 0 600 l 1
 50 600 l 1
 100 600 l 1
 100 650 l 1
EndSplineSet
Validated: 1
EndChar

StartChar: char8221
Encoding: 8221 -1 331
Width: 600
VWidth: -81
Flags: HW
LayerCount: 2
Back
Fore
SplineSet
300 550 m 1
 300 700 l 1
 400 700 l 1
 500 700 l 1
 500 600 l 1
 500 500 l 1
 450 500 l 1
 400 500 l 1
 400 450 l 1
 400 400 l 1
 350 400 l 1
 300 400 l 1
 300 550 l 1
0 550 m 1
 0 700 l 1
 100 700 l 1
 200 700 l 1
 200 600 l 1
 200 500 l 1
 150 500 l 1
 100 500 l 1
 100 450 l 1
 100 400 l 1
 50 400 l 1
 0 400 l 1
 0 550 l 1
EndSplineSet
Validated: 2097153
EndChar

StartChar: char8221
Encoding: 8222 -1 332
Width: 600
VWidth: -81
Flags: HW
LayerCount: 2
Back
Fore
SplineSet
300 50 m 1
 300 200 l 1
 400 200 l 1
 500 200 l 1
 500 100 l 1
 500 0 l 1
 450 0 l 1
 400 0 l 1
 400 -50 l 1
 400 -100 l 1
 350 -100 l 1
 300 -100 l 1
 300 50 l 1
0 50 m 1
 0 200 l 1
 100 200 l 1
 200 200 l 1
 200 100 l 1
 200 0 l 1
 150 0 l 1
 100 0 l 1
 100 -50 l 1
 100 -100 l 1
 50 -100 l 1
 0 -100 l 1
 0 50 l 1
EndSplineSet
Validated: 2097153
EndChar

StartChar: char8221
Encoding: 8223 -1 333
Width: 600
VWidth: -81
Flags: HW
LayerCount: 2
Back
Fore
SplineSet
300 600 m 1
 300 700 l 1
 400 700 l 1
 500 700 l 1
 500 550 l 1
 500 400 l 1
 450 400 l 1
 400 400 l 1
 400 450 l 1
 400 500 l 1
 350 500 l 1
 300 500 l 1
 300 600 l 1
0 600 m 1
 0 700 l 1
 100 700 l 1
 200 700 l 1
 200 550 l 1
 200 400 l 1
 150 400 l 1
 100 400 l 1
 100 450 l 1
 100 500 l 1
 50 500 l 1
 0 500 l 1
 0 600 l 1
EndSplineSet
Validated: 2097153
EndChar

StartChar: char8224
Encoding: 8224 -1 334
Width: 600
VWidth: -81
Flags: HW
LayerCount: 2
Back
Fore
SplineSet
200 500 m 1
 200 600 l 1
 250 600 l 1
 300 600 l 1
 300 500 l 1
 300 400 l 1
 400 400 l 1
 500 400 l 1
 500 350 l 1
 500 300 l 1
 400 300 l 1
 300 300 l 1
 300 150 l 1
 300 0 l 1
 250 0 l 1
 200 0 l 1
 200 150 l 1
 200 300 l 1
 100 300 l 1
 0 300 l 1
 0 350 l 1
 0 400 l 1
 100 400 l 1
 200 400 l 1
 200 500 l 1
EndSplineSet
Validated: 1
EndChar

StartChar: char8225
Encoding: 8225 -1 335
Width: 600
VWidth: -81
Flags: HW
LayerCount: 2
Back
Fore
SplineSet
200 550 m 1
 200 600 l 1
 250 600 l 1
 300 600 l 1
 300 550 l 1
 300 500 l 1
 400 500 l 1
 500 500 l 1
 500 450 l 1
 500 400 l 1
 400 400 l 1
 300 400 l 1
 300 300 l 1
 300 200 l 1
 400 200 l 1
 500 200 l 1
 500 150 l 1
 500 100 l 1
 400 100 l 1
 300 100 l 1
 300 50 l 1
 300 0 l 1
 250 0 l 1
 200 0 l 1
 200 50 l 1
 200 100 l 1
 100 100 l 1
 0 100 l 1
 0 150 l 1
 0 200 l 1
 100 200 l 1
 200 200 l 1
 200 300 l 1
 200 400 l 1
 100 400 l 1
 0 400 l 1
 0 450 l 1
 0 500 l 1
 100 500 l 1
 200 500 l 1
 200 550 l 1
EndSplineSet
Validated: 1
EndChar

StartChar: char8226
Encoding: 8226 -1 336
Width: 600
VWidth: -81
Flags: HW
LayerCount: 2
Back
Fore
SplineSet
100 250 m 1
 100 400 l 1
 250 400 l 1
 400 400 l 1
 400 250 l 1
 400 100 l 1
 250 100 l 1
 100 100 l 1
 100 250 l 1
300 250 m 1
 300 300 l 1
 250 300 l 1
 200 300 l 1
 200 250 l 1
 200 200 l 1
 250 200 l 1
 300 200 l 1
 300 250 l 1
EndSplineSet
Validated: 1
EndChar

StartChar: char8227
Encoding: 8227 -1 337
Width: 600
VWidth: -81
Flags: HW
LayerCount: 2
Back
Fore
SplineSet
200 250 m 1
 200 400 l 1
 250 400 l 1
 300 400 l 1
 300 350 l 1
 300 300 l 1
 350 300 l 1
 400 300 l 1
 400 250 l 1
 400 200 l 1
 350 200 l 1
 300 200 l 1
 300 150 l 1
 300 100 l 1
 250 100 l 1
 200 100 l 1
 200 250 l 1
EndSplineSet
Validated: 1
EndChar

StartChar: char8228
Encoding: 8228 -1 338
Width: 600
VWidth: -81
Flags: HW
LayerCount: 2
Back
Fore
SplineSet
200 50 m 1
 200 100 l 1
 250 100 l 1
 300 100 l 1
 300 50 l 1
 300 0 l 1
 250 0 l 1
 200 0 l 1
 200 50 l 1
EndSplineSet
Validated: 1
EndChar

StartChar: char8229
Encoding: 8229 -1 339
Width: 600
VWidth: -81
Flags: HW
LayerCount: 2
Back
Fore
SplineSet
300 50 m 1
 300 100 l 1
 350 100 l 1
 400 100 l 1
 400 50 l 1
 400 0 l 1
 350 0 l 1
 300 0 l 1
 300 50 l 1
100 50 m 1
 100 100 l 1
 150 100 l 1
 200 100 l 1
 200 50 l 1
 200 0 l 1
 150 0 l 1
 100 0 l 1
 100 50 l 1
EndSplineSet
Validated: 1
EndChar

StartChar: char8230
Encoding: 8230 -1 340
Width: 600
VWidth: -81
Flags: HW
LayerCount: 2
Back
Fore
SplineSet
400 50 m 1
 400 100 l 1
 450 100 l 1
 500 100 l 1
 500 50 l 1
 500 0 l 1
 450 0 l 1
 400 0 l 1
 400 50 l 1
200 50 m 1
 200 100 l 1
 250 100 l 1
 300 100 l 1
 300 50 l 1
 300 0 l 1
 250 0 l 1
 200 0 l 1
 200 50 l 1
0 50 m 1
 0 100 l 1
 50 100 l 1
 100 100 l 1
 100 50 l 1
 100 0 l 1
 50 0 l 1
 0 0 l 1
 0 50 l 1
EndSplineSet
Validated: 1
EndChar

StartChar: char8231
Encoding: 8231 -1 341
Width: 600
VWidth: -81
Flags: HW
LayerCount: 2
Back
Fore
SplineSet
200 250 m 1
 200 300 l 1
 250 300 l 1
 300 300 l 1
 300 250 l 1
 300 200 l 1
 250 200 l 1
 200 200 l 1
 200 250 l 1
EndSplineSet
Validated: 1
EndChar

StartChar: char8240
Encoding: 8240 -1 342
Width: 600
VWidth: -81
Flags: HW
LayerCount: 2
Back
Fore
SplineSet
400 50 m 1
 400 100 l 1
 450 100 l 1
 500 100 l 1
 500 50 l 1
 500 0 l 1
 450 0 l 1
 400 0 l 1
 400 50 l 1
200 50 m 1
 200 100 l 1
 250 100 l 1
 300 100 l 1
 300 50 l 1
 300 0 l 1
 250 0 l 1
 200 0 l 1
 200 50 l 1
200 400 m 1
 200 500 l 1
 250 500 l 1
 300 500 l 1
 300 350 l 1
 300 200 l 1
 200 200 l 1
 100 200 l 1
 100 100 l 1
 100 0 l 1
 50 0 l 1
 0 0 l 1
 0 150 l 1
 0 300 l 1
 100 300 l 1
 200 300 l 1
 200 400 l 1
0 450 m 1
 0 500 l 1
 50 500 l 1
 100 500 l 1
 100 450 l 1
 100 400 l 1
 50 400 l 1
 0 400 l 1
 0 450 l 1
EndSplineSet
Validated: 1
EndChar

StartChar: char8241
Encoding: 8241 -1 343
Width: 600
VWidth: -81
Flags: HW
LayerCount: 2
Back
Fore
SplineSet
400 50 m 1
 400 100 l 1
 450 100 l 1
 500 100 l 1
 500 50 l 1
 500 0 l 1
 450 0 l 1
 400 0 l 1
 400 50 l 1
200 50 m 1
 200 100 l 1
 250 100 l 1
 300 100 l 1
 300 50 l 1
 300 0 l 1
 250 0 l 1
 200 0 l 1
 200 50 l 1
400 250 m 1
 400 300 l 1
 450 300 l 1
 500 300 l 1
 500 250 l 1
 500 200 l 1
 450 200 l 1
 400 200 l 1
 400 250 l 1
200 400 m 1
 200 500 l 1
 250 500 l 1
 300 500 l 1
 300 350 l 1
 300 200 l 1
 200 200 l 1
 100 200 l 1
 100 100 l 1
 100 0 l 1
 50 0 l 1
 0 0 l 1
 0 150 l 1
 0 300 l 1
 100 300 l 1
 200 300 l 1
 200 400 l 1
0 450 m 1
 0 500 l 1
 50 500 l 1
 100 500 l 1
 100 450 l 1
 100 400 l 1
 50 400 l 1
 0 400 l 1
 0 450 l 1
EndSplineSet
Validated: 1
EndChar

StartChar: char8242
Encoding: 8242 -1 344
Width: 600
VWidth: -81
Flags: HW
LayerCount: 2
Back
Fore
SplineSet
200 550 m 1
 200 700 l 1
 250 700 l 1
 300 700 l 1
 300 550 l 1
 300 400 l 1
 250 400 l 1
 200 400 l 1
 200 550 l 1
EndSplineSet
Validated: 2097153
EndChar

StartChar: char8243
Encoding: 8243 -1 345
Width: 600
VWidth: -81
Flags: HW
LayerCount: 2
Back
Fore
SplineSet
300 550 m 1
 300 700 l 1
 350 700 l 1
 400 700 l 1
 400 550 l 1
 400 400 l 1
 350 400 l 1
 300 400 l 1
 300 550 l 1
100 550 m 1
 100 700 l 1
 150 700 l 1
 200 700 l 1
 200 550 l 1
 200 400 l 1
 150 400 l 1
 100 400 l 1
 100 550 l 1
EndSplineSet
Validated: 2097153
EndChar

StartChar: char8244
Encoding: 8244 -1 346
Width: 600
VWidth: -81
Flags: HW
LayerCount: 2
Back
Fore
SplineSet
400 550 m 1
 400 700 l 1
 450 700 l 1
 500 700 l 1
 500 550 l 1
 500 400 l 1
 450 400 l 1
 400 400 l 1
 400 550 l 1
200 550 m 1
 200 700 l 1
 250 700 l 1
 300 700 l 1
 300 550 l 1
 300 400 l 1
 250 400 l 1
 200 400 l 1
 200 550 l 1
0 550 m 1
 0 700 l 1
 50 700 l 1
 100 700 l 1
 100 550 l 1
 100 400 l 1
 50 400 l 1
 0 400 l 1
 0 550 l 1
EndSplineSet
Validated: 2097153
EndChar

StartChar: char8242
Encoding: 8245 -1 347
Width: 600
VWidth: -81
Flags: HW
LayerCount: 2
Back
Fore
SplineSet
200 550 m 1
 200 700 l 1
 250 700 l 1
 300 700 l 1
 300 550 l 1
 300 400 l 1
 250 400 l 1
 200 400 l 1
 200 550 l 1
EndSplineSet
Validated: 2097153
EndChar

StartChar: char8243
Encoding: 8246 -1 348
Width: 600
VWidth: -81
Flags: HW
LayerCount: 2
Back
Fore
SplineSet
300 550 m 1
 300 700 l 1
 350 700 l 1
 400 700 l 1
 400 550 l 1
 400 400 l 1
 350 400 l 1
 300 400 l 1
 300 550 l 1
100 550 m 1
 100 700 l 1
 150 700 l 1
 200 700 l 1
 200 550 l 1
 200 400 l 1
 150 400 l 1
 100 400 l 1
 100 550 l 1
EndSplineSet
Validated: 2097153
EndChar

StartChar: char8244
Encoding: 8247 -1 349
Width: 600
VWidth: -81
Flags: HW
LayerCount: 2
Back
Fore
SplineSet
400 550 m 1
 400 700 l 1
 450 700 l 1
 500 700 l 1
 500 550 l 1
 500 400 l 1
 450 400 l 1
 400 400 l 1
 400 550 l 1
200 550 m 1
 200 700 l 1
 250 700 l 1
 300 700 l 1
 300 550 l 1
 300 400 l 1
 250 400 l 1
 200 400 l 1
 200 550 l 1
0 550 m 1
 0 700 l 1
 50 700 l 1
 100 700 l 1
 100 550 l 1
 100 400 l 1
 50 400 l 1
 0 400 l 1
 0 550 l 1
EndSplineSet
Validated: 2097153
EndChar

StartChar: char8248
Encoding: 8248 -1 350
Width: 600
VWidth: -81
Flags: HW
LayerCount: 2
Back
Fore
SplineSet
100 0 m 1
 100 100 l 1
 250 100 l 1
 400 100 l 1
 400 0 l 1
 400 -100 l 1
 350 -100 l 1
 300 -100 l 1
 300 -50 l 1
 300 0 l 1
 250 0 l 1
 200 0 l 1
 200 -50 l 1
 200 -100 l 1
 150 -100 l 1
 100 -100 l 1
 100 0 l 1
EndSplineSet
Validated: 1
EndChar

StartChar: char8249
Encoding: 8249 -1 351
Width: 600
VWidth: -81
Flags: HW
LayerCount: 2
Back
Fore
SplineSet
300 550 m 1
 300 600 l 1
 350 600 l 1
 400 600 l 1
 400 500 l 1
 400 400 l 1
 350 400 l 1
 300 400 l 1
 300 300 l 1
 300 200 l 1
 350 200 l 1
 400 200 l 1
 400 100 l 1
 400 0 l 1
 350 0 l 1
 300 0 l 1
 300 50 l 1
 300 100 l 1
 250 100 l 1
 200 100 l 1
 200 150 l 1
 200 200 l 1
 150 200 l 1
 100 200 l 1
 100 300 l 1
 100 400 l 1
 150 400 l 1
 200 400 l 1
 200 450 l 1
 200 500 l 1
 250 500 l 1
 300 500 l 1
 300 550 l 1
EndSplineSet
Validated: 2097153
EndChar

StartChar: char8249
Encoding: 8250 -1 352
Width: 600
VWidth: -81
Flags: HW
LayerCount: 2
Back
Fore
SplineSet
100 500 m 1
 100 600 l 1
 150 600 l 1
 200 600 l 1
 200 550 l 1
 200 500 l 1
 250 500 l 1
 300 500 l 1
 300 450 l 1
 300 400 l 1
 350 400 l 1
 400 400 l 1
 400 300 l 1
 400 200 l 1
 350 200 l 1
 300 200 l 1
 300 150 l 1
 300 100 l 1
 250 100 l 1
 200 100 l 1
 200 50 l 1
 200 0 l 1
 150 0 l 1
 100 0 l 1
 100 100 l 1
 100 200 l 1
 150 200 l 1
 200 200 l 1
 200 300 l 1
 200 400 l 1
 150 400 l 1
 100 400 l 1
 100 500 l 1
EndSplineSet
Validated: 2097153
EndChar

StartChar: char8251
Encoding: 8251 -1 353
Width: 600
VWidth: -81
Flags: HW
LayerCount: 2
Back
Fore
SplineSet
400 250 m 1
 400 300 l 1
 450 300 l 1
 500 300 l 1
 500 250 l 1
 500 200 l 1
 450 200 l 1
 400 200 l 1
 400 250 l 1
0 250 m 1
 0 300 l 1
 50 300 l 1
 100 300 l 1
 100 250 l 1
 100 200 l 1
 50 200 l 1
 0 200 l 1
 0 250 l 1
0 500 m 1
 0 600 l 1
 50 600 l 1
 100 600 l 1
 100 550 l 1
 100 500 l 1
 150 500 l 1
 200 500 l 1
 200 550 l 1
 200 600 l 1
 250 600 l 1
 300 600 l 1
 300 550 l 1
 300 500 l 1
 350 500 l 1
 400 500 l 1
 400 550 l 1
 400 600 l 1
 450 600 l 1
 500 600 l 1
 500 500 l 1
 500 400 l 1
 400 400 l 1
 300 400 l 1
 300 250 l 1
 300 100 l 1
 400 100 l 1
 500 100 l 1
 500 0 l 1
 500 -100 l 1
 450 -100 l 1
 400 -100 l 1
 400 -50 l 1
 400 0 l 1
 350 0 l 1
 300 0 l 1
 300 -50 l 1
 300 -100 l 1
 250 -100 l 1
 200 -100 l 1
 200 -50 l 1
 200 0 l 1
 150 0 l 1
 100 0 l 1
 100 -50 l 1
 100 -100 l 1
 50 -100 l 1
 0 -100 l 1
 0 0 l 1
 0 100 l 1
 100 100 l 1
 200 100 l 1
 200 250 l 1
 200 400 l 1
 100 400 l 1
 0 400 l 1
 0 500 l 1
300 450 m 1
 300 500 l 1
 250 500 l 1
 200 500 l 1
 200 450 l 1
 200 400 l 1
 250 400 l 1
 300 400 l 1
 300 450 l 1
300 50 m 1
 300 100 l 1
 250 100 l 1
 200 100 l 1
 200 50 l 1
 200 0 l 1
 250 0 l 1
 300 0 l 1
 300 50 l 1
EndSplineSet
Validated: 5
EndChar

StartChar: char8252
Encoding: 8252 -1 354
Width: 600
VWidth: -81
Flags: HW
LayerCount: 2
Back
Fore
SplineSet
300 50 m 1
 300 100 l 1
 350 100 l 1
 400 100 l 1
 400 50 l 1
 400 0 l 1
 350 0 l 1
 300 0 l 1
 300 50 l 1
100 50 m 1
 100 100 l 1
 150 100 l 1
 200 100 l 1
 200 50 l 1
 200 0 l 1
 150 0 l 1
 100 0 l 1
 100 50 l 1
300 400 m 1
 300 600 l 1
 350 600 l 1
 400 600 l 1
 400 400 l 1
 400 200 l 1
 350 200 l 1
 300 200 l 1
 300 400 l 1
100 400 m 1
 100 600 l 1
 150 600 l 1
 200 600 l 1
 200 400 l 1
 200 200 l 1
 150 200 l 1
 100 200 l 1
 100 400 l 1
EndSplineSet
Validated: 1
EndChar

StartChar: char8253
Encoding: 8253 -1 355
Width: 600
VWidth: -81
Flags: HW
LayerCount: 2
Back
Fore
SplineSet
200 50 m 1
 200 100 l 1
 250 100 l 1
 300 100 l 1
 300 50 l 1
 300 0 l 1
 250 0 l 1
 200 0 l 1
 200 50 l 1
0 550 m 1
 0 600 l 1
 250 600 l 1
 500 600 l 1
 500 450 l 1
 500 300 l 1
 400 300 l 1
 300 300 l 1
 300 250 l 1
 300 200 l 1
 250 200 l 1
 200 200 l 1
 200 350 l 1
 200 500 l 1
 100 500 l 1
 0 500 l 1
 0 550 l 1
400 450 m 1
 400 500 l 1
 350 500 l 1
 300 500 l 1
 300 450 l 1
 300 400 l 1
 350 400 l 1
 400 400 l 1
 400 450 l 1
EndSplineSet
Validated: 1
EndChar

StartChar: char8254
Encoding: 8254 -1 356
Width: 600
VWidth: -81
Flags: HW
LayerCount: 2
Back
Fore
SplineSet
0 650 m 1
 0 700 l 1
 250 700 l 1
 500 700 l 1
 500 650 l 1
 500 600 l 1
 250 600 l 1
 0 600 l 1
 0 650 l 1
EndSplineSet
Validated: 1
EndChar

StartChar: char8255
Encoding: 8255 -1 357
Width: 600
VWidth: -81
Flags: HW
LayerCount: 2
Back
Fore
SplineSet
0 0 m 1
 0 100 l 1
 50 100 l 1
 100 100 l 1
 100 50 l 1
 100 0 l 1
 250 0 l 1
 400 0 l 1
 400 50 l 1
 400 100 l 1
 450 100 l 1
 500 100 l 1
 500 0 l 1
 500 -100 l 1
 250 -100 l 1
 0 -100 l 1
 0 0 l 1
EndSplineSet
Validated: 1
EndChar

StartChar: char8256
Encoding: 8256 -1 358
Width: 600
VWidth: -81
Flags: HW
LayerCount: 2
Back
Fore
SplineSet
0 600 m 1
 0 700 l 1
 250 700 l 1
 500 700 l 1
 500 600 l 1
 500 500 l 1
 450 500 l 1
 400 500 l 1
 400 550 l 1
 400 600 l 1
 250 600 l 1
 100 600 l 1
 100 550 l 1
 100 500 l 1
 50 500 l 1
 0 500 l 1
 0 600 l 1
EndSplineSet
Validated: 1
EndChar

StartChar: char8257
Encoding: 8257 -1 359
Width: 600
VWidth: -81
Flags: HW
LayerCount: 2
Back
Fore
SplineSet
400 400 m 1
 400 500 l 1
 450 500 l 1
 500 500 l 1
 500 350 l 1
 500 200 l 1
 450 200 l 1
 400 200 l 1
 400 150 l 1
 400 100 l 1
 450 100 l 1
 500 100 l 1
 500 50 l 1
 500 0 l 1
 400 0 l 1
 300 0 l 1
 300 100 l 1
 300 200 l 1
 200 200 l 1
 100 200 l 1
 100 100 l 1
 100 0 l 1
 50 0 l 1
 0 0 l 1
 0 150 l 1
 0 300 l 1
 200 300 l 1
 400 300 l 1
 400 400 l 1
EndSplineSet
Validated: 1
EndChar

StartChar: char8258
Encoding: 8258 -1 360
Width: 600
VWidth: -81
Flags: HW
LayerCount: 2
Back
Fore
SplineSet
300 150 m 1
 300 200 l 1
 350 200 l 1
 400 200 l 1
 400 150 l 1
 400 100 l 1
 350 100 l 1
 300 100 l 1
 300 150 l 1
100 150 m 1
 100 200 l 1
 150 200 l 1
 200 200 l 1
 200 150 l 1
 200 100 l 1
 150 100 l 1
 100 100 l 1
 100 150 l 1
200 350 m 1
 200 400 l 1
 250 400 l 1
 300 400 l 1
 300 350 l 1
 300 300 l 1
 250 300 l 1
 200 300 l 1
 200 350 l 1
EndSplineSet
Validated: 1
EndChar

StartChar: char8259
Encoding: 8259 -1 361
Width: 600
VWidth: -81
Flags: HW
LayerCount: 2
Back
Fore
SplineSet
0 250 m 1
 0 300 l 1
 250 300 l 1
 500 300 l 1
 500 250 l 1
 500 200 l 1
 250 200 l 1
 0 200 l 1
 0 250 l 1
EndSplineSet
Validated: 1
EndChar

StartChar: char8260
Encoding: 8260 -1 362
Width: 600
VWidth: -81
Flags: HW
LayerCount: 2
Back
Fore
SplineSet
400 450 m 1
 400 600 l 1
 450 600 l 1
 500 600 l 1
 500 400 l 1
 500 200 l 1
 300 200 l 1
 100 200 l 1
 100 50 l 1
 100 -100 l 1
 50 -100 l 1
 0 -100 l 1
 0 100 l 1
 0 300 l 1
 200 300 l 1
 400 300 l 1
 400 450 l 1
EndSplineSet
Validated: 1
EndChar

StartChar: char8261
Encoding: 8261 -1 363
Width: 600
VWidth: -81
Flags: HW
LayerCount: 2
Back
Fore
SplineSet
200 250 m 1
 200 600 l 1
 300 600 l 1
 400 600 l 1
 400 550 l 1
 400 500 l 1
 350 500 l 1
 300 500 l 1
 300 400 l 1
 300 300 l 1
 350 300 l 1
 400 300 l 1
 400 250 l 1
 400 200 l 1
 350 200 l 1
 300 200 l 1
 300 100 l 1
 300 0 l 1
 350 0 l 1
 400 0 l 1
 400 -50 l 1
 400 -100 l 1
 300 -100 l 1
 200 -100 l 1
 200 250 l 1
EndSplineSet
Validated: 1
EndChar

StartChar: char8262
Encoding: 8262 -1 364
Width: 600
VWidth: -81
Flags: HW
LayerCount: 2
Back
Fore
SplineSet
100 550 m 1
 100 600 l 1
 200 600 l 1
 300 600 l 1
 300 250 l 1
 300 -100 l 1
 200 -100 l 1
 100 -100 l 1
 100 -50 l 1
 100 0 l 1
 150 0 l 1
 200 0 l 1
 200 100 l 1
 200 200 l 1
 150 200 l 1
 100 200 l 1
 100 250 l 1
 100 300 l 1
 150 300 l 1
 200 300 l 1
 200 400 l 1
 200 500 l 1
 150 500 l 1
 100 500 l 1
 100 550 l 1
EndSplineSet
Validated: 1
EndChar

StartChar: char8263
Encoding: 8263 -1 365
Width: 600
VWidth: -81
Flags: HW
LayerCount: 2
Back
Fore
SplineSet
300 50 m 1
 300 100 l 1
 350 100 l 1
 400 100 l 1
 400 50 l 1
 400 0 l 1
 350 0 l 1
 300 0 l 1
 300 50 l 1
0 50 m 1
 0 100 l 1
 50 100 l 1
 100 100 l 1
 100 50 l 1
 100 0 l 1
 50 0 l 1
 0 0 l 1
 0 50 l 1
300 550 m 1
 300 600 l 1
 400 600 l 1
 500 600 l 1
 500 450 l 1
 500 300 l 1
 450 300 l 1
 400 300 l 1
 400 250 l 1
 400 200 l 1
 350 200 l 1
 300 200 l 1
 300 300 l 1
 300 400 l 1
 350 400 l 1
 400 400 l 1
 400 450 l 1
 400 500 l 1
 350 500 l 1
 300 500 l 1
 300 550 l 1
0 550 m 1
 0 600 l 1
 100 600 l 1
 200 600 l 1
 200 450 l 1
 200 300 l 1
 150 300 l 1
 100 300 l 1
 100 250 l 1
 100 200 l 1
 50 200 l 1
 0 200 l 1
 0 300 l 1
 0 400 l 1
 50 400 l 1
 100 400 l 1
 100 450 l 1
 100 500 l 1
 50 500 l 1
 0 500 l 1
 0 550 l 1
EndSplineSet
Validated: 1
EndChar

StartChar: char8264
Encoding: 8264 -1 366
Width: 600
VWidth: -81
Flags: HW
LayerCount: 2
Back
Fore
SplineSet
400 50 m 1
 400 100 l 1
 450 100 l 1
 500 100 l 1
 500 50 l 1
 500 0 l 1
 450 0 l 1
 400 0 l 1
 400 50 l 1
100 50 m 1
 100 100 l 1
 150 100 l 1
 200 100 l 1
 200 50 l 1
 200 0 l 1
 150 0 l 1
 100 0 l 1
 100 50 l 1
400 400 m 1
 400 600 l 1
 450 600 l 1
 500 600 l 1
 500 400 l 1
 500 200 l 1
 450 200 l 1
 400 200 l 1
 400 400 l 1
0 550 m 1
 0 600 l 1
 150 600 l 1
 300 600 l 1
 300 450 l 1
 300 300 l 1
 250 300 l 1
 200 300 l 1
 200 250 l 1
 200 200 l 1
 150 200 l 1
 100 200 l 1
 100 300 l 1
 100 400 l 1
 150 400 l 1
 200 400 l 1
 200 450 l 1
 200 500 l 1
 100 500 l 1
 0 500 l 1
 0 550 l 1
EndSplineSet
Validated: 1
EndChar

StartChar: char8265
Encoding: 8265 -1 367
Width: 600
VWidth: -81
Flags: HW
LayerCount: 2
Back
Fore
SplineSet
300 50 m 1
 300 100 l 1
 350 100 l 1
 400 100 l 1
 400 50 l 1
 400 0 l 1
 350 0 l 1
 300 0 l 1
 300 50 l 1
0 50 m 1
 0 100 l 1
 50 100 l 1
 100 100 l 1
 100 50 l 1
 100 0 l 1
 50 0 l 1
 0 0 l 1
 0 50 l 1
200 550 m 1
 200 600 l 1
 350 600 l 1
 500 600 l 1
 500 450 l 1
 500 300 l 1
 450 300 l 1
 400 300 l 1
 400 250 l 1
 400 200 l 1
 350 200 l 1
 300 200 l 1
 300 300 l 1
 300 400 l 1
 350 400 l 1
 400 400 l 1
 400 450 l 1
 400 500 l 1
 300 500 l 1
 200 500 l 1
 200 550 l 1
0 400 m 1
 0 600 l 1
 50 600 l 1
 100 600 l 1
 100 400 l 1
 100 200 l 1
 50 200 l 1
 0 200 l 1
 0 400 l 1
EndSplineSet
Validated: 1
EndChar

StartChar: char8266
Encoding: 8266 -1 368
Width: 600
VWidth: -81
Flags: HW
LayerCount: 2
Back
Fore
SplineSet
0 450 m 1
 0 500 l 1
 250 500 l 1
 500 500 l 1
 500 300 l 1
 500 100 l 1
 400 100 l 1
 300 100 l 1
 300 0 l 1
 300 -100 l 1
 250 -100 l 1
 200 -100 l 1
 200 50 l 1
 200 200 l 1
 300 200 l 1
 400 200 l 1
 400 300 l 1
 400 400 l 1
 200 400 l 1
 0 400 l 1
 0 450 l 1
EndSplineSet
Validated: 1
EndChar

StartChar: char8267
Encoding: 8267 -1 369
Width: 600
VWidth: -81
Flags: HW
LayerCount: 2
Back
Fore
SplineSet
0 300 m 1
 0 600 l 1
 250 600 l 1
 500 600 l 1
 500 400 l 1
 500 200 l 1
 400 200 l 1
 300 200 l 1
 300 100 l 1
 300 0 l 1
 250 0 l 1
 200 0 l 1
 200 250 l 1
 200 500 l 1
 150 500 l 1
 100 500 l 1
 100 250 l 1
 100 0 l 1
 50 0 l 1
 0 0 l 1
 0 300 l 1
EndSplineSet
Validated: 1
EndChar

StartChar: char8268
Encoding: 8268 -1 370
Width: 600
VWidth: -81
Flags: HW
LayerCount: 2
Back
Fore
SplineSet
300 250 m 1
 300 400 l 1
 350 400 l 1
 400 400 l 1
 400 250 l 1
 400 100 l 1
 350 100 l 1
 300 100 l 1
 300 250 l 1
100 350 m 1
 100 400 l 1
 150 400 l 1
 200 400 l 1
 200 250 l 1
 200 100 l 1
 150 100 l 1
 100 100 l 1
 100 150 l 1
 100 200 l 1
 50 200 l 1
 0 200 l 1
 0 250 l 1
 0 300 l 1
 50 300 l 1
 100 300 l 1
 100 350 l 1
EndSplineSet
Validated: 1
EndChar

StartChar: char8269
Encoding: 8269 -1 371
Width: 600
VWidth: -81
Flags: HW
LayerCount: 2
Back
Fore
SplineSet
300 250 m 1
 300 400 l 1
 350 400 l 1
 400 400 l 1
 400 350 l 1
 400 300 l 1
 450 300 l 1
 500 300 l 1
 500 250 l 1
 500 200 l 1
 450 200 l 1
 400 200 l 1
 400 150 l 1
 400 100 l 1
 350 100 l 1
 300 100 l 1
 300 250 l 1
100 250 m 1
 100 400 l 1
 150 400 l 1
 200 400 l 1
 200 250 l 1
 200 100 l 1
 150 100 l 1
 100 100 l 1
 100 250 l 1
EndSplineSet
Validated: 1
EndChar

StartChar: char8270
Encoding: 8270 -1 372
Width: 600
VWidth: -81
Flags: HW
LayerCount: 2
Back
Fore
SplineSet
100 350 m 1
 100 400 l 1
 250 400 l 1
 400 400 l 1
 400 350 l 1
 400 300 l 1
 350 300 l 1
 300 300 l 1
 300 250 l 1
 300 200 l 1
 400 200 l 1
 500 200 l 1
 500 150 l 1
 500 100 l 1
 400 100 l 1
 300 100 l 1
 300 50 l 1
 300 0 l 1
 350 0 l 1
 400 0 l 1
 400 -50 l 1
 400 -100 l 1
 250 -100 l 1
 100 -100 l 1
 100 -50 l 1
 100 0 l 1
 150 0 l 1
 200 0 l 1
 200 50 l 1
 200 100 l 1
 100 100 l 1
 0 100 l 1
 0 150 l 1
 0 200 l 1
 100 200 l 1
 200 200 l 1
 200 250 l 1
 200 300 l 1
 150 300 l 1
 100 300 l 1
 100 350 l 1
EndSplineSet
Validated: 1
EndChar

StartChar: char8271
Encoding: 8271 -1 373
Width: 600
VWidth: -81
Flags: HW
LayerCount: 2
Back
Fore
SplineSet
200 0 m 1
 200 100 l 1
 250 100 l 1
 300 100 l 1
 300 50 l 1
 300 0 l 1
 350 0 l 1
 400 0 l 1
 400 -50 l 1
 400 -100 l 1
 300 -100 l 1
 200 -100 l 1
 200 0 l 1
200 450 m 1
 200 500 l 1
 250 500 l 1
 300 500 l 1
 300 450 l 1
 300 400 l 1
 250 400 l 1
 200 400 l 1
 200 450 l 1
EndSplineSet
Validated: 1
EndChar

StartChar: char8272
Encoding: 8272 -1 374
Width: 600
VWidth: -81
Flags: HW
LayerCount: 2
Back
Fore
SplineSet
0 0 m 1
 0 100 l 1
 50 100 l 1
 100 100 l 1
 100 50 l 1
 100 0 l 1
 250 0 l 1
 400 0 l 1
 400 50 l 1
 400 100 l 1
 450 100 l 1
 500 100 l 1
 500 0 l 1
 500 -100 l 1
 250 -100 l 1
 0 -100 l 1
 0 0 l 1
0 600 m 1
 0 700 l 1
 250 700 l 1
 500 700 l 1
 500 600 l 1
 500 500 l 1
 450 500 l 1
 400 500 l 1
 400 550 l 1
 400 600 l 1
 250 600 l 1
 100 600 l 1
 100 550 l 1
 100 500 l 1
 50 500 l 1
 0 500 l 1
 0 600 l 1
EndSplineSet
Validated: 1
EndChar

StartChar: char8273
Encoding: 8273 -1 375
Width: 600
VWidth: -81
Flags: HW
LayerCount: 2
Back
Fore
SplineSet
200 250 m 1
 200 300 l 1
 250 300 l 1
 300 300 l 1
 300 250 l 1
 300 200 l 1
 350 200 l 1
 400 200 l 1
 400 150 l 1
 400 100 l 1
 350 100 l 1
 300 100 l 1
 300 50 l 1
 300 0 l 1
 250 0 l 1
 200 0 l 1
 200 50 l 1
 200 100 l 1
 150 100 l 1
 100 100 l 1
 100 150 l 1
 100 200 l 1
 150 200 l 1
 200 200 l 1
 200 250 l 1
200 650 m 1
 200 700 l 1
 250 700 l 1
 300 700 l 1
 300 650 l 1
 300 600 l 1
 350 600 l 1
 400 600 l 1
 400 550 l 1
 400 500 l 1
 350 500 l 1
 300 500 l 1
 300 450 l 1
 300 400 l 1
 250 400 l 1
 200 400 l 1
 200 450 l 1
 200 500 l 1
 150 500 l 1
 100 500 l 1
 100 550 l 1
 100 600 l 1
 150 600 l 1
 200 600 l 1
 200 650 l 1
EndSplineSet
Validated: 1
EndChar

StartChar: char8274
Encoding: 8274 -1 376
Width: 600
VWidth: -81
Flags: HW
LayerCount: 2
Back
Fore
SplineSet
300 50 m 1
 300 100 l 1
 350 100 l 1
 400 100 l 1
 400 50 l 1
 400 0 l 1
 350 0 l 1
 300 0 l 1
 300 50 l 1
300 500 m 1
 300 600 l 1
 350 600 l 1
 400 600 l 1
 400 450 l 1
 400 300 l 1
 350 300 l 1
 300 300 l 1
 300 250 l 1
 300 200 l 1
 250 200 l 1
 200 200 l 1
 200 100 l 1
 200 0 l 1
 150 0 l 1
 100 0 l 1
 100 150 l 1
 100 300 l 1
 150 300 l 1
 200 300 l 1
 200 350 l 1
 200 400 l 1
 250 400 l 1
 300 400 l 1
 300 500 l 1
100 550 m 1
 100 600 l 1
 150 600 l 1
 200 600 l 1
 200 550 l 1
 200 500 l 1
 150 500 l 1
 100 500 l 1
 100 550 l 1
EndSplineSet
Validated: 1
EndChar

StartChar: char8275
Encoding: 8275 -1 377
Width: 600
VWidth: -81
Flags: HW
LayerCount: 2
Back
Fore
SplineSet
0 350 m 1
 0 400 l 1
 150 400 l 1
 300 400 l 1
 300 350 l 1
 300 300 l 1
 400 300 l 1
 500 300 l 1
 500 250 l 1
 500 200 l 1
 350 200 l 1
 200 200 l 1
 200 250 l 1
 200 300 l 1
 100 300 l 1
 0 300 l 1
 0 350 l 1
EndSplineSet
Validated: 1
EndChar

StartChar: char8276
Encoding: 8276 -1 378
Width: 600
VWidth: -81
Flags: HW
LayerCount: 2
Back
Fore
SplineSet
0 0 m 1
 0 100 l 1
 250 100 l 1
 500 100 l 1
 500 0 l 1
 500 -100 l 1
 450 -100 l 1
 400 -100 l 1
 400 -50 l 1
 400 0 l 1
 250 0 l 1
 100 0 l 1
 100 -50 l 1
 100 -100 l 1
 50 -100 l 1
 0 -100 l 1
 0 0 l 1
EndSplineSet
Validated: 1
EndChar

StartChar: char8277
Encoding: 8277 -1 379
Width: 600
VWidth: -81
Flags: HW
LayerCount: 2
Back
Fore
SplineSet
200 550 m 1
 200 600 l 1
 250 600 l 1
 300 600 l 1
 300 550 l 1
 300 500 l 1
 350 500 l 1
 400 500 l 1
 400 450 l 1
 400 400 l 1
 350 400 l 1
 300 400 l 1
 300 350 l 1
 300 300 l 1
 400 300 l 1
 500 300 l 1
 500 250 l 1
 500 200 l 1
 400 200 l 1
 300 200 l 1
 300 150 l 1
 300 100 l 1
 350 100 l 1
 400 100 l 1
 400 50 l 1
 400 0 l 1
 350 0 l 1
 300 0 l 1
 300 -50 l 1
 300 -100 l 1
 250 -100 l 1
 200 -100 l 1
 200 -50 l 1
 200 0 l 1
 150 0 l 1
 100 0 l 1
 100 50 l 1
 100 100 l 1
 150 100 l 1
 200 100 l 1
 200 150 l 1
 200 200 l 1
 100 200 l 1
 0 200 l 1
 0 250 l 1
 0 300 l 1
 100 300 l 1
 200 300 l 1
 200 350 l 1
 200 400 l 1
 150 400 l 1
 100 400 l 1
 100 450 l 1
 100 500 l 1
 150 500 l 1
 200 500 l 1
 200 550 l 1
EndSplineSet
Validated: 1
EndChar

StartChar: char8278
Encoding: 8278 -1 380
Width: 600
VWidth: -81
Flags: HW
LayerCount: 2
Back
Fore
SplineSet
400 50 m 1
 400 100 l 1
 450 100 l 1
 500 100 l 1
 500 50 l 1
 500 0 l 1
 450 0 l 1
 400 0 l 1
 400 50 l 1
0 250 m 1
 0 300 l 1
 50 300 l 1
 100 300 l 1
 100 250 l 1
 100 200 l 1
 50 200 l 1
 0 200 l 1
 0 250 l 1
400 450 m 1
 400 500 l 1
 450 500 l 1
 500 500 l 1
 500 450 l 1
 500 400 l 1
 450 400 l 1
 400 400 l 1
 400 450 l 1
EndSplineSet
Validated: 1
EndChar

StartChar: char8279
Encoding: 8279 -1 381
Width: 600
VWidth: -81
Flags: HW
LayerCount: 2
Back
Fore
SplineSet
300 300 m 1
 300 400 l 1
 350 400 l 1
 400 400 l 1
 400 300 l 1
 400 200 l 1
 350 200 l 1
 300 200 l 1
 300 300 l 1
100 300 m 1
 100 400 l 1
 150 400 l 1
 200 400 l 1
 200 300 l 1
 200 200 l 1
 150 200 l 1
 100 200 l 1
 100 300 l 1
200 600 m 1
 200 700 l 1
 250 700 l 1
 300 700 l 1
 300 600 l 1
 300 500 l 1
 250 500 l 1
 200 500 l 1
 200 600 l 1
0 600 m 1
 0 700 l 1
 50 700 l 1
 100 700 l 1
 100 600 l 1
 100 500 l 1
 50 500 l 1
 0 500 l 1
 0 600 l 1
EndSplineSet
Validated: 1
EndChar

StartChar: char8280
Encoding: 8280 -1 382
Width: 600
VWidth: -81
Flags: HW
LayerCount: 2
Back
Fore
SplineSet
200 50 m 1
 200 100 l 1
 250 100 l 1
 300 100 l 1
 300 50 l 1
 300 0 l 1
 250 0 l 1
 200 0 l 1
 200 50 l 1
400 250 m 1
 400 300 l 1
 450 300 l 1
 500 300 l 1
 500 250 l 1
 500 200 l 1
 450 200 l 1
 400 200 l 1
 400 250 l 1
0 250 m 1
 0 300 l 1
 50 300 l 1
 100 300 l 1
 100 250 l 1
 100 200 l 1
 50 200 l 1
 0 200 l 1
 0 250 l 1
200 450 m 1
 200 500 l 1
 250 500 l 1
 300 500 l 1
 300 450 l 1
 300 400 l 1
 250 400 l 1
 200 400 l 1
 200 450 l 1
EndSplineSet
Validated: 1
EndChar

StartChar: char8281
Encoding: 8281 -1 383
Width: 600
VWidth: -81
Flags: HW
LayerCount: 2
Back
Fore
SplineSet
400 50 m 1
 400 100 l 1
 450 100 l 1
 500 100 l 1
 500 50 l 1
 500 0 l 1
 450 0 l 1
 400 0 l 1
 400 50 l 1
0 50 m 1
 0 100 l 1
 50 100 l 1
 100 100 l 1
 100 50 l 1
 100 0 l 1
 50 0 l 1
 0 0 l 1
 0 50 l 1
200 250 m 1
 200 300 l 1
 250 300 l 1
 300 300 l 1
 300 250 l 1
 300 200 l 1
 250 200 l 1
 200 200 l 1
 200 250 l 1
400 450 m 1
 400 500 l 1
 450 500 l 1
 500 500 l 1
 500 450 l 1
 500 400 l 1
 450 400 l 1
 400 400 l 1
 400 450 l 1
0 450 m 1
 0 500 l 1
 50 500 l 1
 100 500 l 1
 100 450 l 1
 100 400 l 1
 50 400 l 1
 0 400 l 1
 0 450 l 1
EndSplineSet
Validated: 1
EndChar

StartChar: char8282
Encoding: 8282 -1 384
Width: 600
VWidth: -81
Flags: HW
LayerCount: 2
Back
Fore
SplineSet
200 50 m 1
 200 100 l 1
 250 100 l 1
 300 100 l 1
 300 50 l 1
 300 0 l 1
 250 0 l 1
 200 0 l 1
 200 50 l 1
200 550 m 1
 200 600 l 1
 250 600 l 1
 300 600 l 1
 300 550 l 1
 300 500 l 1
 250 500 l 1
 200 500 l 1
 200 550 l 1
EndSplineSet
Validated: 1
EndChar

StartChar: char8283
Encoding: 8283 -1 385
Width: 600
VWidth: -81
Flags: HW
LayerCount: 2
Back
Fore
SplineSet
200 -50 m 1
 200 0 l 1
 250 0 l 1
 300 0 l 1
 300 -50 l 1
 300 -100 l 1
 250 -100 l 1
 200 -100 l 1
 200 -50 l 1
400 250 m 1
 400 300 l 1
 450 300 l 1
 500 300 l 1
 500 250 l 1
 500 200 l 1
 450 200 l 1
 400 200 l 1
 400 250 l 1
0 250 m 1
 0 300 l 1
 50 300 l 1
 100 300 l 1
 100 250 l 1
 100 200 l 1
 50 200 l 1
 0 200 l 1
 0 250 l 1
200 550 m 1
 200 600 l 1
 250 600 l 1
 300 600 l 1
 300 550 l 1
 300 500 l 1
 250 500 l 1
 200 500 l 1
 200 550 l 1
EndSplineSet
Validated: 1
EndChar

StartChar: char8284
Encoding: 8284 -1 386
Width: 600
VWidth: -81
Flags: HW
LayerCount: 2
Back
Fore
SplineSet
400 50 m 1
 400 100 l 1
 450 100 l 1
 500 100 l 1
 500 50 l 1
 500 0 l 1
 450 0 l 1
 400 0 l 1
 400 50 l 1
0 50 m 1
 0 100 l 1
 50 100 l 1
 100 100 l 1
 100 50 l 1
 100 0 l 1
 50 0 l 1
 0 0 l 1
 0 50 l 1
400 450 m 1
 400 500 l 1
 450 500 l 1
 500 500 l 1
 500 450 l 1
 500 400 l 1
 450 400 l 1
 400 400 l 1
 400 450 l 1
200 400 m 1
 200 500 l 1
 250 500 l 1
 300 500 l 1
 300 400 l 1
 300 300 l 1
 400 300 l 1
 500 300 l 1
 500 250 l 1
 500 200 l 1
 400 200 l 1
 300 200 l 1
 300 100 l 1
 300 0 l 1
 250 0 l 1
 200 0 l 1
 200 100 l 1
 200 200 l 1
 100 200 l 1
 0 200 l 1
 0 250 l 1
 0 300 l 1
 100 300 l 1
 200 300 l 1
 200 400 l 1
0 450 m 1
 0 500 l 1
 50 500 l 1
 100 500 l 1
 100 450 l 1
 100 400 l 1
 50 400 l 1
 0 400 l 1
 0 450 l 1
EndSplineSet
Validated: 1
EndChar

StartChar: char8285
Encoding: 8285 -1 387
Width: 600
VWidth: -81
Flags: HW
LayerCount: 2
Back
Fore
SplineSet
200 50 m 1
 200 100 l 1
 250 100 l 1
 300 100 l 1
 300 50 l 1
 300 0 l 1
 250 0 l 1
 200 0 l 1
 200 50 l 1
200 250 m 1
 200 300 l 1
 250 300 l 1
 300 300 l 1
 300 250 l 1
 300 200 l 1
 250 200 l 1
 200 200 l 1
 200 250 l 1
200 450 m 1
 200 500 l 1
 250 500 l 1
 300 500 l 1
 300 450 l 1
 300 400 l 1
 250 400 l 1
 200 400 l 1
 200 450 l 1
EndSplineSet
Validated: 1
EndChar

StartChar: char8286
Encoding: 8286 -1 388
Width: 600
VWidth: -81
Flags: HW
LayerCount: 2
Back
Fore
SplineSet
200 -50 m 1
 200 0 l 1
 250 0 l 1
 300 0 l 1
 300 -50 l 1
 300 -100 l 1
 250 -100 l 1
 200 -100 l 1
 200 -50 l 1
200 150 m 1
 200 200 l 1
 250 200 l 1
 300 200 l 1
 300 150 l 1
 300 100 l 1
 250 100 l 1
 200 100 l 1
 200 150 l 1
200 350 m 1
 200 400 l 1
 250 400 l 1
 300 400 l 1
 300 350 l 1
 300 300 l 1
 250 300 l 1
 200 300 l 1
 200 350 l 1
200 550 m 1
 200 600 l 1
 250 600 l 1
 300 600 l 1
 300 550 l 1
 300 500 l 1
 250 500 l 1
 200 500 l 1
 200 550 l 1
EndSplineSet
Validated: 1
EndChar

StartChar: char8364
Encoding: 8364 -1 389
Width: 600
VWidth: -81
Flags: HW
LayerCount: 2
Back
Fore
SplineSet
100 500 m 1
 100 600 l 1
 300 600 l 1
 500 600 l 1
 500 550 l 1
 500 500 l 1
 350 500 l 1
 200 500 l 1
 200 450 l 1
 200 400 l 1
 300 400 l 1
 400 400 l 1
 400 300 l 1
 400 200 l 1
 300 200 l 1
 200 200 l 1
 200 150 l 1
 200 100 l 1
 350 100 l 1
 500 100 l 1
 500 50 l 1
 500 0 l 1
 300 0 l 1
 100 0 l 1
 100 100 l 1
 100 200 l 1
 50 200 l 1
 0 200 l 1
 0 300 l 1
 0 400 l 1
 50 400 l 1
 100 400 l 1
 100 500 l 1
EndSplineSet
Validated: 1
EndChar

StartChar: char8592
Encoding: 8592 -1 390
Width: 600
VWidth: -81
Flags: HW
LayerCount: 2
Back
Fore
SplineSet
100 350 m 1
 100 400 l 1
 150 400 l 1
 200 400 l 1
 200 350 l 1
 200 300 l 1
 350 300 l 1
 500 300 l 1
 500 250 l 1
 500 200 l 1
 350 200 l 1
 200 200 l 1
 200 150 l 1
 200 100 l 1
 150 100 l 1
 100 100 l 1
 100 150 l 1
 100 200 l 1
 50 200 l 1
 0 200 l 1
 0 250 l 1
 0 300 l 1
 50 300 l 1
 100 300 l 1
 100 350 l 1
EndSplineSet
Validated: 2097153
EndChar

StartChar: char8592
Encoding: 8593 -1 391
Width: 600
VWidth: -81
Flags: HW
LayerCount: 2
Back
Fore
SplineSet
200 450 m 1
 200 500 l 1
 250 500 l 1
 300 500 l 1
 300 450 l 1
 300 400 l 1
 350 400 l 1
 400 400 l 1
 400 350 l 1
 400 300 l 1
 350 300 l 1
 300 300 l 1
 300 150 l 1
 300 0 l 1
 250 0 l 1
 200 0 l 1
 200 150 l 1
 200 300 l 1
 150 300 l 1
 100 300 l 1
 100 350 l 1
 100 400 l 1
 150 400 l 1
 200 400 l 1
 200 450 l 1
EndSplineSet
Validated: 2097153
EndChar

StartChar: char8592
Encoding: 8594 -1 392
Width: 600
VWidth: -81
Flags: HW
LayerCount: 2
Back
Fore
SplineSet
300 350 m 1
 300 400 l 1
 350 400 l 1
 400 400 l 1
 400 350 l 1
 400 300 l 1
 450 300 l 1
 500 300 l 1
 500 250 l 1
 500 200 l 1
 450 200 l 1
 400 200 l 1
 400 150 l 1
 400 100 l 1
 350 100 l 1
 300 100 l 1
 300 150 l 1
 300 200 l 1
 150 200 l 1
 0 200 l 1
 0 250 l 1
 0 300 l 1
 150 300 l 1
 300 300 l 1
 300 350 l 1
EndSplineSet
Validated: 2097153
EndChar

StartChar: char8592
Encoding: 8595 -1 393
Width: 600
VWidth: -81
Flags: HW
LayerCount: 2
Back
Fore
SplineSet
200 350 m 1
 200 500 l 1
 250 500 l 1
 300 500 l 1
 300 350 l 1
 300 200 l 1
 350 200 l 1
 400 200 l 1
 400 150 l 1
 400 100 l 1
 350 100 l 1
 300 100 l 1
 300 50 l 1
 300 0 l 1
 250 0 l 1
 200 0 l 1
 200 50 l 1
 200 100 l 1
 150 100 l 1
 100 100 l 1
 100 150 l 1
 100 200 l 1
 150 200 l 1
 200 200 l 1
 200 350 l 1
EndSplineSet
Validated: 2097153
EndChar

